<?xml version="1.0" encoding="UTF-8"?>
<svg id="IMAGENES" xmlns="http://www.w3.org/2000/svg" viewBox="0 0 932.44 293.81">
  <defs>
    <style>
      .cls-1 {
        fill: #e1e1e1;
      }

      .cls-2 {
        fill: none;
      }

      .cls-3 {
        fill: #8c8c8c;
      }

      .cls-4 {
        fill: #8996be;
      }

      .cls-5 {
        fill: #efd1a0;
      }

      .cls-6 {
        fill: #f2c166;
      }

      .cls-7 {
        fill: #1d3191;
      }
    </style>
  </defs>
  <polyline points="747.24 220.74 747.24 229.66 738.33 229.66 738.33 220.74 484.75 220.74 475.84 220.74 221.53 220.74 221.53 229.66 212.62 229.66 212.62 220.74 92.14 220.74 92.14 210.05 867.18 210.05 867.18 220.74 747.24 220.74 738.33 220.74 484.75 220.74 484.75 229.66 475.84 229.66 475.84 220.74 221.53 220.74 212.62 220.74"/>
  <rect class="cls-5" x="618.5" y="13.46" width="248.79" height="67.9"/>
  <rect class="cls-4" x="356.01" y="13.46" width="248.79" height="67.9"/>
  <rect class="cls-7" x="356.01" y="81.36" width="248.79" height="10.69"/>
  <rect class="cls-6" x="618.5" y="81.36" width="248.79" height="10.69"/>
  <g>
    <rect class="cls-2" x="367.14" y="29.8" width="226.54" height="68.87"/>
    <path d="M374.27,40.07c.36,1.58,1.44,2.44,3.36,2.44,2.06,0,2.88-.97,2.88-2.22,0-1.33-.65-2.07-3.3-2.71-3.12-.76-4.2-1.82-4.2-3.68,0-1.96,1.45-3.56,4.4-3.56,3.15,0,4.44,1.82,4.62,3.56h-1.78c-.24-1.18-.97-2.14-2.9-2.14-1.61,0-2.51.72-2.51,1.98s.75,1.73,3.06,2.29c3.77.92,4.44,2.38,4.44,4.08,0,2.13-1.58,3.8-4.81,3.8s-4.76-1.82-5.03-3.84h1.78Z"/>
    <path d="M385.71,39.24c.01,1.96,1,3.35,2.63,3.35,1.52,0,2.02-.79,2.32-1.49h1.68c-.38,1.23-1.41,2.88-4.05,2.88-3.03,0-4.26-2.46-4.26-4.94,0-2.86,1.44-5.15,4.37-5.15,3.11,0,4.13,2.49,4.13,4.55,0,.29,0,.54-.03.8h-6.79ZM390.84,38.06c-.02-1.58-.82-2.86-2.46-2.86s-2.44,1.18-2.61,2.86h5.07Z"/>
    <path d="M394.67,36.6c0-.83,0-1.7-.02-2.48h1.6c.03.29.07,1,.06,1.48.44-.86,1.28-1.71,2.8-1.71,1.36,0,2.3.69,2.67,1.73.52-.91,1.43-1.73,3.07-1.73s3.04.92,3.04,3.53v6.33h-1.64v-6.13c0-1.12-.4-2.3-1.91-2.3s-2.25,1.19-2.25,2.89v5.53h-1.63v-6.08c0-1.24-.35-2.34-1.86-2.34s-2.29,1.25-2.29,3.09v5.33h-1.65v-7.15Z"/>
    <path d="M410.74,29.8h1.66v2.08h-1.66v-2.08ZM410.74,34.12h1.66v9.63h-1.66v-9.63Z"/>
    <path d="M415.25,36.54c0-.83,0-1.68-.02-2.43h1.62c.04.28.07,1.3.06,1.58.38-.83,1.17-1.81,3.03-1.81s3.22,1.11,3.22,3.67v6.2h-1.66v-5.98c0-1.46-.57-2.44-2.04-2.44-1.82,0-2.55,1.38-2.55,3.32v5.1h-1.66v-7.21Z"/>
    <path d="M433.06,41.65c0,.88.08,1.82.13,2.1h-1.59c-.08-.21-.13-.67-.16-1.26-.34.64-1.11,1.49-2.97,1.49-2.27,0-3.24-1.48-3.24-2.94,0-2.15,1.69-3.13,4.55-3.13h1.64v-.82c0-.85-.27-1.89-2.07-1.89-1.61,0-1.88.8-2.06,1.55h-1.61c.13-1.33.95-2.86,3.72-2.86,2.35,0,3.66.97,3.66,3.16v4.6ZM431.44,39.05h-1.56c-1.92,0-2.95.53-2.95,1.89,0,1,.69,1.73,1.88,1.73,2.32,0,2.63-1.56,2.63-3.31v-.31Z"/>
    <path d="M435.94,36.74c0-1.35-.01-2.1-.02-2.62h1.63c.03.27.05,1.03.05,1.97.5-1.3,1.65-2.14,3.24-2.19v1.66c-1.97.06-3.24,1.09-3.24,3.53v4.68h-1.66v-7.02Z"/>
    <path d="M442.49,29.8h1.66v2.08h-1.66v-2.08ZM442.49,34.12h1.66v9.63h-1.66v-9.63Z"/>
    <path d="M455.28,38.92c0,2.77-1.59,5.06-4.54,5.06-2.76,0-4.43-2.14-4.43-5.03s1.63-5.06,4.54-5.06c2.68,0,4.43,2,4.43,5.03ZM448.02,38.93c0,2.11,1.05,3.65,2.79,3.65s2.75-1.46,2.75-3.65-.99-3.66-2.79-3.66-2.75,1.45-2.75,3.65Z"/>
    <path d="M470.27,29.8v11.23c0,.91,0,1.79.02,2.72h-1.6c-.04-.25-.08-.99-.08-1.37-.47,1-1.45,1.6-3.03,1.6-2.48,0-4-2.01-4-4.94s1.64-5.15,4.3-5.15c1.71,0,2.46.69,2.72,1.23v-5.32h1.66ZM463.3,38.98c0,2.33,1.11,3.58,2.62,3.58,2.25,0,2.75-1.66,2.75-3.77s-.45-3.49-2.62-3.49c-1.7,0-2.75,1.35-2.75,3.68Z"/>
    <path d="M474.1,39.24c.01,1.96,1,3.35,2.63,3.35,1.52,0,2.02-.79,2.33-1.49h1.68c-.38,1.23-1.41,2.88-4.05,2.88-3.03,0-4.26-2.46-4.26-4.94,0-2.86,1.44-5.15,4.37-5.15,3.11,0,4.12,2.49,4.12,4.55,0,.29,0,.54-.03.8h-6.79ZM479.22,38.06c-.02-1.58-.82-2.86-2.46-2.86s-2.44,1.18-2.61,2.86h5.07Z"/>
    <path d="M488.09,30.53h1.75v11.72h6.89l-.24,1.5h-8.4v-13.22Z"/>
    <path d="M498.73,29.8h1.66v2.08h-1.66v-2.08ZM498.73,34.12h1.66v9.63h-1.66v-9.63Z"/>
    <path d="M510.84,40.8c-.41,1.66-1.53,3.18-3.98,3.18-2.65,0-4.29-1.91-4.29-4.99,0-2.72,1.54-5.1,4.42-5.1s3.74,1.98,3.86,3.22h-1.65c-.24-.98-.85-1.83-2.24-1.83-1.71,0-2.67,1.46-2.67,3.65s.94,3.67,2.61,3.67c1.21,0,1.91-.64,2.3-1.79h1.65Z"/>
    <path d="M513.94,39.24c.01,1.96,1,3.35,2.63,3.35,1.52,0,2.02-.79,2.32-1.49h1.68c-.38,1.23-1.41,2.88-4.05,2.88-3.03,0-4.26-2.46-4.26-4.94,0-2.86,1.44-5.15,4.37-5.15,3.11,0,4.13,2.49,4.13,4.55,0,.29,0,.54-.03.8h-6.79ZM519.07,38.06c-.02-1.58-.82-2.86-2.46-2.86s-2.44,1.18-2.61,2.86h5.07Z"/>
    <path d="M522.91,36.54c0-.83,0-1.68-.02-2.43h1.62c.04.28.07,1.3.06,1.58.38-.83,1.17-1.81,3.03-1.81s3.22,1.11,3.22,3.67v6.2h-1.66v-5.98c0-1.46-.57-2.44-2.04-2.44-1.82,0-2.55,1.38-2.55,3.32v5.1h-1.66v-7.21Z"/>
    <path d="M541.26,40.8c-.41,1.66-1.53,3.18-3.98,3.18-2.65,0-4.29-1.91-4.29-4.99,0-2.72,1.54-5.1,4.42-5.1s3.74,1.98,3.86,3.22h-1.65c-.24-.98-.85-1.83-2.24-1.83-1.71,0-2.67,1.46-2.67,3.65s.94,3.67,2.61,3.67c1.21,0,1.91-.64,2.3-1.79h1.65Z"/>
    <path d="M543.42,29.8h1.66v2.08h-1.66v-2.08ZM543.42,34.12h1.66v9.63h-1.66v-9.63Z"/>
    <path d="M554.98,41.65c0,.88.08,1.82.13,2.1h-1.59c-.08-.21-.13-.67-.16-1.26-.34.64-1.1,1.49-2.97,1.49-2.27,0-3.24-1.48-3.24-2.94,0-2.15,1.69-3.13,4.55-3.13h1.64v-.82c0-.85-.27-1.89-2.07-1.89-1.61,0-1.88.8-2.06,1.55h-1.61c.13-1.33.95-2.86,3.72-2.86,2.35,0,3.66.97,3.66,3.16v4.6ZM553.36,39.05h-1.56c-1.92,0-2.95.53-2.95,1.89,0,1,.69,1.73,1.88,1.73,2.32,0,2.63-1.56,2.63-3.31v-.31Z"/>
    <path d="M556.49,34.12h1.67v-2.84h1.66v2.84h2.13v1.36h-2.13v5.64c0,.94.23,1.42,1.1,1.42.23,0,.58-.01.84-.08v1.25c-.41.15-.98.18-1.44.18-1.5,0-2.16-.78-2.16-2.38v-6.03h-1.67v-1.36Z"/>
    <path d="M571.27,40.94c0,.94.01,2.24.02,2.81h-1.62c-.04-.25-.06-.84-.06-1.44-.47,1.07-1.4,1.67-2.92,1.67-1.62,0-3.18-.81-3.18-3.53v-6.33h1.65v5.98c0,1.27.4,2.43,1.99,2.43,1.77,0,2.46-.98,2.46-3.39v-5.02h1.66v6.83Z"/>
    <path d="M574.12,36.74c0-1.35-.01-2.1-.02-2.62h1.63c.03.27.05,1.03.05,1.97.5-1.3,1.65-2.14,3.25-2.19v1.66c-1.98.06-3.25,1.09-3.25,3.53v4.68h-1.66v-7.02Z"/>
    <path d="M587.66,41.65c0,.88.08,1.82.13,2.1h-1.59c-.08-.21-.13-.67-.16-1.26-.34.64-1.1,1.49-2.97,1.49-2.27,0-3.24-1.48-3.24-2.94,0-2.15,1.69-3.13,4.55-3.13h1.64v-.82c0-.85-.27-1.89-2.07-1.89-1.61,0-1.88.8-2.06,1.55h-1.61c.13-1.33.95-2.86,3.72-2.86,2.35,0,3.66.97,3.66,3.16v4.6ZM586.04,39.05h-1.56c-1.92,0-2.95.53-2.95,1.89,0,1,.69,1.73,1.88,1.73,2.32,0,2.63-1.56,2.63-3.31v-.31Z"/>
    <path d="M466.63,55.53v13.22h-1.75v-13.22h1.75Z"/>
    <path d="M475.17,59.12c1.55,4.61,2.41,7.17,2.67,8.15h.02c.31-1.09,1-3.3,2.57-8.15h1.68l-3.46,10.08c-.98,2.82-1.7,3.53-3.68,3.53-.3,0-.66-.02-1.04-.06v-1.45c.24.03.52.05.79.05,1.22,0,1.68-.54,2.25-2.14l-3.61-10h1.8Z"/>
    <path d="M490.61,55.53v13.22h-1.75v-13.22h1.75Z"/>
    <path d="M495.95,55.53v13.22h-1.75v-13.22h1.75Z"/>
  </g>
  <g>
    <rect class="cls-2" x="629.63" y="29.8" width="226.54" height="68.87"/>
    <path d="M669.16,30.53h5.02c2.57,0,4.33,1.44,4.33,3.85,0,2.58-1.85,3.94-4.44,3.94h-3.15v5.43h-1.76v-13.22ZM670.93,36.85h3.06c1.81,0,2.72-.88,2.72-2.42s-1.1-2.42-2.65-2.42h-3.13v4.84Z"/>
    <path d="M680.44,36.74c0-1.35-.01-2.1-.02-2.62h1.63c.03.27.05,1.03.05,1.97.5-1.3,1.65-2.14,3.25-2.19v1.66c-1.98.06-3.25,1.09-3.25,3.53v4.68h-1.66v-7.02Z"/>
    <path d="M695.25,38.92c0,2.77-1.59,5.06-4.54,5.06-2.76,0-4.43-2.14-4.43-5.03s1.64-5.06,4.54-5.06c2.67,0,4.43,2,4.43,5.03ZM688,38.93c0,2.11,1.05,3.65,2.79,3.65s2.75-1.46,2.75-3.65-.99-3.66-2.79-3.66-2.75,1.45-2.75,3.65Z"/>
    <path d="M698.11,34.12c1.56,4.61,2.41,7.17,2.67,8.15h.02c.31-1.09,1-3.3,2.57-8.15h1.68l-3.46,10.08c-.98,2.82-1.7,3.53-3.68,3.53-.3,0-.66-.02-1.04-.06v-1.45c.24.03.52.05.79.05,1.22,0,1.68-.54,2.25-2.14l-3.61-10h1.8Z"/>
    <path d="M707.69,39.24c.01,1.96,1,3.35,2.63,3.35,1.52,0,2.02-.79,2.33-1.49h1.68c-.38,1.23-1.41,2.88-4.05,2.88-3.03,0-4.26-2.46-4.26-4.94,0-2.86,1.44-5.15,4.37-5.15,3.11,0,4.13,2.49,4.13,4.55,0,.29,0,.54-.03.8h-6.79ZM712.82,38.06c-.02-1.58-.82-2.86-2.46-2.86s-2.44,1.18-2.61,2.86h5.07Z"/>
    <path d="M724.35,40.8c-.41,1.66-1.53,3.18-3.98,3.18-2.65,0-4.29-1.91-4.29-4.99,0-2.72,1.54-5.1,4.42-5.1s3.74,1.98,3.86,3.22h-1.65c-.24-.98-.85-1.83-2.25-1.83-1.7,0-2.67,1.46-2.67,3.65s.94,3.67,2.61,3.67c1.21,0,1.91-.64,2.3-1.79h1.66Z"/>
    <path d="M725.31,34.12h1.67v-2.84h1.66v2.84h2.13v1.36h-2.13v5.64c0,.94.23,1.42,1.1,1.42.23,0,.58-.01.84-.08v1.25c-.41.15-.98.18-1.44.18-1.5,0-2.16-.78-2.16-2.38v-6.03h-1.67v-1.36Z"/>
    <path d="M740.75,38.92c0,2.77-1.59,5.06-4.54,5.06-2.76,0-4.43-2.14-4.43-5.03s1.64-5.06,4.54-5.06c2.67,0,4.43,2,4.43,5.03ZM733.5,38.93c0,2.11,1.05,3.65,2.79,3.65s2.75-1.46,2.75-3.65-.99-3.66-2.79-3.66-2.75,1.45-2.75,3.65Z"/>
    <path d="M755.75,29.8v11.23c0,.91,0,1.79.02,2.72h-1.6c-.04-.25-.08-.99-.08-1.37-.47,1-1.45,1.6-3.03,1.6-2.48,0-4-2.01-4-4.94s1.64-5.15,4.31-5.15c1.71,0,2.46.69,2.72,1.23v-5.32h1.66ZM748.78,38.98c0,2.33,1.11,3.58,2.62,3.58,2.25,0,2.75-1.66,2.75-3.77s-.45-3.49-2.62-3.49c-1.7,0-2.75,1.35-2.75,3.68Z"/>
    <path d="M759.58,39.24c.01,1.96,1,3.35,2.63,3.35,1.52,0,2.02-.79,2.33-1.49h1.68c-.38,1.23-1.41,2.88-4.05,2.88-3.03,0-4.26-2.46-4.26-4.94,0-2.86,1.44-5.15,4.37-5.15,3.11,0,4.13,2.49,4.13,4.55,0,.29,0,.54-.03.8h-6.79ZM764.71,38.06c-.02-1.58-.82-2.86-2.46-2.86s-2.44,1.18-2.61,2.86h5.07Z"/>
    <path d="M776.24,32.03h-4.27v-1.5h10.31v1.5h-4.27v11.72h-1.76v-11.72Z"/>
    <path d="M788.32,29.61l-2.91,2.92h-1.57l2.43-2.92h2.05ZM783.85,34.12h1.66v9.63h-1.66v-9.63Z"/>
    <path d="M787.21,34.12h1.67v-2.84h1.66v2.84h2.13v1.36h-2.13v5.64c0,.94.23,1.42,1.1,1.42.23,0,.58-.01.84-.08v1.25c-.41.15-.98.18-1.44.18-1.5,0-2.16-.78-2.16-2.38v-6.03h-1.67v-1.36Z"/>
    <path d="M801.99,40.94c0,.94.01,2.24.02,2.81h-1.62c-.04-.25-.06-.84-.06-1.44-.47,1.07-1.4,1.67-2.92,1.67-1.62,0-3.18-.81-3.18-3.53v-6.33h1.65v5.98c0,1.27.4,2.43,2,2.43,1.77,0,2.46-.98,2.46-3.39v-5.02h1.66v6.83Z"/>
    <path d="M804.84,43.75v-13.95h1.66v13.95h-1.66Z"/>
    <path d="M817.63,38.92c0,2.77-1.59,5.06-4.54,5.06-2.76,0-4.43-2.14-4.43-5.03s1.64-5.06,4.54-5.06c2.67,0,4.43,2,4.43,5.03ZM810.38,38.93c0,2.11,1.05,3.65,2.79,3.65s2.75-1.46,2.75-3.65-.99-3.66-2.79-3.66-2.75,1.45-2.75,3.65Z"/>
    <path d="M729.12,55.53v13.22h-1.75v-13.22h1.75Z"/>
    <path d="M737.66,59.12c1.56,4.61,2.41,7.17,2.67,8.15h.02c.31-1.09,1-3.3,2.57-8.15h1.68l-3.46,10.08c-.98,2.82-1.7,3.53-3.68,3.53-.3,0-.66-.02-1.04-.06v-1.45c.24.03.52.05.79.05,1.22,0,1.68-.54,2.25-2.14l-3.61-10h1.8Z"/>
    <path d="M753.1,55.53v13.22h-1.75v-13.22h1.75Z"/>
    <path d="M758.44,55.53v13.22h-1.75v-13.22h1.75Z"/>
  </g>
  <g>
    <rect class="cls-2" x="103.8" y="236.64" width="226.54" height="68.87"/>
    <path d="M175.92,246.47c-.53,2.44-2.37,4.22-5.65,4.22-4.15,0-6.12-2.94-6.12-6.67s2.03-6.81,6.25-6.81c3.49,0,5.18,2.05,5.5,4.24h-2.83c-.27-1.01-.98-2.02-2.76-2.02-2.33,0-3.24,2.1-3.24,4.48,0,2.21.78,4.55,3.31,4.55,1.85,0,2.43-1.24,2.68-2h2.85Z"/>
    <path d="M177.84,236.64h2.72v2.43h-2.72v-2.43ZM177.84,240.67h2.72v9.83h-2.72v-9.83Z"/>
    <path d="M191.52,247.33c-.34,1.64-1.49,3.41-4.42,3.41s-4.63-2.12-4.63-5.07,1.77-5.22,4.76-5.22c3.32,0,4.24,2.38,4.29,3.49h-2.66c-.17-.8-.62-1.36-1.68-1.36-1.25,0-1.95,1.09-1.95,3,0,2.09.75,3.05,1.94,3.05.94,0,1.44-.55,1.68-1.29h2.67Z"/>
    <path d="M193.2,250.51v-13.87h2.72v13.87h-2.72Z"/>
    <path d="M207.51,245.57c0,2.98-1.78,5.16-4.9,5.16s-4.83-2.18-4.83-5.11,1.83-5.18,4.96-5.18c2.89,0,4.77,2.04,4.77,5.12ZM200.55,245.59c0,1.89.81,3.01,2.13,3.01s2.07-1.12,2.07-3c0-2.06-.75-3.03-2.11-3.03-1.26,0-2.09.94-2.09,3.01Z"/>
    <path d="M213.98,236.64h2.72v5.08c.41-.63,1.22-1.27,2.81-1.27,2.68,0,4.01,2.21,4.01,4.97s-1.45,5.32-4.28,5.32c-1.46,0-2.11-.45-2.58-1.16,0,.32-.05.68-.1.93h-2.6c.02-1.07.02-2.15.02-3.21v-10.65ZM220.77,245.47c0-1.64-.61-2.84-2.08-2.84-1.55,0-2.11,1.01-2.11,3.02,0,1.66.49,2.93,2.08,2.93,1.38,0,2.11-1.25,2.11-3.1Z"/>
    <path d="M233.5,247.97c0,.94.08,2.3.13,2.54h-2.6c-.08-.19-.13-.71-.14-.96-.36.55-1.02,1.19-2.76,1.19-2.37,0-3.37-1.56-3.37-3.08,0-2.24,1.8-3.27,4.68-3.27h1.4v-.6c0-.7-.25-1.39-1.51-1.39-1.15,0-1.4.49-1.53,1.2h-2.59c.15-1.75,1.23-3.16,4.22-3.14,2.63.02,4.07,1.05,4.07,3.39v4.13ZM230.84,246.03h-1.11c-1.64,0-2.25.5-2.25,1.45,0,.71.44,1.31,1.42,1.31,1.73,0,1.94-1.2,1.94-2.5v-.26ZM233.38,236.45l-3.03,2.82h-2.38l2.18-2.82h3.23Z"/>
    <path d="M237.8,247.55c.21.78.85,1.22,1.86,1.22s1.37-.36,1.37-.96c0-.63-.42-.88-1.83-1.22-3.2-.79-3.73-1.78-3.73-3.17s1.02-2.98,3.99-2.98,3.99,1.63,4.08,2.96h-2.59c-.09-.36-.33-1.05-1.61-1.05-.9,0-1.19.4-1.19.84,0,.49.31.73,1.9,1.1,3.28.76,3.75,1.89,3.75,3.33,0,1.63-1.24,3.11-4.24,3.11s-4.22-1.44-4.43-3.18h2.67Z"/>
    <path d="M245.6,236.64h2.72v2.43h-2.72v-2.43ZM245.6,240.67h2.72v9.83h-2.72v-9.83Z"/>
    <path d="M259.28,247.33c-.34,1.64-1.49,3.41-4.42,3.41s-4.63-2.12-4.63-5.07,1.77-5.22,4.76-5.22c3.32,0,4.24,2.38,4.29,3.49h-2.66c-.17-.8-.62-1.36-1.68-1.36-1.25,0-1.95,1.09-1.95,3,0,2.09.75,3.05,1.94,3.05.94,0,1.44-.55,1.68-1.29h2.67Z"/>
    <path d="M270.25,245.57c0,2.98-1.78,5.16-4.9,5.16s-4.83-2.18-4.83-5.11,1.83-5.18,4.96-5.18c2.89,0,4.77,2.04,4.77,5.12ZM263.29,245.59c0,1.89.81,3.01,2.13,3.01s2.07-1.12,2.07-3c0-2.06-.75-3.03-2.11-3.03-1.26,0-2.09.94-2.09,3.01Z"/>
    <path d="M199.21,262.41v13.1h-2.83v-13.1h2.83Z"/>
    <path d="M214.74,272.97c0,.94.08,2.3.13,2.54h-2.6c-.08-.19-.13-.71-.14-.96-.36.55-1.02,1.19-2.76,1.19-2.37,0-3.37-1.56-3.37-3.08,0-2.24,1.8-3.27,4.68-3.27h1.4v-.6c0-.7-.25-1.39-1.51-1.39-1.15,0-1.4.49-1.53,1.2h-2.59c.15-1.75,1.23-3.16,4.22-3.14,2.63.02,4.07,1.05,4.07,3.39v4.13ZM212.08,271.03h-1.11c-1.64,0-2.25.5-2.25,1.45,0,.71.44,1.31,1.42,1.31,1.73,0,1.94-1.2,1.94-2.5v-.26Z"/>
    <path d="M224.97,262.41v13.1h-2.83v-13.1h2.83Z"/>
    <path d="M231.24,275.51l-4.62-13.1h3.04l1.95,6.05c.59,1.83,1.04,3.38,1.34,4.72h.04c.27-1.22.78-2.82,1.4-4.68l2.04-6.09h2.89l-4.74,13.1h-3.34Z"/>
  </g>
  <g>
    <rect class="cls-2" x="367.03" y="236.64" width="226.54" height="68.87"/>
    <path d="M407.61,246.47c-.53,2.44-2.37,4.22-5.65,4.22-4.15,0-6.12-2.94-6.12-6.67s2.03-6.81,6.25-6.81c3.49,0,5.18,2.05,5.5,4.24h-2.83c-.27-1.01-.98-2.02-2.76-2.02-2.33,0-3.24,2.1-3.24,4.48,0,2.21.78,4.55,3.31,4.55,1.85,0,2.43-1.24,2.68-2h2.85Z"/>
    <path d="M409.53,236.64h2.72v2.43h-2.72v-2.43ZM409.53,240.67h2.72v9.83h-2.72v-9.83Z"/>
    <path d="M423.21,247.33c-.34,1.64-1.49,3.41-4.42,3.41s-4.63-2.12-4.63-5.07,1.77-5.22,4.76-5.22c3.32,0,4.24,2.38,4.29,3.49h-2.66c-.17-.8-.62-1.36-1.68-1.36-1.25,0-1.95,1.09-1.95,3,0,2.09.75,3.05,1.94,3.05.94,0,1.44-.55,1.68-1.29h2.67Z"/>
    <path d="M424.88,250.51v-13.87h2.72v13.87h-2.72Z"/>
    <path d="M439.2,245.57c0,2.98-1.78,5.16-4.9,5.16s-4.83-2.18-4.83-5.11,1.83-5.18,4.96-5.18c2.89,0,4.77,2.04,4.77,5.12ZM432.24,245.59c0,1.89.81,3.01,2.13,3.01s2.07-1.12,2.07-3c0-2.06-.75-3.03-2.11-3.03-1.26,0-2.09.94-2.09,3.01Z"/>
    <path d="M447.84,246.17c0,1.23.62,2.43,1.97,2.43,1.13,0,1.46-.46,1.72-1.05h2.72c-.35,1.2-1.42,3.18-4.51,3.18s-4.64-2.42-4.64-5c0-3.08,1.58-5.29,4.74-5.29,3.38,0,4.53,2.44,4.53,4.9,0,.33,0,.55-.04.83h-6.49ZM451.63,244.5c-.02-1.15-.48-2.11-1.8-2.11s-1.83.9-1.94,2.11h3.74Z"/>
    <path d="M458.24,247.55c.21.78.85,1.22,1.86,1.22s1.37-.36,1.37-.96c0-.63-.42-.88-1.83-1.22-3.2-.79-3.73-1.78-3.73-3.17s1.02-2.98,3.99-2.98,3.99,1.63,4.08,2.96h-2.59c-.09-.36-.33-1.05-1.61-1.05-.9,0-1.19.4-1.19.84,0,.49.31.73,1.9,1.1,3.28.76,3.75,1.89,3.75,3.33,0,1.63-1.24,3.11-4.24,3.11s-4.22-1.44-4.43-3.18h2.67Z"/>
    <path d="M468.72,249.64v4.64h-2.71v-11.23c0-.8,0-1.58-.02-2.37h2.64c.04.26.09.86.09,1.22.42-.72,1.3-1.45,2.86-1.45,2.21,0,3.92,1.85,3.92,4.9,0,3.47-1.91,5.39-4.29,5.39-1.39,0-2.11-.52-2.49-1.1ZM472.74,245.45c0-1.8-.73-2.82-2.02-2.82-1.55,0-2.09.99-2.09,2.97,0,1.88.51,2.97,1.98,2.97s2.14-1.12,2.14-3.12Z"/>
    <path d="M479.66,246.17c0,1.23.62,2.43,1.97,2.43,1.13,0,1.46-.46,1.72-1.05h2.72c-.35,1.2-1.42,3.18-4.51,3.18s-4.64-2.42-4.64-5c0-3.08,1.58-5.29,4.74-5.29,3.38,0,4.53,2.44,4.53,4.9,0,.33,0,.55-.04.83h-6.49ZM483.46,244.5c-.02-1.15-.48-2.11-1.8-2.11s-1.83.9-1.94,2.11h3.74Z"/>
    <path d="M496.72,247.33c-.34,1.64-1.49,3.41-4.42,3.41s-4.63-2.12-4.63-5.07,1.77-5.22,4.76-5.22c3.32,0,4.24,2.38,4.29,3.49h-2.66c-.17-.8-.62-1.36-1.68-1.36-1.25,0-1.95,1.09-1.95,3,0,2.09.75,3.05,1.94,3.05.94,0,1.44-.55,1.68-1.29h2.67Z"/>
    <path d="M498.49,236.64h2.72v2.43h-2.72v-2.43ZM498.49,240.67h2.72v9.83h-2.72v-9.83Z"/>
    <path d="M511.74,247.97c0,.94.08,2.3.13,2.54h-2.6c-.08-.19-.13-.71-.14-.96-.36.55-1.02,1.19-2.76,1.19-2.37,0-3.37-1.56-3.37-3.08,0-2.24,1.8-3.27,4.68-3.27h1.4v-.6c0-.7-.25-1.39-1.51-1.39-1.15,0-1.4.49-1.53,1.2h-2.59c.15-1.75,1.23-3.16,4.22-3.14,2.63.02,4.07,1.05,4.07,3.39v4.13ZM509.08,246.03h-1.11c-1.64,0-2.25.5-2.25,1.45,0,.71.44,1.31,1.42,1.31,1.73,0,1.94-1.2,1.94-2.5v-.26Z"/>
    <path d="M514.2,250.51v-13.87h2.72v13.87h-2.72Z"/>
    <path d="M519.37,236.64h2.72v2.43h-2.72v-2.43ZM519.37,240.67h2.72v9.83h-2.72v-9.83Z"/>
    <path d="M523.9,248.46l4.87-5.64h-4.63v-2.15h7.7v2.12l-4.77,5.57h5.12l-.33,2.15h-7.96v-2.04Z"/>
    <path d="M542.02,247.97c0,.94.08,2.3.13,2.54h-2.6c-.08-.19-.13-.71-.14-.96-.36.55-1.02,1.19-2.76,1.19-2.37,0-3.37-1.56-3.37-3.08,0-2.24,1.8-3.27,4.68-3.27h1.4v-.6c0-.7-.25-1.39-1.51-1.39-1.15,0-1.4.49-1.53,1.2h-2.59c.15-1.75,1.23-3.16,4.22-3.14,2.63.02,4.07,1.05,4.07,3.39v4.13ZM539.37,246.03h-1.11c-1.64,0-2.25.5-2.25,1.45,0,.71.44,1.31,1.42,1.31,1.73,0,1.94-1.2,1.94-2.5v-.26Z"/>
    <path d="M553.45,236.64v11.17c0,.9,0,1.8.02,2.7h-2.62c-.05-.29-.11-.8-.12-1.03-.47.77-1.32,1.26-2.79,1.26-2.49,0-4.07-2-4.07-5.06s1.68-5.22,4.47-5.22c1.42,0,2.17.5,2.39.94v-4.75h2.72ZM546.67,245.6c0,1.92.75,2.96,2.08,2.96,1.87,0,2.09-1.56,2.09-2.97,0-1.68-.24-2.95-2.02-2.95-1.43,0-2.15,1.12-2.15,2.97Z"/>
    <path d="M565.02,245.57c0,2.98-1.78,5.16-4.9,5.16s-4.83-2.18-4.83-5.11,1.83-5.18,4.96-5.18c2.89,0,4.77,2.04,4.77,5.12ZM558.06,245.59c0,1.89.81,3.01,2.13,3.01s2.07-1.12,2.07-3c0-2.06-.75-3.03-2.11-3.03-1.26,0-2.09.94-2.09,3.01Z"/>
    <path d="M453.35,275.51l-4.62-13.1h3.04l1.95,6.05c.59,1.83,1.04,3.38,1.34,4.72h.04c.27-1.22.78-2.82,1.4-4.68l2.04-6.09h2.89l-4.74,13.1h-3.34Z"/>
    <path d="M475.42,272.97c0,.94.08,2.3.13,2.54h-2.6c-.08-.19-.13-.71-.14-.96-.36.55-1.02,1.19-2.76,1.19-2.37,0-3.37-1.56-3.37-3.08,0-2.24,1.8-3.27,4.68-3.27h1.4v-.6c0-.7-.25-1.39-1.51-1.39-1.15,0-1.4.49-1.53,1.2h-2.59c.15-1.75,1.23-3.16,4.22-3.14,2.63.02,4.07,1.05,4.07,3.39v4.13ZM472.76,271.03h-1.11c-1.64,0-2.25.5-2.25,1.45,0,.71.44,1.31,1.42,1.31,1.73,0,1.94-1.2,1.94-2.5v-.26Z"/>
    <path d="M485.89,275.51l-4.62-13.1h3.04l1.95,6.05c.59,1.83,1.04,3.38,1.34,4.72h.04c.27-1.22.78-2.82,1.4-4.68l2.04-6.09h2.89l-4.74,13.1h-3.34Z"/>
    <path d="M498.4,262.41v13.1h-2.83v-13.1h2.83Z"/>
    <path d="M504.37,262.41v13.1h-2.83v-13.1h2.83Z"/>
    <path d="M510.33,262.41v13.1h-2.83v-13.1h2.83Z"/>
  </g>
  <g>
    <rect class="cls-2" x="629.52" y="234.96" width="226.54" height="68.87"/>
    <path d="M681.07,244.79c-.53,2.44-2.37,4.22-5.65,4.22-4.15,0-6.12-2.94-6.12-6.67s2.03-6.81,6.25-6.81c3.49,0,5.18,2.05,5.5,4.24h-2.83c-.27-1.01-.98-2.02-2.76-2.02-2.34,0-3.24,2.1-3.24,4.48,0,2.21.78,4.55,3.31,4.55,1.85,0,2.43-1.24,2.68-2h2.85Z"/>
    <path d="M682.99,234.96h2.72v2.43h-2.72v-2.43ZM682.99,238.99h2.72v9.83h-2.72v-9.83Z"/>
    <path d="M696.67,245.65c-.34,1.64-1.49,3.41-4.42,3.41s-4.63-2.12-4.63-5.07,1.77-5.22,4.76-5.22c3.32,0,4.24,2.38,4.29,3.49h-2.66c-.17-.8-.62-1.36-1.68-1.36-1.25,0-1.95,1.09-1.95,3,0,2.09.75,3.05,1.94,3.05.94,0,1.44-.55,1.68-1.29h2.67Z"/>
    <path d="M698.35,248.83v-13.87h2.72v13.87h-2.72Z"/>
    <path d="M712.66,243.89c0,2.97-1.78,5.16-4.89,5.16s-4.83-2.18-4.83-5.11,1.84-5.18,4.96-5.18c2.89,0,4.77,2.04,4.77,5.13ZM705.7,243.91c0,1.89.81,3.01,2.12,3.01s2.07-1.12,2.07-3c0-2.06-.76-3.03-2.11-3.03-1.26,0-2.09.93-2.09,3.01Z"/>
    <path d="M721.84,247.96v4.64h-2.71v-11.23c0-.8,0-1.58-.02-2.37h2.64c.04.26.09.86.09,1.22.42-.72,1.3-1.45,2.86-1.45,2.21,0,3.92,1.85,3.92,4.9,0,3.47-1.91,5.39-4.29,5.39-1.39,0-2.11-.52-2.49-1.1ZM725.85,243.77c0-1.8-.73-2.82-2.03-2.82-1.55,0-2.09.99-2.09,2.97,0,1.88.51,2.97,1.98,2.97s2.14-1.12,2.14-3.12Z"/>
    <path d="M730.49,241.66c0-.98,0-1.84-.02-2.67h2.67c.04.22.07,1.2.07,1.73.43-1.12,1.48-1.94,3.15-1.95v2.6c-1.98-.05-3.15.48-3.15,3.18v4.29h-2.72v-7.17Z"/>
    <path d="M746.96,243.89c0,2.97-1.78,5.16-4.89,5.16s-4.83-2.18-4.83-5.11,1.84-5.18,4.96-5.18c2.89,0,4.77,2.04,4.77,5.13ZM740,243.91c0,1.89.81,3.01,2.12,3.01s2.07-1.12,2.07-3c0-2.06-.76-3.03-2.11-3.03-1.26,0-2.09.93-2.09,3.01Z"/>
    <path d="M749.21,248.83v-7.79h-1.43v-2.05h1.43v-.86c0-2.03,1.01-3.36,3.14-3.36.45,0,1.02.04,1.27.12v2.15c-.15-.03-.36-.05-.57-.05-.8,0-1.11.3-1.11,1.35v.66h1.72v2.05h-1.72v7.79h-2.72Z"/>
    <path d="M757.07,244.49c0,1.23.62,2.43,1.97,2.43,1.13,0,1.46-.46,1.72-1.05h2.72c-.35,1.2-1.42,3.18-4.51,3.18s-4.64-2.42-4.64-5c0-3.08,1.58-5.29,4.74-5.29,3.38,0,4.53,2.44,4.53,4.9,0,.33,0,.55-.04.83h-6.49ZM760.87,242.82c-.02-1.14-.47-2.11-1.8-2.11s-1.83.9-1.94,2.11h3.74Z"/>
    <path d="M767.48,245.87c.21.78.85,1.22,1.86,1.22s1.37-.36,1.37-.96c0-.63-.42-.88-1.83-1.22-3.2-.79-3.73-1.78-3.73-3.17s1.02-2.98,3.99-2.98,3.99,1.63,4.08,2.96h-2.59c-.09-.36-.33-1.05-1.61-1.05-.9,0-1.19.4-1.19.84,0,.49.31.73,1.9,1.1,3.28.76,3.74,1.89,3.74,3.33,0,1.63-1.24,3.11-4.24,3.11s-4.22-1.44-4.43-3.18h2.68Z"/>
    <path d="M775.28,234.96h2.72v2.43h-2.72v-2.43ZM775.28,238.99h2.72v9.83h-2.72v-9.83Z"/>
    <path d="M789.59,243.89c0,2.97-1.78,5.16-4.9,5.16s-4.83-2.18-4.83-5.11,1.83-5.18,4.96-5.18c2.89,0,4.77,2.04,4.77,5.13ZM782.63,243.91c0,1.89.81,3.01,2.13,3.01s2.07-1.12,2.07-3c0-2.06-.75-3.03-2.11-3.03-1.26,0-2.09.93-2.09,3.01Z"/>
    <path d="M791.48,241.47c0-.84,0-1.75-.02-2.48h2.64c.05.25.09.94.11,1.25.33-.62,1.13-1.48,2.85-1.48,1.97,0,3.26,1.33,3.26,3.81v6.26h-2.72v-5.95c0-1.11-.37-1.91-1.57-1.91s-1.82.64-1.82,2.38v5.48h-2.72v-7.36Z"/>
    <path d="M810.77,246.29c0,.94.08,2.3.13,2.54h-2.6c-.08-.19-.13-.71-.14-.96-.36.55-1.03,1.19-2.76,1.19-2.37,0-3.37-1.56-3.37-3.08,0-2.24,1.8-3.27,4.68-3.27h1.4v-.6c0-.7-.25-1.39-1.51-1.39-1.15,0-1.4.49-1.53,1.2h-2.59c.15-1.75,1.23-3.16,4.22-3.14,2.63.02,4.07,1.05,4.07,3.39v4.13ZM808.12,244.35h-1.11c-1.64,0-2.25.5-2.25,1.45,0,.71.44,1.31,1.42,1.31,1.73,0,1.94-1.2,1.94-2.5v-.26Z"/>
    <path d="M813.24,248.83v-13.87h2.72v13.87h-2.72Z"/>
    <path d="M722.59,260.73v13.1h-2.83v-13.1h2.83Z"/>
    <path d="M732.88,273.83l-2.8-4.61h-.02l-2.87,4.61h-3.05l4.36-6.6-4.23-6.5h3.29l2.64,4.34h.02l2.74-4.34h3l-4.21,6.24,4.42,6.86h-3.27Z"/>
    <path d="M749.93,271.29c0,.94.08,2.3.13,2.54h-2.6c-.08-.19-.13-.71-.14-.96-.36.55-1.02,1.19-2.76,1.19-2.37,0-3.37-1.56-3.37-3.08,0-2.24,1.8-3.27,4.68-3.27h1.4v-.6c0-.7-.25-1.39-1.52-1.39-1.15,0-1.4.49-1.53,1.2h-2.59c.15-1.75,1.23-3.16,4.22-3.14,2.63.02,4.07,1.05,4.07,3.39v4.13ZM747.28,269.35h-1.11c-1.64,0-2.25.5-2.25,1.45,0,.71.44,1.31,1.41,1.31,1.73,0,1.94-1.2,1.94-2.5v-.26Z"/>
    <path d="M764.31,273.83l-2.8-4.61h-.02l-2.87,4.61h-3.05l4.36-6.6-4.23-6.5h3.29l2.65,4.34h.02l2.74-4.34h3l-4.22,6.24,4.42,6.86h-3.27Z"/>
  </g>
  <g>
    <path d="M75.65,266.7c1.58-.36,2.44-1.44,2.44-3.36,0-2.06-.97-2.88-2.21-2.88-1.33,0-2.07.65-2.71,3.3-.76,3.11-1.82,4.2-3.68,4.2-1.96,0-3.56-1.45-3.56-4.4,0-3.15,1.82-4.44,3.56-4.62v1.78c-1.18.24-2.14.97-2.14,2.9,0,1.61.72,2.51,1.98,2.51s1.73-.75,2.29-3.06c.92-3.77,2.38-4.44,4.08-4.44,2.13,0,3.8,1.58,3.8,4.81s-1.82,4.75-3.84,5.03v-1.78Z"/>
    <path d="M74.82,255.26c1.96-.01,3.35-1,3.35-2.63,0-1.52-.79-2.02-1.49-2.33v-1.68c1.23.38,2.88,1.41,2.88,4.05,0,3.03-2.46,4.26-4.94,4.26-2.86,0-5.15-1.44-5.15-4.37,0-3.11,2.49-4.13,4.55-4.13.29,0,.54,0,.8.03v6.79ZM73.64,250.13c-1.58.02-2.86.82-2.86,2.46s1.18,2.44,2.86,2.61v-5.07Z"/>
    <path d="M72.18,246.3c-.83,0-1.7,0-2.48.02v-1.6c.29-.03,1-.07,1.48-.06-.86-.44-1.71-1.28-1.71-2.8,0-1.36.69-2.3,1.73-2.67-.91-.52-1.73-1.42-1.73-3.07s.92-3.04,3.53-3.04h6.33v1.64h-6.13c-1.12,0-2.3.4-2.3,1.91s1.19,2.25,2.89,2.25h5.53v1.63h-6.08c-1.24,0-2.34.35-2.34,1.86s1.25,2.29,3.09,2.29h5.33v1.65h-7.15Z"/>
    <path d="M74.82,229.23c1.96-.01,3.35-1,3.35-2.63,0-1.52-.79-2.02-1.49-2.33v-1.68c1.23.38,2.88,1.41,2.88,4.05,0,3.03-2.46,4.26-4.94,4.26-2.86,0-5.15-1.44-5.15-4.37,0-3.11,2.49-4.13,4.55-4.13.29,0,.54,0,.8.03v6.79ZM73.64,224.1c-1.58.02-2.86.82-2.86,2.46s1.18,2.44,2.86,2.61v-5.07Z"/>
    <path d="M76.58,219.33c1.05-.28,1.67-1.06,1.67-2.36,0-1.42-.61-1.97-1.49-1.97s-1.32.44-1.76,2.28c-.67,2.75-1.51,3.33-2.82,3.33s-2.71-1-2.71-3.48,1.44-3.5,2.78-3.63v1.61c-.62.14-1.49.61-1.49,2.09,0,1.35.65,1.75,1.28,1.75.72,0,1.08-.4,1.5-2.16.69-2.92,1.67-3.5,3.1-3.5,1.69,0,2.92,1.34,2.92,3.74s-1.26,3.72-2.98,3.96v-1.66Z"/>
    <path d="M69.7,212.46v-1.67h-2.84v-1.66h2.84v-2.13h1.36v2.13h5.64c.94,0,1.42-.23,1.42-1.1,0-.23-.01-.58-.08-.84h1.25c.15.41.18.98.18,1.44,0,1.5-.78,2.16-2.38,2.16h-6.03v1.67h-1.36Z"/>
    <path d="M72.32,205.32c-1.35,0-2.1.01-2.62.02v-1.63c.27-.03,1.03-.05,1.97-.05-1.3-.5-2.14-1.65-2.19-3.25h1.66c.06,1.98,1.09,3.25,3.53,3.25h4.68v1.66h-7.02Z"/>
    <path d="M74.82,197.79c1.96-.01,3.35-1,3.35-2.63,0-1.52-.79-2.02-1.49-2.33v-1.68c1.23.38,2.88,1.41,2.88,4.05,0,3.03-2.46,4.26-4.94,4.26-2.86,0-5.15-1.44-5.15-4.37,0-3.11,2.49-4.13,4.55-4.13.29,0,.54,0,.8.03v6.79ZM73.64,192.66c-1.58.02-2.86.82-2.86,2.46s1.18,2.44,2.86,2.61v-5.07Z"/>
    <path d="M76.58,187.89c1.05-.28,1.67-1.06,1.67-2.36,0-1.42-.61-1.97-1.49-1.97s-1.32.44-1.76,2.28c-.67,2.75-1.51,3.33-2.82,3.33s-2.71-1-2.71-3.48,1.44-3.5,2.78-3.63v1.61c-.62.14-1.49.61-1.49,2.09,0,1.35.65,1.75,1.28,1.75.72,0,1.08-.4,1.5-2.16.69-2.92,1.67-3.5,3.1-3.5,1.69,0,2.92,1.34,2.92,3.74s-1.26,3.72-2.98,3.96v-1.66Z"/>
  </g>
  <rect class="cls-1" x="92.79" y="13.46" width="248.79" height="67.9"/>
  <rect class="cls-3" x="92.79" y="81.36" width="248.79" height="10.69"/>
  <g>
    <rect class="cls-2" x="103.91" y="29.8" width="226.54" height="46.08"/>
    <path d="M181.88,30.53h5.02c2.57,0,4.33,1.44,4.33,3.85,0,2.58-1.85,3.94-4.44,3.94h-3.15v5.43h-1.76v-13.22ZM183.65,36.84h3.06c1.81,0,2.72-.88,2.72-2.42s-1.1-2.42-2.65-2.42h-3.13v4.84Z"/>
    <path d="M193.16,36.73c0-1.35-.01-2.1-.02-2.62h1.63c.03.27.05,1.03.05,1.97.5-1.3,1.65-2.14,3.25-2.19v1.66c-1.98.06-3.25,1.09-3.25,3.53v4.68h-1.66v-7.02Z"/>
    <path d="M207.97,38.91c0,2.77-1.59,5.06-4.54,5.06-2.76,0-4.43-2.14-4.43-5.03s1.64-5.06,4.54-5.06c2.67,0,4.43,2,4.43,5.03ZM200.72,38.93c0,2.11,1.05,3.65,2.79,3.65s2.75-1.46,2.75-3.65-.99-3.66-2.79-3.66-2.75,1.45-2.75,3.65Z"/>
    <path d="M210.83,34.12c1.56,4.61,2.41,7.17,2.67,8.15h.02c.31-1.09,1-3.3,2.57-8.15h1.68l-3.46,10.08c-.98,2.82-1.7,3.53-3.68,3.53-.3,0-.66-.02-1.04-.06v-1.45c.24.03.52.05.79.05,1.22,0,1.68-.54,2.25-2.14l-3.61-10h1.8Z"/>
    <path d="M220.41,39.24c.01,1.96,1,3.35,2.63,3.35,1.52,0,2.02-.79,2.33-1.49h1.68c-.38,1.23-1.41,2.88-4.05,2.88-3.03,0-4.26-2.46-4.26-4.94,0-2.86,1.44-5.15,4.37-5.15,3.11,0,4.13,2.49,4.13,4.55,0,.29,0,.54-.03.8h-6.79ZM225.54,38.06c-.02-1.58-.82-2.86-2.46-2.86s-2.44,1.18-2.61,2.86h5.07Z"/>
    <path d="M237.07,40.8c-.41,1.66-1.53,3.18-3.98,3.18-2.65,0-4.29-1.91-4.29-4.99,0-2.72,1.54-5.1,4.42-5.1s3.74,1.98,3.86,3.22h-1.65c-.24-.98-.85-1.83-2.25-1.83-1.7,0-2.67,1.46-2.67,3.65s.94,3.67,2.61,3.67c1.21,0,1.91-.64,2.3-1.79h1.66Z"/>
    <path d="M238.03,34.12h1.67v-2.84h1.66v2.84h2.13v1.36h-2.13v5.64c0,.94.23,1.42,1.1,1.42.23,0,.58-.01.84-.08v1.25c-.41.15-.98.18-1.44.18-1.5,0-2.16-.78-2.16-2.38v-6.03h-1.67v-1.36Z"/>
    <path d="M253.47,38.91c0,2.77-1.59,5.06-4.54,5.06-2.76,0-4.43-2.14-4.43-5.03s1.64-5.06,4.54-5.06c2.67,0,4.43,2,4.43,5.03ZM246.22,38.93c0,2.11,1.05,3.65,2.79,3.65s2.75-1.46,2.75-3.65-.99-3.66-2.79-3.66-2.75,1.45-2.75,3.65Z"/>
    <path d="M203.41,55.53v13.22h-1.75v-13.22h1.75Z"/>
    <path d="M211.94,59.12c1.56,4.61,2.41,7.17,2.67,8.15h.02c.31-1.09,1-3.3,2.57-8.15h1.68l-3.46,10.08c-.98,2.82-1.7,3.53-3.68,3.53-.3,0-.66-.02-1.04-.06v-1.45c.24.03.52.05.79.05,1.22,0,1.68-.54,2.25-2.14l-3.61-10h1.8Z"/>
    <path d="M227.38,55.53v13.22h-1.75v-13.22h1.75Z"/>
    <path d="M232.72,55.53v13.22h-1.75v-13.22h1.75Z"/>
  </g>
  <rect class="cls-4" x="356.01" y="105.67" width="248.79" height="94.66"/>
  <rect class="cls-7" x="356.01" y="199.36" width="248.79" height="10.69"/>
  <g>
    <rect class="cls-2" x="367.14" y="122.01" width="226.54" height="75.48"/>
    <path d="M381.21,129.78h-6.57v4.68h7.22l-.23,1.5h-8.71v-13.22h8.61v1.5h-6.89v4.04h6.57v1.5Z"/>
    <path d="M383.76,135.96v-13.95h1.66v13.95h-1.66Z"/>
    <path d="M389.25,131.45c.01,1.96,1,3.35,2.63,3.35,1.52,0,2.02-.79,2.33-1.49h1.68c-.38,1.23-1.41,2.88-4.05,2.88-3.03,0-4.26-2.46-4.26-4.94,0-2.86,1.44-5.15,4.37-5.15,3.11,0,4.13,2.49,4.13,4.55,0,.29,0,.54-.03.8h-6.79ZM394.38,130.28c-.02-1.58-.82-2.86-2.46-2.86s-2.44,1.18-2.61,2.86h5.07Z"/>
    <path d="M405.91,133.01c-.41,1.66-1.53,3.18-3.98,3.18-2.65,0-4.29-1.91-4.29-4.99,0-2.72,1.54-5.1,4.42-5.1s3.74,1.98,3.86,3.22h-1.65c-.24-.98-.85-1.83-2.25-1.83-1.7,0-2.67,1.46-2.67,3.65s.94,3.67,2.61,3.67c1.21,0,1.91-.64,2.3-1.79h1.66Z"/>
    <path d="M406.88,126.33h1.67v-2.84h1.66v2.84h2.13v1.36h-2.13v5.64c0,.94.23,1.42,1.1,1.42.23,0,.58-.01.84-.08v1.25c-.41.15-.98.18-1.44.18-1.5,0-2.16-.78-2.16-2.38v-6.03h-1.67v-1.36Z"/>
    <path d="M414.1,122.01h1.66v2.08h-1.66v-2.08ZM414.1,126.33h1.66v9.63h-1.66v-9.63Z"/>
    <path d="M419.26,126.33c1.3,3.94,2.25,6.88,2.54,8.09h.02c.24-1.07,1.26-3.96,2.71-8.09h1.69l-3.54,9.63h-1.83l-3.36-9.63h1.78Z"/>
    <path d="M436.08,131.13c0,2.77-1.59,5.06-4.54,5.06-2.76,0-4.43-2.14-4.43-5.03s1.64-5.06,4.54-5.06c2.67,0,4.43,2,4.43,5.03ZM428.82,131.15c0,2.11,1.05,3.65,2.79,3.65s2.75-1.46,2.75-3.65-.99-3.66-2.79-3.66-2.75,1.45-2.75,3.65Z"/>
    <path d="M446.61,135.96l-4.81-13.22h1.88l2.33,6.59c.68,1.94,1.36,3.89,1.65,5.1h.04c.28-1.08,1.03-3.12,1.72-5.04l2.42-6.65h1.81l-4.97,13.22h-2.07Z"/>
    <path d="M460.61,126.33c1.56,4.61,2.41,7.17,2.67,8.15h.02c.31-1.09,1-3.3,2.57-8.15h1.68l-3.46,10.08c-.98,2.82-1.7,3.53-3.68,3.53-.3,0-.66-.02-1.04-.06v-1.45c.24.03.52.05.79.05,1.22,0,1.68-.54,2.25-2.14l-3.61-10h1.8Z"/>
    <path d="M485.6,130.33c0-2.45.03-4.95.08-6.34h-.07c-.57,2.14-2.71,7.81-4.22,11.97h-1.57c-1.15-3.38-3.36-9.74-3.95-12h-.06c.1,1.53.15,4.46.15,6.73v5.27h-1.65v-13.22h2.62c1.5,4.1,3.34,9.39,3.79,11.08h.03c.31-1.27,2.48-7.08,4.03-11.08h2.54v13.22h-1.71v-5.63Z"/>
    <path d="M490.59,129.1v-2.74h1.69v2.74h-1.69ZM490.59,135.96v-2.75h1.69v2.75h-1.69Z"/>
    <path d="M508.64,129.78h-6.57v4.68h7.22l-.23,1.5h-8.71v-13.22h8.61v1.5h-6.89v4.04h6.57v1.5Z"/>
    <path d="M511.19,135.96v-13.95h1.66v13.95h-1.66Z"/>
    <path d="M528.51,122.01v11.23c0,.91,0,1.79.02,2.72h-1.6c-.04-.25-.08-.99-.08-1.37-.47,1-1.45,1.6-3.03,1.6-2.48,0-4-2.01-4-4.94s1.64-5.15,4.31-5.15c1.71,0,2.46.69,2.72,1.23v-5.32h1.66ZM521.54,131.19c0,2.33,1.11,3.58,2.62,3.58,2.25,0,2.75-1.66,2.75-3.77s-.45-3.49-2.62-3.49c-1.7,0-2.75,1.35-2.75,3.68Z"/>
    <path d="M531.34,122.01h1.66v2.08h-1.66v-2.08ZM531.34,126.33h1.66v9.63h-1.66v-9.63Z"/>
    <path d="M536.56,133.21c.28,1.05,1.06,1.67,2.36,1.67,1.42,0,1.97-.61,1.97-1.49s-.44-1.32-2.28-1.76c-2.75-.67-3.33-1.51-3.33-2.82s1-2.71,3.48-2.71,3.5,1.44,3.63,2.78h-1.61c-.14-.62-.61-1.49-2.09-1.49-1.35,0-1.75.65-1.75,1.28,0,.72.4,1.08,2.16,1.5,2.92.69,3.5,1.67,3.5,3.1,0,1.69-1.34,2.92-3.74,2.92s-3.72-1.26-3.96-2.98h1.66Z"/>
    <path d="M552.36,133.01c-.41,1.66-1.53,3.18-3.98,3.18-2.65,0-4.29-1.91-4.29-4.99,0-2.72,1.54-5.1,4.42-5.1s3.74,1.98,3.86,3.22h-1.65c-.24-.98-.85-1.83-2.25-1.83-1.7,0-2.67,1.46-2.67,3.65s.94,3.67,2.61,3.67c1.21,0,1.91-.64,2.3-1.79h1.66Z"/>
    <path d="M562.01,133.15c0,.94.01,2.24.02,2.81h-1.62c-.04-.25-.06-.84-.06-1.44-.47,1.07-1.4,1.67-2.92,1.67-1.62,0-3.18-.81-3.18-3.53v-6.33h1.65v5.98c0,1.27.4,2.43,2,2.43,1.77,0,2.46-.98,2.46-3.39v-5.02h1.66v6.83Z"/>
    <path d="M564.86,128.95c0-1.35-.01-2.1-.02-2.62h1.63c.03.27.05,1.03.05,1.97.5-1.3,1.65-2.14,3.25-2.19v1.66c-1.98.06-3.25,1.09-3.25,3.53v4.68h-1.66v-7.02Z"/>
    <path d="M572.41,133.21c.28,1.05,1.06,1.67,2.36,1.67,1.42,0,1.97-.61,1.97-1.49s-.44-1.32-2.28-1.76c-2.75-.67-3.33-1.51-3.33-2.82s1-2.71,3.48-2.71,3.5,1.44,3.63,2.78h-1.61c-.14-.62-.61-1.49-2.09-1.49-1.35,0-1.75.65-1.75,1.28,0,.72.4,1.08,2.16,1.5,2.92.69,3.5,1.67,3.5,3.1,0,1.69-1.34,2.92-3.74,2.92s-3.72-1.26-3.96-2.98h1.66Z"/>
    <path d="M588.89,131.13c0,2.77-1.59,5.06-4.54,5.06-2.76,0-4.43-2.14-4.43-5.03s1.64-5.06,4.54-5.06c2.67,0,4.43,2,4.43,5.03ZM581.64,131.15c0,2.11,1.05,3.65,2.79,3.65s2.75-1.46,2.75-3.65-.99-3.66-2.79-3.66-2.75,1.45-2.75,3.65Z"/>
    <path d="M379.2,147.01v11.23c0,.91,0,1.79.02,2.72h-1.6c-.04-.25-.08-.99-.08-1.37-.47,1-1.45,1.6-3.03,1.6-2.48,0-4-2.01-4-4.94s1.64-5.15,4.31-5.15c1.71,0,2.46.69,2.72,1.23v-5.32h1.66ZM372.24,156.19c0,2.33,1.11,3.58,2.62,3.58,2.25,0,2.75-1.66,2.75-3.77s-.45-3.49-2.62-3.49c-1.7,0-2.75,1.35-2.75,3.68Z"/>
    <path d="M383.03,156.45c.01,1.96,1,3.35,2.63,3.35,1.52,0,2.02-.79,2.33-1.49h1.68c-.38,1.23-1.41,2.88-4.05,2.88-3.03,0-4.26-2.46-4.26-4.94,0-2.86,1.44-5.15,4.37-5.15,3.11,0,4.13,2.49,4.13,4.55,0,.29,0,.54-.03.8h-6.79ZM388.16,155.28c-.02-1.58-.82-2.86-2.46-2.86s-2.44,1.18-2.61,2.86h5.07Z"/>
    <path d="M392.03,160.96v-13.95h1.66v13.95h-1.66Z"/>
    <path d="M408.51,158.86c0,.88.08,1.82.13,2.1h-1.59c-.08-.21-.13-.67-.16-1.26-.34.64-1.1,1.49-2.97,1.49-2.27,0-3.24-1.48-3.24-2.94,0-2.15,1.69-3.13,4.55-3.13h1.64v-.82c0-.85-.27-1.89-2.07-1.89-1.61,0-1.88.8-2.06,1.55h-1.61c.13-1.33.95-2.86,3.72-2.86,2.35,0,3.66.97,3.66,3.16v4.6ZM406.89,156.27h-1.56c-1.92,0-2.95.53-2.95,1.89,0,1,.69,1.73,1.88,1.73,2.32,0,2.63-1.56,2.63-3.31v-.31Z"/>
    <path d="M411.59,160.96v-8.28h-1.55v-1.36h1.55v-1.15c0-1.77.68-3.35,2.81-3.35.35,0,.83.05,1.07.13v1.41c-.23-.06-.59-.09-.84-.09-.99,0-1.36.6-1.36,2.01v1.05h1.93v1.36h-1.93v8.28h-1.66Z"/>
    <path d="M416.8,147.01h1.66v2.08h-1.66v-2.08ZM416.8,151.33h1.66v9.63h-1.66v-9.63Z"/>
    <path d="M428.91,158.01c-.41,1.66-1.53,3.18-3.98,3.18-2.65,0-4.29-1.91-4.29-4.99,0-2.72,1.54-5.1,4.42-5.1s3.74,1.98,3.86,3.22h-1.65c-.24-.98-.85-1.83-2.25-1.83-1.7,0-2.67,1.46-2.67,3.65s.94,3.67,2.61,3.67c1.21,0,1.91-.64,2.3-1.79h1.66Z"/>
    <path d="M432.57,147.01v5.74c.49-.85,1.37-1.65,3.01-1.65,1.54,0,3.24.85,3.24,3.71v6.15h-1.66v-5.87c0-1.64-.69-2.55-2.09-2.55-1.73,0-2.5,1.15-2.5,3.15v5.27h-1.66v-13.95h1.66Z"/>
    <path d="M442.65,156.45c.01,1.96,1,3.35,2.63,3.35,1.52,0,2.02-.79,2.33-1.49h1.68c-.38,1.23-1.41,2.88-4.05,2.88-3.03,0-4.26-2.46-4.26-4.94,0-2.86,1.44-5.15,4.37-5.15,3.11,0,4.13,2.49,4.13,4.55,0,.29,0,.54-.03.8h-6.79ZM447.78,155.28c-.02-1.58-.82-2.86-2.46-2.86s-2.44,1.18-2.61,2.86h5.07Z"/>
    <path d="M457.98,159.77v4.98h-1.66v-11.07c0-.79,0-1.6-.02-2.35h1.62c.04.32.06.9.06,1.51.52-.97,1.5-1.74,3.15-1.74,2.23,0,3.85,1.87,3.85,4.8,0,3.44-1.86,5.29-4.19,5.29-1.56,0-2.37-.65-2.81-1.42ZM463.26,155.96c0-2.04-.93-3.44-2.58-3.44-2,0-2.78,1.26-2.78,3.6s.65,3.66,2.66,3.66c1.76,0,2.7-1.45,2.7-3.82Z"/>
    <path d="M475.55,156.13c0,2.77-1.59,5.06-4.54,5.06-2.76,0-4.43-2.14-4.43-5.03s1.64-5.06,4.54-5.06c2.67,0,4.43,2,4.43,5.03ZM468.3,156.15c0,2.11,1.05,3.65,2.79,3.65s2.75-1.46,2.75-3.65-.99-3.66-2.79-3.66-2.75,1.45-2.75,3.65Z"/>
    <path d="M477.72,160.96v-13.95h1.66v13.95h-1.66Z"/>
    <path d="M486.7,146.82l-2.91,2.92h-1.57l2.43-2.92h2.05ZM482.22,151.33h1.66v9.63h-1.66v-9.63Z"/>
    <path d="M485.58,151.33h1.67v-2.84h1.66v2.84h2.13v1.36h-2.13v5.64c0,.94.23,1.42,1.1,1.42.23,0,.58-.01.84-.08v1.25c-.41.15-.98.18-1.44.18-1.5,0-2.16-.78-2.16-2.38v-6.03h-1.67v-1.36Z"/>
    <path d="M492.8,147.01h1.66v2.08h-1.66v-2.08ZM492.8,151.33h1.66v9.63h-1.66v-9.63Z"/>
    <path d="M504.91,158.01c-.41,1.66-1.53,3.18-3.98,3.18-2.65,0-4.29-1.91-4.29-4.99,0-2.72,1.54-5.1,4.42-5.1s3.74,1.98,3.86,3.22h-1.65c-.24-.98-.85-1.83-2.25-1.83-1.7,0-2.67,1.46-2.67,3.65s.94,3.67,2.61,3.67c1.21,0,1.91-.64,2.3-1.79h1.66Z"/>
    <path d="M515.29,156.13c0,2.77-1.59,5.06-4.54,5.06-2.76,0-4.43-2.14-4.43-5.03s1.64-5.06,4.54-5.06c2.67,0,4.43,2,4.43,5.03ZM508.04,156.15c0,2.11,1.05,3.65,2.79,3.65s2.75-1.46,2.75-3.65-.99-3.66-2.79-3.66-2.75,1.45-2.75,3.65Z"/>
    <path d="M517.86,154.1v-2.74h1.69v2.74h-1.69ZM517.86,160.96v-2.75h1.69v2.75h-1.69Z"/>
    <path d="M528.3,156.45c.01,1.96,1,3.35,2.63,3.35,1.52,0,2.02-.79,2.33-1.49h1.68c-.38,1.23-1.41,2.88-4.05,2.88-3.03,0-4.26-2.46-4.26-4.94,0-2.86,1.44-5.15,4.37-5.15,3.11,0,4.13,2.49,4.13,4.55,0,.29,0,.54-.03.8h-6.79ZM533.43,155.28c-.02-1.58-.82-2.86-2.46-2.86s-2.44,1.18-2.61,2.86h5.07Z"/>
    <path d="M538.2,158.21c.28,1.05,1.06,1.67,2.36,1.67,1.42,0,1.97-.61,1.97-1.49s-.44-1.32-2.28-1.76c-2.75-.67-3.33-1.51-3.33-2.82s1-2.71,3.48-2.71,3.5,1.44,3.63,2.78h-1.61c-.14-.62-.61-1.49-2.09-1.49-1.35,0-1.75.65-1.75,1.28,0,.72.4,1.08,2.16,1.5,2.92.69,3.5,1.67,3.5,3.1,0,1.69-1.34,2.92-3.74,2.92s-3.72-1.26-3.96-2.98h1.66Z"/>
    <path d="M545.07,151.33h1.67v-2.84h1.66v2.84h2.13v1.36h-2.13v5.64c0,.94.23,1.42,1.1,1.42.23,0,.58-.01.84-.08v1.25c-.41.15-.98.18-1.44.18-1.5,0-2.16-.78-2.16-2.38v-6.03h-1.67v-1.36Z"/>
    <path d="M553.23,156.45c.01,1.96,1,3.35,2.63,3.35,1.52,0,2.02-.79,2.33-1.49h1.68c-.38,1.23-1.41,2.88-4.05,2.88-3.03,0-4.26-2.46-4.26-4.94,0-2.86,1.44-5.15,4.37-5.15,3.11,0,4.13,2.49,4.13,4.55,0,.29,0,.54-.03.8h-6.79ZM558.36,155.28c-.02-1.58-.82-2.86-2.46-2.86s-2.44,1.18-2.61,2.86h5.07ZM559.23,146.82l-2.91,2.92h-1.57l2.43-2.92h2.05Z"/>
    <path d="M561.03,151.33h1.67v-2.84h1.66v2.84h2.13v1.36h-2.13v5.64c0,.94.23,1.42,1.1,1.42.23,0,.58-.01.84-.08v1.25c-.41.15-.98.18-1.44.18-1.5,0-2.16-.78-2.16-2.38v-6.03h-1.67v-1.36Z"/>
    <path d="M568.25,147.01h1.66v2.08h-1.66v-2.08ZM568.25,151.33h1.66v9.63h-1.66v-9.63Z"/>
    <path d="M580.36,158.01c-.41,1.66-1.53,3.18-3.98,3.18-2.65,0-4.29-1.91-4.29-4.99,0-2.72,1.54-5.1,4.42-5.1s3.74,1.98,3.86,3.22h-1.65c-.24-.98-.85-1.83-2.25-1.83-1.7,0-2.67,1.46-2.67,3.65s.94,3.67,2.61,3.67c1.21,0,1.91-.64,2.3-1.79h1.66Z"/>
    <path d="M589.6,158.86c0,.88.08,1.82.13,2.1h-1.59c-.08-.21-.13-.67-.16-1.26-.34.64-1.1,1.49-2.97,1.49-2.27,0-3.24-1.48-3.24-2.94,0-2.15,1.69-3.13,4.55-3.13h1.64v-.82c0-.85-.27-1.89-2.07-1.89-1.61,0-1.88.8-2.06,1.55h-1.61c.13-1.33.95-2.86,3.72-2.86,2.35,0,3.66.97,3.66,3.16v4.6ZM587.98,156.27h-1.56c-1.92,0-2.95.53-2.95,1.89,0,1,.69,1.73,1.88,1.73,2.32,0,2.63-1.56,2.63-3.31v-.31Z"/>
    <path d="M450.71,176.33c1.56,4.61,2.41,7.17,2.67,8.15h.02c.31-1.09,1-3.3,2.57-8.15h1.68l-3.46,10.08c-.98,2.82-1.7,3.53-3.68,3.53-.3,0-.66-.02-1.04-.06v-1.45c.24.03.52.05.79.05,1.22,0,1.68-.54,2.25-2.14l-3.61-10h1.8Z"/>
    <path d="M465.74,184.77v4.98h-1.66v-11.07c0-.79,0-1.6-.02-2.35h1.62c.04.32.06.9.06,1.51.52-.97,1.5-1.74,3.15-1.74,2.23,0,3.85,1.87,3.85,4.8,0,3.44-1.86,5.29-4.19,5.29-1.56,0-2.37-.65-2.81-1.42ZM471.02,180.96c0-2.04-.93-3.44-2.58-3.44-2,0-2.78,1.26-2.78,3.6s.65,3.66,2.66,3.66c1.76,0,2.7-1.45,2.7-3.82Z"/>
    <path d="M474.92,178.95c0-1.35-.01-2.1-.02-2.62h1.63c.03.27.05,1.03.05,1.97.5-1.3,1.65-2.14,3.25-2.19v1.66c-1.98.06-3.25,1.09-3.25,3.53v4.68h-1.66v-7.02Z"/>
    <path d="M488.46,183.86c0,.88.08,1.82.13,2.1h-1.59c-.08-.21-.13-.67-.16-1.26-.34.64-1.1,1.49-2.97,1.49-2.27,0-3.24-1.48-3.24-2.94,0-2.15,1.69-3.13,4.55-3.13h1.64v-.82c0-.85-.27-1.89-2.07-1.89-1.61,0-1.88.8-2.06,1.55h-1.61c.13-1.33.95-2.86,3.72-2.86,2.35,0,3.66.97,3.66,3.16v4.6ZM486.83,181.27h-1.56c-1.92,0-2.95.53-2.95,1.89,0,1,.69,1.73,1.88,1.73,2.32,0,2.63-1.56,2.63-3.31v-.31Z"/>
    <path d="M491.97,176.33c1.35,2.14,1.93,3.06,2.28,3.6h.02c.41-.63,1.22-1.88,2.36-3.6h1.86l-3.26,4.63,3.29,5h-1.92c-1.17-1.88-1.99-3.18-2.38-3.8h-.02c-.32.54-1.1,1.82-2.36,3.8h-1.86l3.23-4.81-3.14-4.82h1.88Z"/>
    <path d="M500.13,172.01h1.66v2.08h-1.66v-2.08ZM500.13,176.33h1.66v9.63h-1.66v-9.63Z"/>
    <path d="M505.34,183.21c.28,1.05,1.06,1.67,2.36,1.67,1.42,0,1.97-.61,1.97-1.49s-.44-1.32-2.28-1.76c-2.75-.67-3.33-1.51-3.33-2.82s1-2.71,3.48-2.71,3.5,1.44,3.63,2.78h-1.61c-.14-.62-.61-1.49-2.09-1.49-1.35,0-1.75.65-1.75,1.28,0,.72.4,1.08,2.16,1.5,2.92.69,3.5,1.67,3.5,3.1,0,1.69-1.34,2.92-3.74,2.92s-3.72-1.26-3.96-2.98h1.66Z"/>
  </g>
</svg>