<?xml version="1.0" encoding="UTF-8"?>
<svg id="IMAGENES" xmlns="http://www.w3.org/2000/svg" viewBox="0 0 932.44 382.1">
  <defs>
    <style>
      .cls-1 {
        fill: #e1e1e1;
      }

      .cls-1, .cls-2, .cls-3, .cls-4, .cls-5, .cls-6, .cls-7 {
        stroke-width: 0px;
      }

      .cls-2 {
        fill: #8c8c8c;
      }

      .cls-4 {
        fill: #8996be;
      }

      .cls-5 {
        fill: #efd1a0;
      }

      .cls-6 {
        fill: #f2c166;
      }

      .cls-7 {
        fill: #1d3191;
      }
    </style>
  </defs>
  <polyline class="cls-3" points="757.29 281.04 757.29 289.95 748.38 289.95 748.38 281.04 494.8 281.04 485.89 281.04 231.57 281.04 231.57 289.95 222.66 289.95 222.66 281.04 102.19 281.04 102.19 270.35 877.23 270.35 877.23 281.04 757.29 281.04 748.38 281.04 494.8 281.04 494.8 289.95 485.89 289.95 485.89 281.04 231.57 281.04 222.66 281.04"/>
  <rect class="cls-5" x="628.55" y="73.75" width="248.79" height="67.9"/>
  <rect class="cls-4" x="366.06" y="73.75" width="248.79" height="67.9"/>
  <rect class="cls-7" x="366.06" y="141.65" width="248.79" height="10.69"/>
  <rect class="cls-6" x="628.55" y="141.65" width="248.79" height="10.69"/>
  <g>
    <path class="cls-3" d="M26.24,42.18l-1.18,3.5h-3.22l5.15-15.17h4.12l5.38,15.17h-3.45l-1.25-3.5h-5.54ZM31.07,39.49c-1.08-3.2-1.76-5.25-2.13-6.61h-.02c-.38,1.5-1.13,3.88-2,6.61h4.15Z"/>
    <path class="cls-3" d="M40.53,42.26c.24.91.98,1.42,2.16,1.42s1.59-.42,1.59-1.11c0-.73-.49-1.02-2.12-1.42-3.71-.91-4.32-2.06-4.32-3.67s1.18-3.45,4.62-3.45,4.62,1.89,4.72,3.43h-3c-.1-.42-.38-1.22-1.87-1.22-1.04,0-1.38.46-1.38.97,0,.57.35.84,2.2,1.27,3.8.88,4.34,2.19,4.34,3.86,0,1.89-1.43,3.6-4.91,3.6s-4.88-1.67-5.13-3.69h3.1Z"/>
    <path class="cls-3" d="M49.56,29.63h3.15v2.81h-3.15v-2.81ZM49.56,34.3h3.15v11.39h-3.15v-11.39Z"/>
    <path class="cls-3" d="M65.9,44.3c0,3.66-1.35,5.97-5.66,5.97s-4.98-2.32-5.09-3.61h3.21c.22.78.8,1.31,2.01,1.31,2.05,0,2.43-1.25,2.43-3.48v-.54c-.59.98-1.54,1.6-3.21,1.6-3,0-4.71-2.46-4.71-5.52,0-3.56,2.13-6,4.98-6,1.96,0,2.77.92,2.94,1.45.02-.31.1-1,.12-1.19h2.99c-.02,1.02-.03,2.17-.03,3.27v6.73ZM58.13,39.89c0,1.96.98,3.12,2.38,3.12,1.9,0,2.4-1.3,2.4-3.21s-.34-3.23-2.34-3.23c-1.37,0-2.44,1.05-2.44,3.33Z"/>
    <path class="cls-3" d="M68.72,37.17c0-.97,0-2.03-.02-2.87h3.05c.06.29.11,1.08.12,1.45.39-.72,1.31-1.71,3.3-1.71,2.29,0,3.78,1.54,3.78,4.41v7.25h-3.15v-6.89c0-1.28-.43-2.21-1.82-2.21s-2.11.75-2.11,2.76v6.35h-3.15v-8.52Z"/>
    <path class="cls-3" d="M91.06,42.74c0,1.08.09,2.67.15,2.94h-3.01c-.09-.22-.15-.83-.16-1.11-.41.64-1.19,1.38-3.2,1.38-2.75,0-3.9-1.81-3.9-3.57,0-2.59,2.08-3.79,5.42-3.79h1.62v-.7c0-.81-.29-1.61-1.75-1.61-1.33,0-1.62.57-1.77,1.39h-3c.17-2.02,1.42-3.66,4.88-3.64,3.05.02,4.71,1.21,4.71,3.92v4.79ZM87.98,40.5h-1.29c-1.9,0-2.61.58-2.61,1.68,0,.82.51,1.52,1.64,1.52,2,0,2.25-1.39,2.25-2.9v-.3Z"/>
    <path class="cls-3" d="M92.58,34.3h1.76v-3.08h3.15v3.08h2.23v2.37h-2.23v5.62c0,.86.27,1.2,1.21,1.2.17,0,.48,0,.72-.04v2.17c-.62.21-1.48.22-2.12.22-2.22,0-2.96-1.19-2.96-3.18v-5.99h-1.76v-2.37Z"/>
    <path class="cls-3" d="M111.46,42.38c0,1.1,0,2.29.02,3.31h-3.09c-.04-.3-.07-.92-.09-1.31-.67,1.14-1.68,1.58-3.13,1.58-2.32,0-3.8-1.41-3.8-4.23v-7.42h3.15v6.79c0,1.26.39,2.3,1.76,2.3,1.44,0,2.03-.77,2.03-3.02v-6.06h3.15v8.08Z"/>
    <path class="cls-3" d="M114.3,37.39c0-1.13,0-2.14-.02-3.09h3.09c.04.25.08,1.39.08,2,.5-1.3,1.72-2.25,3.65-2.26v3.01c-2.29-.06-3.65.56-3.65,3.68v4.96h-3.15v-8.3Z"/>
    <path class="cls-3" d="M132.04,42.74c0,1.08.09,2.67.15,2.94h-3.01c-.09-.22-.15-.83-.16-1.11-.41.64-1.19,1.38-3.2,1.38-2.75,0-3.9-1.81-3.9-3.57,0-2.59,2.08-3.79,5.42-3.79h1.62v-.7c0-.81-.29-1.61-1.75-1.61-1.33,0-1.62.57-1.77,1.39h-3c.17-2.02,1.42-3.66,4.88-3.64,3.05.02,4.71,1.21,4.71,3.92v4.79ZM128.97,40.5h-1.29c-1.9,0-2.61.58-2.61,1.68,0,.82.51,1.52,1.64,1.52,2,0,2.25-1.39,2.25-2.9v-.3Z"/>
    <path class="cls-3" d="M137.02,42.26c.24.91.98,1.42,2.16,1.42s1.59-.42,1.59-1.11c0-.73-.49-1.02-2.12-1.42-3.71-.91-4.32-2.06-4.32-3.67s1.18-3.45,4.62-3.45,4.62,1.89,4.72,3.43h-3c-.1-.42-.38-1.22-1.87-1.22-1.04,0-1.38.46-1.38.97,0,.57.35.84,2.2,1.27,3.8.88,4.34,2.19,4.34,3.86,0,1.89-1.44,3.6-4.91,3.6s-4.88-1.67-5.13-3.69h3.1Z"/>
    <path class="cls-3" d="M151.37,29.63h3.15v2.81h-3.15v-2.81ZM151.37,34.3h3.15v11.39h-3.15v-11.39Z"/>
    <path class="cls-3" d="M157.36,37.23c0-.99,0-1.96-.02-2.94h3.02c.04.28.11.91.12,1.36.58-.85,1.49-1.62,3.17-1.62s2.54.85,2.94,1.73c.67-.93,1.65-1.73,3.51-1.73,1.98,0,3.61,1.22,3.61,4.18v7.47h-3.08v-7.09c0-1.03-.37-2.03-1.66-2.03s-1.86.86-1.86,2.61v6.51h-3.09v-6.97c0-1.18-.29-2.13-1.64-2.13s-1.89.79-1.89,2.74v6.36h-3.11v-8.45Z"/>
    <path class="cls-3" d="M179.65,44.68v5.37h-3.13v-13.01c0-.92,0-1.83-.02-2.75h3.05c.04.3.1,1,.1,1.42.49-.84,1.51-1.68,3.31-1.68,2.56,0,4.54,2.14,4.54,5.67,0,4.02-2.21,6.25-4.97,6.25-1.61,0-2.45-.61-2.88-1.27ZM184.3,39.83c0-2.09-.85-3.27-2.35-3.27-1.79,0-2.43,1.15-2.43,3.44,0,2.17.59,3.44,2.29,3.44s2.48-1.3,2.48-3.62Z"/>
    <path class="cls-3" d="M199.05,42.74c0,1.08.09,2.67.15,2.94h-3.01c-.09-.22-.15-.83-.16-1.11-.41.64-1.19,1.38-3.2,1.38-2.75,0-3.9-1.81-3.9-3.57,0-2.59,2.08-3.79,5.42-3.79h1.62v-.7c0-.81-.29-1.61-1.75-1.61-1.33,0-1.62.57-1.77,1.39h-3c.17-2.02,1.42-3.66,4.88-3.64,3.05.02,4.71,1.21,4.71,3.92v4.79ZM195.98,40.5h-1.29c-1.9,0-2.61.58-2.61,1.68,0,.82.51,1.52,1.64,1.52,2,0,2.25-1.39,2.25-2.9v-.3Z"/>
    <path class="cls-3" d="M201.91,37.39c0-1.13,0-2.14-.02-3.09h3.09c.04.25.08,1.39.08,2,.5-1.3,1.72-2.25,3.65-2.26v3.01c-2.29-.06-3.65.56-3.65,3.68v4.96h-3.15v-8.3Z"/>
    <path class="cls-3" d="M209.91,34.3h1.76v-3.08h3.15v3.08h2.23v2.37h-2.23v5.62c0,.86.26,1.2,1.2,1.2.18,0,.48,0,.72-.04v2.17c-.62.21-1.48.22-2.12.22-2.22,0-2.96-1.19-2.96-3.18v-5.99h-1.76v-2.37Z"/>
    <path class="cls-3" d="M218.8,29.63h3.15v2.81h-3.15v-2.81ZM218.8,34.3h3.15v11.39h-3.15v-11.39Z"/>
    <path class="cls-3" d="M235.24,29.63v12.93c0,1.04,0,2.09.02,3.13h-3.03c-.06-.34-.12-.93-.14-1.19-.55.9-1.53,1.45-3.23,1.45-2.88,0-4.71-2.31-4.71-5.87s1.95-6.05,5.17-6.05c1.64,0,2.52.58,2.77,1.09v-5.5h3.15ZM227.38,40c0,2.22.87,3.42,2.41,3.42,2.17,0,2.42-1.81,2.42-3.44,0-1.95-.28-3.42-2.34-3.42-1.65,0-2.49,1.29-2.49,3.44Z"/>
    <path class="cls-3" d="M247.39,42.74c0,1.08.09,2.67.15,2.94h-3.01c-.09-.22-.15-.83-.16-1.11-.41.64-1.19,1.38-3.2,1.38-2.75,0-3.9-1.81-3.9-3.57,0-2.59,2.08-3.79,5.42-3.79h1.62v-.7c0-.81-.29-1.61-1.75-1.61-1.33,0-1.62.57-1.77,1.39h-3c.17-2.02,1.42-3.66,4.88-3.64,3.05.02,4.71,1.21,4.71,3.92v4.79ZM244.31,40.5h-1.29c-1.9,0-2.6.58-2.6,1.68,0,.82.51,1.52,1.64,1.52,2,0,2.25-1.39,2.25-2.9v-.3Z"/>
    <path class="cls-3" d="M252.37,42.26c.24.91.98,1.42,2.16,1.42s1.59-.42,1.59-1.11c0-.73-.49-1.02-2.12-1.42-3.71-.91-4.32-2.06-4.32-3.67s1.18-3.45,4.62-3.45,4.62,1.89,4.72,3.43h-3c-.1-.42-.38-1.22-1.87-1.22-1.04,0-1.38.46-1.38.97,0,.57.35.84,2.2,1.27,3.8.88,4.34,2.19,4.34,3.86,0,1.89-1.43,3.6-4.91,3.6s-4.88-1.67-5.13-3.69h3.1Z"/>
    <path class="cls-3" d="M277.17,29.63v12.93c0,1.04,0,2.09.02,3.13h-3.03c-.06-.34-.12-.93-.14-1.19-.55.9-1.53,1.45-3.23,1.45-2.88,0-4.71-2.31-4.71-5.87s1.95-6.05,5.17-6.05c1.64,0,2.52.58,2.77,1.09v-5.5h3.15ZM269.31,40c0,2.22.87,3.42,2.41,3.42,2.17,0,2.42-1.81,2.42-3.44,0-1.95-.28-3.42-2.34-3.42-1.65,0-2.49,1.29-2.49,3.44Z"/>
    <path class="cls-3" d="M289.99,42.38c0,1.1,0,2.29.02,3.31h-3.09c-.04-.3-.07-.92-.09-1.31-.68,1.14-1.68,1.58-3.14,1.58-2.32,0-3.8-1.41-3.8-4.23v-7.42h3.15v6.79c0,1.26.39,2.3,1.75,2.3,1.44,0,2.03-.77,2.03-3.02v-6.06h3.15v8.08Z"/>
    <path class="cls-3" d="M292.83,37.39c0-1.13,0-2.14-.02-3.09h3.09c.04.25.08,1.39.08,2,.5-1.3,1.72-2.25,3.65-2.26v3.01c-2.29-.06-3.65.56-3.65,3.68v4.96h-3.15v-8.3Z"/>
    <path class="cls-3" d="M310.57,42.74c0,1.08.09,2.67.15,2.94h-3.01c-.09-.22-.15-.83-.16-1.11-.41.64-1.19,1.38-3.2,1.38-2.75,0-3.9-1.81-3.9-3.57,0-2.59,2.08-3.79,5.42-3.79h1.62v-.7c0-.81-.29-1.61-1.75-1.61-1.33,0-1.62.57-1.77,1.39h-3c.17-2.02,1.42-3.66,4.88-3.64,3.05.02,4.71,1.21,4.71,3.92v4.79ZM307.5,40.5h-1.29c-1.9,0-2.6.58-2.6,1.68,0,.82.51,1.52,1.64,1.52,2,0,2.25-1.39,2.25-2.9v-.3Z"/>
    <path class="cls-3" d="M313.44,37.17c0-.97,0-2.03-.02-2.87h3.05c.06.29.11,1.08.12,1.45.39-.72,1.31-1.71,3.3-1.71,2.29,0,3.78,1.54,3.78,4.41v7.25h-3.15v-6.89c0-1.28-.43-2.21-1.82-2.21s-2.11.75-2.11,2.76v6.35h-3.15v-8.52Z"/>
    <path class="cls-3" d="M325.14,34.3h1.76v-3.08h3.15v3.08h2.23v2.37h-2.23v5.62c0,.86.27,1.2,1.21,1.2.17,0,.48,0,.72-.04v2.17c-.62.21-1.48.22-2.12.22-2.22,0-2.96-1.19-2.96-3.18v-5.99h-1.76v-2.37Z"/>
    <path class="cls-3" d="M336.52,40.67c0,1.42.72,2.82,2.29,2.82,1.31,0,1.69-.53,1.99-1.22h3.16c-.4,1.39-1.65,3.68-5.22,3.68s-5.38-2.81-5.38-5.79c0-3.57,1.83-6.12,5.49-6.12,3.91,0,5.24,2.83,5.24,5.67,0,.39,0,.64-.04.96h-7.52ZM340.92,38.73c-.02-1.33-.55-2.44-2.09-2.44s-2.12,1.04-2.25,2.44h4.33Z"/>
    <path class="cls-3" d="M351.35,45.69v-16.06h3.15v16.06h-3.15Z"/>
    <path class="cls-3" d="M367.93,39.97c0,3.45-2.06,5.98-5.67,5.98s-5.59-2.52-5.59-5.92,2.12-6,5.74-6c3.35,0,5.52,2.37,5.52,5.94ZM359.87,39.99c0,2.19.94,3.49,2.46,3.49s2.4-1.3,2.4-3.47c0-2.38-.88-3.51-2.45-3.51-1.46,0-2.42,1.08-2.42,3.49Z"/>
    <path class="cls-3" d="M372.51,42.26c.24.91.98,1.42,2.16,1.42s1.59-.42,1.59-1.11c0-.73-.49-1.02-2.12-1.42-3.71-.91-4.32-2.06-4.32-3.67s1.18-3.45,4.62-3.45,4.62,1.89,4.72,3.43h-3c-.1-.42-.38-1.22-1.87-1.22-1.04,0-1.38.46-1.38.97,0,.57.35.84,2.2,1.27,3.8.88,4.34,2.19,4.34,3.86,0,1.89-1.44,3.6-4.91,3.6s-4.88-1.67-5.13-3.69h3.1Z"/>
    <path class="cls-3" d="M396.72,42.01c-.39,1.9-1.73,3.94-5.12,3.94s-5.37-2.45-5.37-5.88,2.05-6.04,5.52-6.04c3.84,0,4.91,2.75,4.97,4.04h-3.08c-.19-.93-.72-1.58-1.95-1.58-1.44,0-2.26,1.26-2.26,3.47,0,2.42.86,3.53,2.24,3.53,1.08,0,1.66-.64,1.95-1.5h3.1Z"/>
    <path class="cls-3" d="M398.76,29.63h3.15v2.81h-3.15v-2.81ZM398.76,34.3h3.15v11.39h-3.15v-11.39Z"/>
    <path class="cls-3" d="M414.6,42.01c-.39,1.9-1.73,3.94-5.12,3.94s-5.37-2.45-5.37-5.88,2.05-6.04,5.52-6.04c3.84,0,4.91,2.75,4.97,4.04h-3.08c-.19-.93-.72-1.58-1.95-1.58-1.44,0-2.26,1.26-2.26,3.47,0,2.42.86,3.53,2.24,3.53,1.08,0,1.66-.64,1.95-1.5h3.1Z"/>
    <path class="cls-3" d="M416.54,45.69v-16.06h3.15v16.06h-3.15Z"/>
    <path class="cls-3" d="M433.12,39.97c0,3.45-2.06,5.98-5.67,5.98s-5.59-2.52-5.59-5.92,2.12-6,5.74-6c3.35,0,5.52,2.37,5.52,5.94ZM425.05,39.99c0,2.19.94,3.49,2.46,3.49s2.4-1.3,2.4-3.47c0-2.38-.88-3.51-2.45-3.51-1.46,0-2.42,1.08-2.42,3.49Z"/>
    <path class="cls-3" d="M437.69,42.26c.24.91.98,1.42,2.16,1.42s1.59-.42,1.59-1.11c0-.73-.49-1.02-2.12-1.42-3.71-.91-4.32-2.06-4.32-3.67s1.18-3.45,4.62-3.45,4.62,1.89,4.72,3.43h-3c-.1-.42-.38-1.22-1.87-1.22-1.04,0-1.38.46-1.38.97,0,.57.35.84,2.2,1.27,3.8.88,4.34,2.19,4.34,3.86,0,1.89-1.43,3.6-4.91,3.6s-4.88-1.67-5.13-3.69h3.1Z"/>
    <path class="cls-3" d="M462.49,29.63v12.93c0,1.04,0,2.09.02,3.13h-3.03c-.06-.34-.12-.93-.14-1.19-.55.9-1.53,1.45-3.23,1.45-2.88,0-4.71-2.31-4.71-5.87s1.95-6.05,5.17-6.05c1.64,0,2.52.58,2.77,1.09v-5.5h3.15ZM454.63,40c0,2.22.87,3.42,2.41,3.42,2.17,0,2.42-1.81,2.42-3.44,0-1.95-.28-3.42-2.34-3.42-1.65,0-2.49,1.29-2.49,3.44Z"/>
    <path class="cls-3" d="M467.8,40.67c0,1.42.72,2.82,2.29,2.82,1.31,0,1.69-.53,1.99-1.22h3.16c-.4,1.39-1.65,3.68-5.23,3.68s-5.38-2.81-5.38-5.79c0-3.57,1.83-6.12,5.49-6.12,3.91,0,5.24,2.83,5.24,5.67,0,.39,0,.64-.04.96h-7.52ZM472.19,38.73c-.02-1.33-.55-2.44-2.09-2.44s-2.12,1.04-2.24,2.44h4.33Z"/>
    <path class="cls-3" d="M482.62,45.69v-16.06h3.15v16.06h-3.15Z"/>
    <path class="cls-3" d="M497.96,42.74c0,1.08.09,2.67.15,2.94h-3.01c-.09-.22-.15-.83-.16-1.11-.41.64-1.19,1.38-3.2,1.38-2.75,0-3.9-1.81-3.9-3.57,0-2.59,2.08-3.79,5.42-3.79h1.62v-.7c0-.81-.29-1.61-1.75-1.61-1.33,0-1.62.57-1.77,1.39h-3c.17-2.02,1.42-3.66,4.88-3.64,3.05.02,4.71,1.21,4.71,3.92v4.79ZM494.89,40.5h-1.29c-1.9,0-2.6.58-2.6,1.68,0,.82.51,1.52,1.64,1.52,2,0,2.25-1.39,2.25-2.9v-.3Z"/>
    <path class="cls-3" d="M516,42.01c-.39,1.9-1.73,3.94-5.12,3.94s-5.37-2.45-5.37-5.88,2.05-6.04,5.52-6.04c3.84,0,4.91,2.75,4.97,4.04h-3.08c-.19-.93-.72-1.58-1.95-1.58-1.44,0-2.26,1.26-2.26,3.47,0,2.42.86,3.53,2.24,3.53,1.08,0,1.66-.64,1.95-1.5h3.1Z"/>
    <path class="cls-3" d="M527.44,42.74c0,1.08.09,2.67.15,2.94h-3.01c-.09-.22-.15-.83-.16-1.11-.41.64-1.19,1.38-3.2,1.38-2.75,0-3.9-1.81-3.9-3.57,0-2.59,2.08-3.79,5.42-3.79h1.62v-.7c0-.81-.29-1.61-1.75-1.61-1.33,0-1.62.57-1.77,1.39h-3c.17-2.02,1.42-3.66,4.88-3.64,3.05.02,4.71,1.21,4.71,3.92v4.79ZM524.37,40.5h-1.29c-1.9,0-2.61.58-2.61,1.68,0,.82.51,1.52,1.64,1.52,2,0,2.25-1.39,2.25-2.9v-.3Z"/>
    <path class="cls-3" d="M530.3,37.39c0-1.13,0-2.14-.02-3.09h3.09c.04.25.08,1.39.08,2,.5-1.3,1.72-2.25,3.65-2.26v3.01c-2.29-.06-3.65.56-3.65,3.68v4.96h-3.15v-8.3Z"/>
    <path class="cls-3" d="M538.79,37.39c0-1.13,0-2.14-.02-3.09h3.09c.04.25.08,1.39.08,2,.5-1.3,1.72-2.25,3.65-2.26v3.01c-2.29-.06-3.65.56-3.65,3.68v4.96h-3.15v-8.3Z"/>
    <path class="cls-3" d="M549.77,40.67c0,1.42.72,2.82,2.29,2.82,1.31,0,1.69-.53,1.99-1.22h3.16c-.4,1.39-1.65,3.68-5.22,3.68s-5.38-2.81-5.38-5.79c0-3.57,1.83-6.12,5.49-6.12,3.91,0,5.24,2.83,5.24,5.67,0,.39,0,.64-.04.96h-7.52ZM554.17,38.73c-.02-1.33-.55-2.44-2.09-2.44s-2.12,1.04-2.25,2.44h4.33Z"/>
    <path class="cls-3" d="M559.53,37.39c0-1.13,0-2.14-.02-3.09h3.09c.04.25.08,1.39.08,2,.5-1.3,1.72-2.25,3.65-2.26v3.01c-2.29-.06-3.65.56-3.65,3.68v4.96h-3.15v-8.3Z"/>
    <path class="cls-3" d="M577.27,42.74c0,1.08.09,2.67.15,2.94h-3.01c-.09-.22-.15-.83-.16-1.11-.41.64-1.19,1.38-3.2,1.38-2.75,0-3.9-1.81-3.9-3.57,0-2.59,2.08-3.79,5.42-3.79h1.62v-.7c0-.81-.29-1.61-1.75-1.61-1.33,0-1.62.57-1.77,1.39h-3c.17-2.02,1.42-3.66,4.88-3.64,3.05.02,4.71,1.21,4.71,3.92v4.79ZM574.2,40.5h-1.29c-1.9,0-2.61.58-2.61,1.68,0,.82.51,1.52,1.64,1.52,2,0,2.25-1.39,2.25-2.9v-.3Z"/>
  </g>
  <g>
    <path class="cls-3" d="M384.32,100.37c.36,1.58,1.44,2.44,3.36,2.44,2.06,0,2.88-.97,2.88-2.22,0-1.33-.65-2.07-3.3-2.71-3.11-.76-4.2-1.82-4.2-3.68,0-1.96,1.45-3.56,4.4-3.56,3.15,0,4.44,1.82,4.62,3.55h-1.78c-.24-1.18-.97-2.14-2.9-2.14-1.61,0-2.51.72-2.51,1.98s.75,1.73,3.06,2.29c3.77.92,4.44,2.38,4.44,4.08,0,2.13-1.58,3.8-4.81,3.8s-4.75-1.82-5.03-3.84h1.78Z"/>
    <path class="cls-3" d="M395.76,99.53c.01,1.96,1,3.35,2.63,3.35,1.52,0,2.02-.79,2.33-1.49h1.68c-.38,1.23-1.41,2.88-4.05,2.88-3.03,0-4.26-2.46-4.26-4.94,0-2.86,1.44-5.15,4.37-5.15,3.11,0,4.13,2.49,4.13,4.55,0,.29,0,.54-.03.8h-6.79ZM400.89,98.36c-.02-1.58-.82-2.86-2.46-2.86s-2.44,1.18-2.61,2.86h5.07Z"/>
    <path class="cls-3" d="M404.72,96.9c0-.83,0-1.7-.02-2.48h1.6c.03.29.07,1,.06,1.48.44-.86,1.28-1.71,2.8-1.71,1.36,0,2.3.69,2.67,1.73.52-.91,1.42-1.73,3.07-1.73s3.04.92,3.04,3.53v6.33h-1.64v-6.13c0-1.12-.4-2.3-1.91-2.3s-2.25,1.19-2.25,2.89v5.53h-1.63v-6.08c0-1.24-.35-2.34-1.86-2.34s-2.29,1.25-2.29,3.09v5.33h-1.65v-7.15Z"/>
    <path class="cls-3" d="M420.79,90.1h1.66v2.08h-1.66v-2.08ZM420.79,94.41h1.66v9.63h-1.66v-9.63Z"/>
    <path class="cls-3" d="M425.3,96.84c0-.84,0-1.68-.02-2.43h1.62c.04.28.07,1.3.06,1.58.38-.83,1.17-1.81,3.03-1.81s3.22,1.1,3.22,3.67v6.2h-1.66v-5.98c0-1.46-.57-2.44-2.04-2.44-1.82,0-2.55,1.38-2.55,3.32v5.1h-1.66v-7.21Z"/>
    <path class="cls-3" d="M443.11,101.95c0,.88.08,1.82.13,2.1h-1.59c-.08-.21-.13-.67-.16-1.26-.34.64-1.1,1.49-2.97,1.49-2.27,0-3.24-1.48-3.24-2.94,0-2.15,1.69-3.13,4.55-3.13h1.64v-.82c0-.85-.27-1.89-2.07-1.89-1.61,0-1.88.8-2.06,1.55h-1.61c.13-1.33.95-2.86,3.72-2.85,2.35,0,3.66.97,3.66,3.16v4.6ZM441.49,99.35h-1.56c-1.92,0-2.95.53-2.95,1.89,0,1,.69,1.73,1.88,1.73,2.32,0,2.63-1.56,2.63-3.31v-.31Z"/>
    <path class="cls-3" d="M445.98,97.03c0-1.35-.01-2.1-.02-2.62h1.63c.03.27.05,1.03.05,1.97.5-1.3,1.65-2.15,3.25-2.19v1.66c-1.98.06-3.25,1.09-3.25,3.53v4.68h-1.66v-7.02Z"/>
    <path class="cls-3" d="M452.54,90.1h1.66v2.08h-1.66v-2.08ZM452.54,94.41h1.66v9.63h-1.66v-9.63Z"/>
    <path class="cls-3" d="M465.32,99.21c0,2.78-1.59,5.06-4.54,5.06-2.76,0-4.43-2.14-4.43-5.03s1.64-5.06,4.54-5.06c2.67,0,4.43,2,4.43,5.03ZM458.07,99.23c0,2.11,1.05,3.65,2.79,3.65s2.75-1.46,2.75-3.65-.99-3.66-2.79-3.66-2.75,1.46-2.75,3.65Z"/>
    <path class="cls-3" d="M480.31,90.1v11.22c0,.91,0,1.79.02,2.72h-1.6c-.04-.25-.08-.99-.08-1.37-.47,1-1.45,1.59-3.03,1.59-2.48,0-4-2.01-4-4.94s1.64-5.15,4.31-5.15c1.71,0,2.46.69,2.72,1.23v-5.32h1.66ZM473.35,99.28c0,2.33,1.11,3.58,2.62,3.58,2.25,0,2.75-1.66,2.75-3.77s-.45-3.49-2.62-3.49c-1.7,0-2.75,1.35-2.75,3.68Z"/>
    <path class="cls-3" d="M484.14,99.53c.01,1.96,1,3.35,2.63,3.35,1.52,0,2.02-.79,2.33-1.49h1.68c-.38,1.23-1.41,2.88-4.05,2.88-3.03,0-4.26-2.46-4.26-4.94,0-2.86,1.44-5.15,4.37-5.15,3.11,0,4.13,2.49,4.13,4.55,0,.29,0,.54-.03.8h-6.79ZM489.27,98.36c-.02-1.58-.82-2.86-2.46-2.86s-2.44,1.18-2.61,2.86h5.07Z"/>
    <path class="cls-3" d="M498.13,90.83h1.75v11.72h6.89l-.24,1.5h-8.4v-13.22Z"/>
    <path class="cls-3" d="M508.78,90.1h1.66v2.08h-1.66v-2.08ZM508.78,94.41h1.66v9.63h-1.66v-9.63Z"/>
    <path class="cls-3" d="M520.88,101.1c-.41,1.66-1.53,3.17-3.98,3.17-2.65,0-4.29-1.91-4.29-4.99,0-2.72,1.54-5.1,4.42-5.1s3.74,1.98,3.86,3.22h-1.65c-.24-.98-.85-1.83-2.25-1.83-1.7,0-2.67,1.46-2.67,3.65s.94,3.67,2.61,3.67c1.21,0,1.91-.64,2.3-1.79h1.66Z"/>
    <path class="cls-3" d="M523.99,99.53c.01,1.96,1,3.35,2.63,3.35,1.52,0,2.02-.79,2.33-1.49h1.68c-.38,1.23-1.41,2.88-4.05,2.88-3.03,0-4.26-2.46-4.26-4.94,0-2.86,1.44-5.15,4.37-5.15,3.11,0,4.13,2.49,4.13,4.55,0,.29,0,.54-.03.8h-6.79ZM529.11,98.36c-.02-1.58-.82-2.86-2.46-2.86s-2.44,1.18-2.61,2.86h5.07Z"/>
    <path class="cls-3" d="M532.95,96.84c0-.84,0-1.68-.02-2.43h1.62c.04.28.07,1.3.06,1.58.38-.83,1.17-1.81,3.03-1.81s3.22,1.1,3.22,3.67v6.2h-1.66v-5.98c0-1.46-.57-2.44-2.04-2.44-1.82,0-2.55,1.38-2.55,3.32v5.1h-1.66v-7.21Z"/>
    <path class="cls-3" d="M551.3,101.1c-.41,1.66-1.53,3.17-3.98,3.17-2.65,0-4.29-1.91-4.29-4.99,0-2.72,1.54-5.1,4.42-5.1s3.74,1.98,3.86,3.22h-1.65c-.24-.98-.85-1.83-2.25-1.83-1.7,0-2.67,1.46-2.67,3.65s.94,3.67,2.61,3.67c1.21,0,1.91-.64,2.3-1.79h1.66Z"/>
    <path class="cls-3" d="M553.47,90.1h1.66v2.08h-1.66v-2.08ZM553.47,94.41h1.66v9.63h-1.66v-9.63Z"/>
    <path class="cls-3" d="M565.03,101.95c0,.88.08,1.82.13,2.1h-1.59c-.08-.21-.13-.67-.16-1.26-.34.64-1.1,1.49-2.97,1.49-2.27,0-3.24-1.48-3.24-2.94,0-2.15,1.69-3.13,4.55-3.13h1.64v-.82c0-.85-.27-1.89-2.07-1.89-1.61,0-1.88.8-2.06,1.55h-1.61c.13-1.33.95-2.86,3.72-2.85,2.35,0,3.66.97,3.66,3.16v4.6ZM563.41,99.35h-1.56c-1.92,0-2.95.53-2.95,1.89,0,1,.69,1.73,1.88,1.73,2.32,0,2.63-1.56,2.63-3.31v-.31Z"/>
    <path class="cls-3" d="M566.54,94.41h1.67v-2.84h1.66v2.84h2.13v1.36h-2.13v5.64c0,.94.23,1.42,1.1,1.42.23,0,.58-.01.84-.08v1.25c-.41.15-.98.18-1.44.18-1.5,0-2.16-.78-2.16-2.38v-6.03h-1.67v-1.36Z"/>
    <path class="cls-3" d="M581.32,101.24c0,.94.01,2.24.02,2.81h-1.62c-.04-.25-.06-.84-.06-1.44-.47,1.07-1.4,1.67-2.92,1.67-1.62,0-3.18-.81-3.18-3.53v-6.34h1.65v5.98c0,1.27.4,2.43,2,2.43,1.77,0,2.46-.98,2.46-3.39v-5.02h1.66v6.83Z"/>
    <path class="cls-3" d="M584.17,97.03c0-1.35-.01-2.1-.02-2.62h1.63c.03.27.05,1.03.05,1.97.5-1.3,1.65-2.15,3.25-2.19v1.66c-1.98.06-3.25,1.09-3.25,3.53v4.68h-1.66v-7.02Z"/>
    <path class="cls-3" d="M597.71,101.95c0,.88.08,1.82.13,2.1h-1.59c-.08-.21-.13-.67-.16-1.26-.34.64-1.1,1.49-2.97,1.49-2.27,0-3.24-1.48-3.24-2.94,0-2.15,1.69-3.13,4.55-3.13h1.64v-.82c0-.85-.27-1.89-2.07-1.89-1.61,0-1.88.8-2.06,1.55h-1.61c.13-1.33.95-2.86,3.72-2.85,2.35,0,3.66.97,3.66,3.16v4.6ZM596.09,99.35h-1.56c-1.92,0-2.95.53-2.95,1.89,0,1,.69,1.73,1.88,1.73,2.32,0,2.63-1.56,2.63-3.31v-.31Z"/>
    <path class="cls-3" d="M476.68,115.83v13.22h-1.75v-13.22h1.75Z"/>
    <path class="cls-3" d="M485.21,119.41c1.56,4.61,2.41,7.17,2.67,8.15h.02c.31-1.09,1-3.29,2.57-8.15h1.68l-3.46,10.08c-.98,2.82-1.7,3.53-3.68,3.53-.3,0-.66-.02-1.04-.06v-1.45c.24.03.52.05.79.05,1.22,0,1.68-.54,2.25-2.14l-3.61-10h1.8Z"/>
    <path class="cls-3" d="M500.66,115.83v13.22h-1.75v-13.22h1.75Z"/>
    <path class="cls-3" d="M505.99,115.83v13.22h-1.75v-13.22h1.75Z"/>
  </g>
  <g>
    <path class="cls-3" d="M679.21,90.83h5.02c2.57,0,4.33,1.44,4.33,3.85,0,2.58-1.86,3.94-4.44,3.94h-3.15v5.43h-1.77v-13.22ZM680.97,97.14h3.06c1.81,0,2.72-.88,2.72-2.42s-1.1-2.42-2.65-2.42h-3.13v4.84Z"/>
    <path class="cls-3" d="M690.48,97.03c0-1.35-.01-2.1-.02-2.62h1.63c.03.27.05,1.03.05,1.97.5-1.3,1.65-2.15,3.25-2.19v1.66c-1.98.06-3.25,1.09-3.25,3.53v4.68h-1.66v-7.02Z"/>
    <path class="cls-3" d="M705.3,99.21c0,2.78-1.59,5.06-4.54,5.06-2.76,0-4.43-2.14-4.43-5.03s1.64-5.06,4.54-5.06c2.67,0,4.43,2,4.43,5.03ZM698.05,99.23c0,2.11,1.05,3.65,2.79,3.65s2.75-1.46,2.75-3.65-.98-3.66-2.79-3.66-2.75,1.46-2.75,3.65Z"/>
    <path class="cls-3" d="M708.16,94.41c1.56,4.61,2.41,7.17,2.67,8.15h.02c.31-1.09,1-3.29,2.57-8.15h1.68l-3.46,10.08c-.98,2.82-1.71,3.53-3.68,3.53-.3,0-.66-.02-1.04-.06v-1.45c.24.03.53.05.79.05,1.22,0,1.68-.54,2.25-2.14l-3.61-10h1.8Z"/>
    <path class="cls-3" d="M717.74,99.53c.01,1.96,1,3.35,2.63,3.35,1.52,0,2.02-.79,2.33-1.49h1.68c-.38,1.23-1.41,2.88-4.05,2.88-3.03,0-4.26-2.46-4.26-4.94,0-2.86,1.44-5.15,4.37-5.15,3.11,0,4.12,2.49,4.12,4.55,0,.29,0,.54-.03.8h-6.79ZM722.86,98.36c-.02-1.58-.82-2.86-2.46-2.86s-2.44,1.18-2.61,2.86h5.07Z"/>
    <path class="cls-3" d="M734.39,101.1c-.41,1.66-1.53,3.17-3.98,3.17-2.65,0-4.29-1.91-4.29-4.99,0-2.72,1.54-5.1,4.42-5.1s3.74,1.98,3.86,3.22h-1.65c-.24-.98-.85-1.83-2.24-1.83-1.71,0-2.67,1.46-2.67,3.65s.94,3.67,2.61,3.67c1.21,0,1.91-.64,2.3-1.79h1.65Z"/>
    <path class="cls-3" d="M735.36,94.41h1.67v-2.84h1.66v2.84h2.12v1.36h-2.12v5.64c0,.94.23,1.42,1.1,1.42.23,0,.58-.01.84-.08v1.25c-.41.15-.98.18-1.44.18-1.5,0-2.16-.78-2.16-2.38v-6.03h-1.67v-1.36Z"/>
    <path class="cls-3" d="M750.8,99.21c0,2.78-1.59,5.06-4.54,5.06-2.76,0-4.43-2.14-4.43-5.03s1.64-5.06,4.54-5.06c2.67,0,4.43,2,4.43,5.03ZM743.55,99.23c0,2.11,1.05,3.65,2.79,3.65s2.75-1.46,2.75-3.65-.98-3.66-2.79-3.66-2.75,1.46-2.75,3.65Z"/>
    <path class="cls-3" d="M765.79,90.1v11.22c0,.91,0,1.79.02,2.72h-1.6c-.04-.25-.08-.99-.08-1.37-.47,1-1.45,1.59-3.03,1.59-2.47,0-4-2.01-4-4.94s1.64-5.15,4.31-5.15c1.71,0,2.46.69,2.72,1.23v-5.32h1.66ZM758.83,99.28c0,2.33,1.11,3.58,2.62,3.58,2.25,0,2.75-1.66,2.75-3.77s-.45-3.49-2.62-3.49c-1.7,0-2.75,1.35-2.75,3.68Z"/>
    <path class="cls-3" d="M769.62,99.53c.01,1.96,1,3.35,2.63,3.35,1.52,0,2.02-.79,2.32-1.49h1.68c-.38,1.23-1.41,2.88-4.05,2.88-3.03,0-4.26-2.46-4.26-4.94,0-2.86,1.44-5.15,4.37-5.15,3.11,0,4.13,2.49,4.13,4.55,0,.29,0,.54-.03.8h-6.79ZM774.75,98.36c-.02-1.58-.82-2.86-2.46-2.86s-2.44,1.18-2.61,2.86h5.07Z"/>
    <path class="cls-3" d="M786.29,92.33h-4.27v-1.5h10.31v1.5h-4.28v11.72h-1.76v-11.72Z"/>
    <path class="cls-3" d="M798.37,89.91l-2.91,2.92h-1.57l2.44-2.92h2.05ZM793.9,94.41h1.66v9.63h-1.66v-9.63Z"/>
    <path class="cls-3" d="M797.26,94.41h1.67v-2.84h1.66v2.84h2.13v1.36h-2.13v5.64c0,.94.23,1.42,1.1,1.42.23,0,.58-.01.84-.08v1.25c-.41.15-.98.18-1.44.18-1.5,0-2.16-.78-2.16-2.38v-6.03h-1.67v-1.36Z"/>
    <path class="cls-3" d="M812.04,101.24c0,.94.01,2.24.02,2.81h-1.62c-.04-.25-.06-.84-.06-1.44-.47,1.07-1.4,1.67-2.92,1.67-1.62,0-3.18-.81-3.18-3.53v-6.34h1.65v5.98c0,1.27.4,2.43,2,2.43,1.77,0,2.46-.98,2.46-3.39v-5.02h1.66v6.83Z"/>
    <path class="cls-3" d="M814.89,104.05v-13.95h1.66v13.95h-1.66Z"/>
    <path class="cls-3" d="M827.67,99.21c0,2.78-1.59,5.06-4.54,5.06-2.76,0-4.43-2.14-4.43-5.03s1.63-5.06,4.54-5.06c2.68,0,4.43,2,4.43,5.03ZM820.42,99.23c0,2.11,1.05,3.65,2.79,3.65s2.75-1.46,2.75-3.65-.99-3.66-2.79-3.66-2.75,1.46-2.75,3.65Z"/>
    <path class="cls-3" d="M739.17,115.83v13.22h-1.75v-13.22h1.75Z"/>
    <path class="cls-3" d="M747.7,119.41c1.56,4.61,2.41,7.17,2.67,8.15h.02c.31-1.09,1-3.29,2.57-8.15h1.68l-3.46,10.08c-.98,2.82-1.71,3.53-3.68,3.53-.3,0-.66-.02-1.04-.06v-1.45c.24.03.53.05.79.05,1.22,0,1.68-.54,2.25-2.14l-3.61-10h1.8Z"/>
    <path class="cls-3" d="M763.14,115.83v13.22h-1.75v-13.22h1.75Z"/>
    <path class="cls-3" d="M768.48,115.83v13.22h-1.75v-13.22h1.75Z"/>
  </g>
  <g>
    <path class="cls-3" d="M185.97,306.77c-.53,2.44-2.37,4.22-5.65,4.22-4.15,0-6.12-2.94-6.12-6.67s2.03-6.81,6.25-6.81c3.49,0,5.18,2.05,5.5,4.24h-2.83c-.27-1.01-.98-2.02-2.76-2.02-2.33,0-3.24,2.1-3.24,4.48,0,2.21.78,4.55,3.31,4.55,1.85,0,2.43-1.24,2.68-2h2.85Z"/>
    <path class="cls-3" d="M187.89,296.94h2.72v2.43h-2.72v-2.43ZM187.89,300.97h2.72v9.83h-2.72v-9.83Z"/>
    <path class="cls-3" d="M201.57,307.63c-.34,1.64-1.49,3.41-4.42,3.41s-4.63-2.12-4.63-5.07,1.77-5.22,4.76-5.22c3.32,0,4.24,2.38,4.29,3.49h-2.66c-.17-.8-.62-1.36-1.68-1.36-1.25,0-1.95,1.09-1.95,3,0,2.09.75,3.05,1.94,3.05.94,0,1.44-.55,1.68-1.29h2.67Z"/>
    <path class="cls-3" d="M203.24,310.8v-13.87h2.72v13.87h-2.72Z"/>
    <path class="cls-3" d="M217.56,305.87c0,2.97-1.78,5.16-4.9,5.16s-4.83-2.18-4.83-5.11,1.83-5.18,4.96-5.18c2.89,0,4.77,2.04,4.77,5.13ZM210.6,305.89c0,1.89.81,3.01,2.13,3.01s2.07-1.12,2.07-3c0-2.06-.75-3.03-2.11-3.03-1.26,0-2.09.93-2.09,3.01Z"/>
    <path class="cls-3" d="M224.03,296.94h2.72v5.08c.41-.63,1.22-1.27,2.81-1.27,2.68,0,4.01,2.21,4.01,4.97s-1.45,5.32-4.28,5.32c-1.46,0-2.11-.45-2.58-1.16,0,.32-.05.68-.1.93h-2.6c.02-1.07.02-2.15.02-3.21v-10.65ZM230.81,305.76c0-1.64-.61-2.84-2.08-2.84-1.55,0-2.11,1.01-2.11,3.02,0,1.66.49,2.93,2.08,2.93,1.38,0,2.11-1.24,2.11-3.1Z"/>
    <path class="cls-3" d="M243.54,308.26c0,.94.08,2.3.13,2.54h-2.6c-.08-.19-.13-.71-.14-.96-.36.55-1.02,1.19-2.76,1.19-2.37,0-3.37-1.56-3.37-3.08,0-2.24,1.8-3.27,4.68-3.27h1.4v-.6c0-.7-.25-1.39-1.51-1.39-1.15,0-1.4.49-1.53,1.2h-2.59c.15-1.75,1.23-3.16,4.22-3.14,2.63.02,4.07,1.05,4.07,3.39v4.13ZM240.89,306.33h-1.11c-1.64,0-2.25.5-2.25,1.45,0,.71.44,1.31,1.42,1.31,1.73,0,1.94-1.2,1.94-2.5v-.26ZM243.42,296.75l-3.03,2.82h-2.38l2.18-2.82h3.23Z"/>
    <path class="cls-3" d="M247.85,307.85c.21.78.85,1.22,1.86,1.22s1.37-.36,1.37-.96c0-.63-.42-.88-1.83-1.22-3.2-.79-3.73-1.78-3.73-3.17s1.02-2.98,3.99-2.98,3.99,1.63,4.08,2.96h-2.59c-.09-.36-.33-1.05-1.61-1.05-.9,0-1.19.4-1.19.84,0,.49.31.73,1.9,1.1,3.28.76,3.75,1.89,3.75,3.33,0,1.63-1.24,3.11-4.24,3.11s-4.22-1.44-4.43-3.18h2.67Z"/>
    <path class="cls-3" d="M255.64,296.94h2.72v2.43h-2.72v-2.43ZM255.64,300.97h2.72v9.83h-2.72v-9.83Z"/>
    <path class="cls-3" d="M269.32,307.63c-.34,1.64-1.49,3.41-4.42,3.41s-4.63-2.12-4.63-5.07,1.77-5.22,4.76-5.22c3.32,0,4.24,2.38,4.29,3.49h-2.66c-.17-.8-.62-1.36-1.68-1.36-1.25,0-1.95,1.09-1.95,3,0,2.09.75,3.05,1.94,3.05.94,0,1.44-.55,1.68-1.29h2.67Z"/>
    <path class="cls-3" d="M280.3,305.87c0,2.97-1.78,5.16-4.9,5.16s-4.83-2.18-4.83-5.11,1.83-5.18,4.96-5.18c2.89,0,4.77,2.04,4.77,5.13ZM273.33,305.89c0,1.89.81,3.01,2.13,3.01s2.07-1.12,2.07-3c0-2.06-.75-3.03-2.11-3.03-1.26,0-2.09.93-2.09,3.01Z"/>
    <path class="cls-3" d="M209.25,322.71v13.1h-2.83v-13.1h2.83Z"/>
    <path class="cls-3" d="M224.78,333.26c0,.94.08,2.3.13,2.54h-2.6c-.08-.19-.13-.71-.14-.96-.36.55-1.02,1.19-2.76,1.19-2.37,0-3.37-1.56-3.37-3.08,0-2.24,1.8-3.27,4.68-3.27h1.4v-.6c0-.7-.25-1.39-1.51-1.39-1.15,0-1.4.49-1.53,1.2h-2.59c.15-1.75,1.23-3.16,4.22-3.14,2.63.02,4.07,1.05,4.07,3.39v4.13ZM222.13,331.33h-1.11c-1.64,0-2.25.5-2.25,1.45,0,.71.44,1.31,1.42,1.31,1.73,0,1.94-1.2,1.94-2.5v-.26Z"/>
    <path class="cls-3" d="M235.01,322.71v13.1h-2.83v-13.1h2.83Z"/>
    <path class="cls-3" d="M241.28,335.8l-4.62-13.1h3.04l1.95,6.05c.59,1.83,1.04,3.38,1.34,4.72h.04c.27-1.22.78-2.82,1.4-4.68l2.04-6.09h2.89l-4.74,13.1h-3.34Z"/>
  </g>
  <g>
    <path class="cls-3" d="M417.66,306.77c-.53,2.44-2.37,4.22-5.65,4.22-4.15,0-6.12-2.94-6.12-6.67s2.03-6.81,6.25-6.81c3.49,0,5.18,2.05,5.5,4.24h-2.83c-.27-1.01-.98-2.02-2.76-2.02-2.33,0-3.24,2.1-3.24,4.48,0,2.21.78,4.55,3.31,4.55,1.85,0,2.43-1.24,2.68-2h2.85Z"/>
    <path class="cls-3" d="M419.58,296.94h2.72v2.43h-2.72v-2.43ZM419.58,300.97h2.72v9.83h-2.72v-9.83Z"/>
    <path class="cls-3" d="M433.26,307.63c-.34,1.64-1.49,3.41-4.42,3.41s-4.63-2.12-4.63-5.07,1.77-5.22,4.76-5.22c3.32,0,4.24,2.38,4.29,3.49h-2.66c-.17-.8-.62-1.36-1.68-1.36-1.25,0-1.95,1.09-1.95,3,0,2.09.75,3.05,1.94,3.05.94,0,1.44-.55,1.68-1.29h2.67Z"/>
    <path class="cls-3" d="M434.93,310.8v-13.87h2.72v13.87h-2.72Z"/>
    <path class="cls-3" d="M449.25,305.87c0,2.97-1.78,5.16-4.9,5.16s-4.83-2.18-4.83-5.11,1.83-5.18,4.96-5.18c2.89,0,4.77,2.04,4.77,5.13ZM442.29,305.89c0,1.89.81,3.01,2.13,3.01s2.07-1.12,2.07-3c0-2.06-.75-3.03-2.11-3.03-1.26,0-2.09.93-2.09,3.01Z"/>
    <path class="cls-3" d="M457.88,306.47c0,1.23.62,2.43,1.97,2.43,1.13,0,1.46-.46,1.72-1.05h2.72c-.35,1.2-1.42,3.18-4.51,3.18s-4.64-2.42-4.64-5c0-3.08,1.58-5.29,4.74-5.29,3.38,0,4.53,2.44,4.53,4.9,0,.33,0,.55-.04.83h-6.49ZM461.68,304.8c-.02-1.14-.48-2.11-1.8-2.11s-1.83.9-1.94,2.11h3.74Z"/>
    <path class="cls-3" d="M468.29,307.85c.21.78.85,1.22,1.86,1.22s1.37-.36,1.37-.96c0-.63-.42-.88-1.83-1.22-3.2-.79-3.73-1.78-3.73-3.17s1.02-2.98,3.99-2.98,3.99,1.63,4.08,2.96h-2.59c-.09-.36-.33-1.05-1.61-1.05-.9,0-1.19.4-1.19.84,0,.49.31.73,1.9,1.1,3.28.76,3.75,1.89,3.75,3.33,0,1.63-1.24,3.11-4.24,3.11s-4.22-1.44-4.43-3.18h2.67Z"/>
    <path class="cls-3" d="M478.77,309.93v4.64h-2.71v-11.23c0-.8,0-1.58-.02-2.37h2.64c.04.26.09.86.09,1.22.42-.72,1.3-1.45,2.86-1.45,2.21,0,3.92,1.85,3.92,4.9,0,3.47-1.91,5.39-4.29,5.39-1.39,0-2.11-.52-2.49-1.1ZM482.78,305.74c0-1.8-.73-2.82-2.02-2.82-1.55,0-2.09.99-2.09,2.97,0,1.88.51,2.97,1.98,2.97s2.14-1.12,2.14-3.12Z"/>
    <path class="cls-3" d="M489.71,306.47c0,1.23.62,2.43,1.97,2.43,1.13,0,1.46-.46,1.72-1.05h2.72c-.35,1.2-1.42,3.18-4.51,3.18s-4.64-2.42-4.64-5c0-3.08,1.58-5.29,4.74-5.29,3.38,0,4.53,2.44,4.53,4.9,0,.33,0,.55-.04.83h-6.49ZM493.5,304.8c-.02-1.14-.48-2.11-1.8-2.11s-1.83.9-1.94,2.11h3.74Z"/>
    <path class="cls-3" d="M506.77,307.63c-.34,1.64-1.49,3.41-4.42,3.41s-4.63-2.12-4.63-5.07,1.77-5.22,4.76-5.22c3.32,0,4.24,2.38,4.29,3.49h-2.66c-.17-.8-.62-1.36-1.68-1.36-1.25,0-1.95,1.09-1.95,3,0,2.09.75,3.05,1.94,3.05.94,0,1.44-.55,1.68-1.29h2.67Z"/>
    <path class="cls-3" d="M508.54,296.94h2.72v2.43h-2.72v-2.43ZM508.54,300.97h2.72v9.83h-2.72v-9.83Z"/>
    <path class="cls-3" d="M521.78,308.26c0,.94.08,2.3.13,2.54h-2.6c-.08-.19-.13-.71-.14-.96-.36.55-1.02,1.19-2.76,1.19-2.37,0-3.37-1.56-3.37-3.08,0-2.24,1.8-3.27,4.68-3.27h1.4v-.6c0-.7-.25-1.39-1.51-1.39-1.15,0-1.4.49-1.53,1.2h-2.59c.15-1.75,1.23-3.16,4.22-3.14,2.63.02,4.07,1.05,4.07,3.39v4.13ZM519.13,306.33h-1.11c-1.64,0-2.25.5-2.25,1.45,0,.71.44,1.31,1.42,1.31,1.73,0,1.94-1.2,1.94-2.5v-.26Z"/>
    <path class="cls-3" d="M524.25,310.8v-13.87h2.72v13.87h-2.72Z"/>
    <path class="cls-3" d="M529.42,296.94h2.72v2.43h-2.72v-2.43ZM529.42,300.97h2.72v9.83h-2.72v-9.83Z"/>
    <path class="cls-3" d="M533.95,308.76l4.87-5.64h-4.63v-2.15h7.7v2.12l-4.77,5.57h5.12l-.33,2.15h-7.96v-2.04Z"/>
    <path class="cls-3" d="M552.07,308.26c0,.94.08,2.3.13,2.54h-2.6c-.08-.19-.13-.71-.14-.96-.36.55-1.02,1.19-2.76,1.19-2.37,0-3.37-1.56-3.37-3.08,0-2.24,1.8-3.27,4.68-3.27h1.4v-.6c0-.7-.25-1.39-1.51-1.39-1.15,0-1.4.49-1.53,1.2h-2.59c.15-1.75,1.23-3.16,4.22-3.14,2.63.02,4.07,1.05,4.07,3.39v4.13ZM549.41,306.33h-1.11c-1.64,0-2.25.5-2.25,1.45,0,.71.44,1.31,1.42,1.31,1.73,0,1.94-1.2,1.94-2.5v-.26Z"/>
    <path class="cls-3" d="M563.5,296.94v11.17c0,.89,0,1.8.02,2.7h-2.62c-.05-.29-.11-.8-.12-1.03-.47.77-1.32,1.25-2.79,1.25-2.49,0-4.07-2-4.07-5.06s1.68-5.23,4.47-5.23c1.42,0,2.17.5,2.39.94v-4.75h2.72ZM556.71,305.9c0,1.92.75,2.95,2.08,2.95,1.87,0,2.09-1.56,2.09-2.97,0-1.68-.24-2.95-2.02-2.95-1.43,0-2.15,1.12-2.15,2.97Z"/>
    <path class="cls-3" d="M575.06,305.87c0,2.97-1.78,5.16-4.9,5.16s-4.83-2.18-4.83-5.11,1.83-5.18,4.96-5.18c2.89,0,4.77,2.04,4.77,5.13ZM568.1,305.89c0,1.89.81,3.01,2.13,3.01s2.07-1.12,2.07-3c0-2.06-.75-3.03-2.11-3.03-1.26,0-2.09.93-2.09,3.01Z"/>
    <path class="cls-3" d="M463.39,335.8l-4.62-13.1h3.04l1.95,6.05c.59,1.83,1.04,3.38,1.34,4.72h.04c.27-1.22.78-2.82,1.4-4.68l2.04-6.09h2.89l-4.74,13.1h-3.34Z"/>
    <path class="cls-3" d="M485.46,333.26c0,.94.08,2.3.13,2.54h-2.6c-.08-.19-.13-.71-.14-.96-.36.55-1.02,1.19-2.76,1.19-2.37,0-3.37-1.56-3.37-3.08,0-2.24,1.8-3.27,4.68-3.27h1.4v-.6c0-.7-.25-1.39-1.51-1.39-1.15,0-1.4.49-1.53,1.2h-2.59c.15-1.75,1.23-3.16,4.22-3.14,2.63.02,4.07,1.05,4.07,3.39v4.13ZM482.81,331.33h-1.11c-1.64,0-2.25.5-2.25,1.45,0,.71.44,1.31,1.42,1.31,1.73,0,1.94-1.2,1.94-2.5v-.26Z"/>
    <path class="cls-3" d="M495.94,335.8l-4.62-13.1h3.04l1.95,6.05c.59,1.83,1.04,3.38,1.34,4.72h.04c.27-1.22.78-2.82,1.4-4.68l2.04-6.09h2.89l-4.74,13.1h-3.34Z"/>
    <path class="cls-3" d="M508.44,322.71v13.1h-2.83v-13.1h2.83Z"/>
    <path class="cls-3" d="M514.41,322.71v13.1h-2.83v-13.1h2.83Z"/>
    <path class="cls-3" d="M520.38,322.71v13.1h-2.83v-13.1h2.83Z"/>
  </g>
  <g>
    <path class="cls-3" d="M691.12,305.09c-.53,2.44-2.37,4.22-5.65,4.22-4.15,0-6.12-2.94-6.12-6.67s2.03-6.81,6.25-6.81c3.49,0,5.18,2.05,5.5,4.24h-2.83c-.27-1.01-.98-2.02-2.76-2.02-2.33,0-3.24,2.1-3.24,4.48,0,2.21.78,4.55,3.31,4.55,1.85,0,2.43-1.24,2.68-2h2.85Z"/>
    <path class="cls-3" d="M693.04,295.26h2.72v2.43h-2.72v-2.43ZM693.04,299.29h2.72v9.83h-2.72v-9.83Z"/>
    <path class="cls-3" d="M706.72,305.95c-.34,1.64-1.49,3.41-4.42,3.41s-4.63-2.12-4.63-5.07,1.77-5.22,4.76-5.22c3.32,0,4.24,2.38,4.29,3.49h-2.66c-.17-.8-.62-1.36-1.68-1.36-1.25,0-1.95,1.09-1.95,3,0,2.09.75,3.05,1.94,3.05.94,0,1.44-.55,1.68-1.29h2.67Z"/>
    <path class="cls-3" d="M708.39,309.12v-13.87h2.72v13.87h-2.72Z"/>
    <path class="cls-3" d="M722.71,304.19c0,2.97-1.78,5.16-4.9,5.16s-4.83-2.18-4.83-5.11,1.83-5.18,4.96-5.18c2.89,0,4.77,2.04,4.77,5.13ZM715.75,304.21c0,1.89.81,3.01,2.13,3.01s2.07-1.12,2.07-3c0-2.06-.75-3.03-2.11-3.03-1.26,0-2.09.93-2.09,3.01Z"/>
    <path class="cls-3" d="M731.88,308.25v4.64h-2.71v-11.23c0-.8,0-1.58-.02-2.37h2.64c.04.26.09.86.09,1.22.42-.72,1.3-1.45,2.86-1.45,2.21,0,3.92,1.85,3.92,4.9,0,3.47-1.91,5.39-4.29,5.39-1.39,0-2.11-.52-2.49-1.1ZM735.9,304.07c0-1.8-.73-2.82-2.02-2.82-1.55,0-2.09.99-2.09,2.97,0,1.88.51,2.97,1.98,2.97s2.14-1.12,2.14-3.12Z"/>
    <path class="cls-3" d="M740.54,301.96c0-.98,0-1.84-.02-2.67h2.67c.04.22.07,1.2.07,1.73.43-1.12,1.48-1.94,3.15-1.95v2.6c-1.98-.05-3.15.48-3.15,3.18v4.29h-2.72v-7.17Z"/>
    <path class="cls-3" d="M757,304.19c0,2.97-1.78,5.16-4.9,5.16s-4.83-2.18-4.83-5.11,1.83-5.18,4.96-5.18c2.89,0,4.77,2.04,4.77,5.13ZM750.04,304.21c0,1.89.81,3.01,2.13,3.01s2.07-1.12,2.07-3c0-2.06-.75-3.03-2.11-3.03-1.26,0-2.09.93-2.09,3.01Z"/>
    <path class="cls-3" d="M759.26,309.12v-7.79h-1.43v-2.05h1.43v-.86c0-2.03,1.01-3.36,3.14-3.36.45,0,1.02.04,1.27.12v2.15c-.15-.03-.36-.05-.57-.05-.8,0-1.1.3-1.1,1.35v.66h1.72v2.05h-1.72v7.79h-2.72Z"/>
    <path class="cls-3" d="M767.12,304.79c0,1.23.62,2.43,1.97,2.43,1.13,0,1.46-.46,1.72-1.05h2.72c-.35,1.2-1.42,3.18-4.51,3.18s-4.64-2.42-4.64-5c0-3.08,1.58-5.29,4.74-5.29,3.38,0,4.53,2.44,4.53,4.9,0,.33,0,.55-.04.83h-6.49ZM770.92,303.12c-.02-1.14-.48-2.11-1.8-2.11s-1.83.9-1.94,2.11h3.74Z"/>
    <path class="cls-3" d="M777.53,306.17c.21.78.85,1.22,1.86,1.22s1.37-.36,1.37-.96c0-.63-.42-.88-1.83-1.22-3.2-.79-3.73-1.78-3.73-3.17s1.02-2.98,3.99-2.98,3.99,1.63,4.08,2.96h-2.59c-.09-.36-.33-1.05-1.61-1.05-.9,0-1.19.4-1.19.84,0,.49.31.73,1.9,1.1,3.28.76,3.75,1.89,3.75,3.33,0,1.63-1.24,3.11-4.24,3.11s-4.22-1.44-4.43-3.18h2.67Z"/>
    <path class="cls-3" d="M785.32,295.26h2.72v2.43h-2.72v-2.43ZM785.32,299.29h2.72v9.83h-2.72v-9.83Z"/>
    <path class="cls-3" d="M799.64,304.19c0,2.97-1.78,5.16-4.9,5.16s-4.83-2.18-4.83-5.11,1.83-5.18,4.96-5.18c2.89,0,4.77,2.04,4.77,5.13ZM792.68,304.21c0,1.89.81,3.01,2.13,3.01s2.07-1.12,2.07-3c0-2.06-.75-3.03-2.11-3.03-1.26,0-2.09.93-2.09,3.01Z"/>
    <path class="cls-3" d="M801.53,301.77c0-.84,0-1.75-.02-2.48h2.64c.05.25.09.94.11,1.25.33-.62,1.13-1.48,2.85-1.48,1.97,0,3.26,1.33,3.26,3.81v6.26h-2.72v-5.95c0-1.11-.37-1.91-1.57-1.91s-1.82.64-1.82,2.38v5.48h-2.72v-7.36Z"/>
    <path class="cls-3" d="M820.82,306.58c0,.94.08,2.3.13,2.54h-2.6c-.08-.19-.13-.71-.14-.96-.36.55-1.02,1.19-2.76,1.19-2.37,0-3.37-1.56-3.37-3.08,0-2.24,1.8-3.27,4.68-3.27h1.4v-.6c0-.7-.25-1.39-1.51-1.39-1.15,0-1.4.49-1.53,1.2h-2.59c.15-1.75,1.23-3.16,4.22-3.14,2.63.02,4.07,1.05,4.07,3.39v4.13ZM818.16,304.65h-1.11c-1.64,0-2.25.5-2.25,1.45,0,.71.44,1.31,1.42,1.31,1.73,0,1.94-1.2,1.94-2.5v-.26Z"/>
    <path class="cls-3" d="M823.28,309.12v-13.87h2.72v13.87h-2.72Z"/>
    <path class="cls-3" d="M732.63,321.03v13.1h-2.83v-13.1h2.83Z"/>
    <path class="cls-3" d="M742.93,334.12l-2.8-4.61h-.02l-2.87,4.61h-3.05l4.36-6.6-4.23-6.5h3.29l2.65,4.34h.02l2.74-4.34h3l-4.22,6.24,4.42,6.86h-3.27Z"/>
    <path class="cls-3" d="M759.98,331.58c0,.94.08,2.3.13,2.54h-2.6c-.08-.19-.13-.71-.14-.96-.36.55-1.02,1.19-2.76,1.19-2.37,0-3.37-1.56-3.37-3.08,0-2.24,1.8-3.27,4.68-3.27h1.4v-.6c0-.7-.25-1.39-1.51-1.39-1.15,0-1.4.49-1.53,1.2h-2.59c.15-1.75,1.23-3.16,4.22-3.14,2.63.02,4.07,1.05,4.07,3.39v4.13ZM757.33,329.65h-1.11c-1.64,0-2.25.5-2.25,1.45,0,.71.44,1.31,1.42,1.31,1.73,0,1.94-1.2,1.94-2.5v-.26Z"/>
    <path class="cls-3" d="M774.35,334.12l-2.8-4.61h-.02l-2.87,4.61h-3.05l4.36-6.6-4.23-6.5h3.29l2.65,4.34h.02l2.74-4.34h3l-4.22,6.24,4.42,6.86h-3.27Z"/>
  </g>
  <g>
    <path class="cls-3" d="M85.7,326.99c1.58-.36,2.44-1.44,2.44-3.36,0-2.06-.97-2.88-2.22-2.88-1.33,0-2.07.65-2.71,3.3-.76,3.11-1.82,4.2-3.68,4.2-1.96,0-3.56-1.45-3.56-4.4,0-3.15,1.82-4.44,3.55-4.62v1.78c-1.18.24-2.14.97-2.14,2.9,0,1.61.72,2.51,1.98,2.51s1.73-.75,2.29-3.06c.92-3.77,2.38-4.44,4.08-4.44,2.13,0,3.8,1.58,3.8,4.81s-1.82,4.75-3.84,5.03v-1.78Z"/>
    <path class="cls-3" d="M84.86,315.56c1.96-.01,3.35-1,3.35-2.63,0-1.52-.79-2.02-1.49-2.33v-1.68c1.23.38,2.88,1.41,2.88,4.05,0,3.03-2.46,4.26-4.94,4.26-2.86,0-5.15-1.44-5.15-4.37,0-3.11,2.49-4.13,4.55-4.13.29,0,.54,0,.8.03v6.79ZM83.69,310.43c-1.58.02-2.86.82-2.86,2.46s1.18,2.44,2.86,2.61v-5.07Z"/>
    <path class="cls-3" d="M82.23,306.6c-.83,0-1.7,0-2.48.02v-1.6c.29-.03,1-.07,1.48-.06-.86-.44-1.71-1.28-1.71-2.8,0-1.36.69-2.3,1.73-2.67-.91-.52-1.73-1.42-1.73-3.07s.92-3.04,3.53-3.04h6.33v1.64h-6.13c-1.12,0-2.3.4-2.3,1.91s1.19,2.25,2.89,2.25h5.53v1.63h-6.08c-1.24,0-2.34.35-2.34,1.86s1.25,2.29,3.09,2.29h5.33v1.65h-7.15Z"/>
    <path class="cls-3" d="M84.86,289.53c1.96-.01,3.35-1,3.35-2.63,0-1.52-.79-2.02-1.49-2.33v-1.68c1.23.38,2.88,1.41,2.88,4.05,0,3.03-2.46,4.26-4.94,4.26-2.86,0-5.15-1.44-5.15-4.37,0-3.11,2.49-4.13,4.55-4.13.29,0,.54,0,.8.03v6.79ZM83.69,284.4c-1.58.02-2.86.82-2.86,2.46s1.18,2.44,2.86,2.61v-5.07Z"/>
    <path class="cls-3" d="M86.62,279.63c1.05-.28,1.67-1.06,1.67-2.36,0-1.42-.61-1.97-1.49-1.97s-1.32.44-1.76,2.28c-.67,2.75-1.51,3.33-2.82,3.33s-2.71-1-2.71-3.48,1.44-3.5,2.78-3.63v1.61c-.62.14-1.49.61-1.49,2.09,0,1.35.65,1.75,1.28,1.75.72,0,1.08-.4,1.5-2.16.69-2.92,1.67-3.5,3.1-3.5,1.69,0,2.92,1.34,2.92,3.74s-1.26,3.72-2.98,3.96v-1.66Z"/>
    <path class="cls-3" d="M79.74,272.76v-1.67h-2.84v-1.66h2.84v-2.13h1.36v2.13h5.64c.94,0,1.42-.23,1.42-1.1,0-.23-.01-.58-.08-.84h1.25c.15.41.18.98.18,1.44,0,1.5-.78,2.16-2.38,2.16h-6.03v1.67h-1.36Z"/>
    <path class="cls-3" d="M82.36,265.61c-1.35,0-2.1.01-2.62.02v-1.63c.27-.03,1.03-.05,1.97-.05-1.3-.5-2.15-1.65-2.19-3.25h1.66c.06,1.98,1.09,3.25,3.53,3.25h4.68v1.66h-7.02Z"/>
    <path class="cls-3" d="M84.86,258.08c1.96-.01,3.35-1,3.35-2.63,0-1.52-.79-2.02-1.49-2.33v-1.68c1.23.38,2.88,1.41,2.88,4.05,0,3.03-2.46,4.26-4.94,4.26-2.86,0-5.15-1.44-5.15-4.37,0-3.11,2.49-4.13,4.55-4.13.29,0,.54,0,.8.03v6.79ZM83.69,252.95c-1.58.02-2.86.82-2.86,2.46s1.18,2.44,2.86,2.61v-5.07Z"/>
    <path class="cls-3" d="M86.62,248.18c1.05-.28,1.67-1.06,1.67-2.36,0-1.42-.61-1.97-1.49-1.97s-1.32.44-1.76,2.28c-.67,2.75-1.51,3.33-2.82,3.33s-2.71-1-2.71-3.48,1.44-3.5,2.78-3.63v1.61c-.62.14-1.49.61-1.49,2.09,0,1.35.65,1.75,1.28,1.75.72,0,1.08-.4,1.5-2.16.69-2.92,1.67-3.5,3.1-3.5,1.69,0,2.92,1.34,2.92,3.74s-1.26,3.72-2.98,3.96v-1.66Z"/>
  </g>
  <rect class="cls-1" x="102.83" y="73.75" width="248.79" height="67.9"/>
  <rect class="cls-2" x="102.83" y="141.65" width="248.79" height="10.69"/>
  <g>
    <path class="cls-3" d="M191.93,90.83h5.02c2.57,0,4.33,1.44,4.33,3.85,0,2.58-1.86,3.94-4.44,3.94h-3.15v5.43h-1.77v-13.22ZM193.69,97.14h3.06c1.81,0,2.72-.88,2.72-2.42s-1.1-2.42-2.65-2.42h-3.13v4.84Z"/>
    <path class="cls-3" d="M203.2,97.03c0-1.35-.01-2.1-.02-2.62h1.63c.03.27.05,1.03.05,1.97.5-1.3,1.65-2.15,3.25-2.19v1.66c-1.98.06-3.25,1.09-3.25,3.53v4.68h-1.66v-7.02Z"/>
    <path class="cls-3" d="M218.02,99.21c0,2.78-1.59,5.06-4.54,5.06-2.76,0-4.43-2.14-4.43-5.03s1.64-5.06,4.54-5.06c2.67,0,4.43,2,4.43,5.03ZM210.76,99.23c0,2.11,1.05,3.65,2.79,3.65s2.75-1.46,2.75-3.65-.98-3.66-2.79-3.66-2.75,1.46-2.75,3.65Z"/>
    <path class="cls-3" d="M220.88,94.41c1.55,4.61,2.41,7.17,2.67,8.15h.02c.31-1.09,1-3.29,2.57-8.15h1.68l-3.46,10.08c-.98,2.82-1.7,3.53-3.68,3.53-.3,0-.66-.02-1.04-.06v-1.45c.24.03.52.05.79.05,1.22,0,1.68-.54,2.25-2.14l-3.61-10h1.8Z"/>
    <path class="cls-3" d="M230.46,99.53c.01,1.96,1,3.35,2.63,3.35,1.52,0,2.02-.79,2.33-1.49h1.68c-.38,1.23-1.41,2.88-4.05,2.88-3.03,0-4.26-2.46-4.26-4.94,0-2.86,1.44-5.15,4.37-5.15,3.11,0,4.12,2.49,4.12,4.55,0,.29,0,.54-.03.8h-6.79ZM235.58,98.36c-.02-1.58-.82-2.86-2.46-2.86s-2.44,1.18-2.61,2.86h5.07Z"/>
    <path class="cls-3" d="M247.11,101.1c-.41,1.66-1.53,3.17-3.98,3.17-2.65,0-4.29-1.91-4.29-4.99,0-2.72,1.54-5.1,4.42-5.1s3.74,1.98,3.86,3.22h-1.65c-.24-.98-.85-1.83-2.24-1.83-1.71,0-2.67,1.46-2.67,3.65s.94,3.67,2.61,3.67c1.21,0,1.91-.64,2.3-1.79h1.65Z"/>
    <path class="cls-3" d="M248.08,94.41h1.67v-2.84h1.66v2.84h2.12v1.36h-2.12v5.64c0,.94.23,1.42,1.1,1.42.23,0,.58-.01.84-.08v1.25c-.41.15-.98.18-1.44.18-1.5,0-2.16-.78-2.16-2.38v-6.03h-1.67v-1.36Z"/>
    <path class="cls-3" d="M263.52,99.21c0,2.78-1.59,5.06-4.54,5.06-2.76,0-4.43-2.14-4.43-5.03s1.64-5.06,4.54-5.06c2.67,0,4.43,2,4.43,5.03ZM256.27,99.23c0,2.11,1.05,3.65,2.79,3.65s2.75-1.46,2.75-3.65-.98-3.66-2.79-3.66-2.75,1.46-2.75,3.65Z"/>
    <path class="cls-3" d="M213.45,115.83v13.22h-1.75v-13.22h1.75Z"/>
    <path class="cls-3" d="M221.99,119.41c1.55,4.61,2.41,7.17,2.67,8.15h.02c.31-1.09,1-3.29,2.57-8.15h1.68l-3.46,10.08c-.98,2.82-1.7,3.53-3.68,3.53-.3,0-.66-.02-1.04-.06v-1.45c.24.03.52.05.79.05,1.22,0,1.68-.54,2.25-2.14l-3.61-10h1.8Z"/>
    <path class="cls-3" d="M237.43,115.83v13.22h-1.75v-13.22h1.75Z"/>
    <path class="cls-3" d="M242.77,115.83v13.22h-1.75v-13.22h1.75Z"/>
  </g>
  <rect class="cls-4" x="366.06" y="165.97" width="248.79" height="94.66"/>
  <rect class="cls-7" x="366.06" y="259.65" width="248.79" height="10.69"/>
  <g>
    <path class="cls-3" d="M391.26,190.08h-6.57v4.68h7.22l-.22,1.5h-8.71v-13.22h8.61v1.5h-6.89v4.04h6.57v1.5Z"/>
    <path class="cls-3" d="M393.8,196.26v-13.95h1.66v13.95h-1.66Z"/>
    <path class="cls-3" d="M399.3,191.74c.01,1.96,1,3.35,2.63,3.35,1.52,0,2.02-.79,2.32-1.49h1.68c-.38,1.23-1.41,2.88-4.05,2.88-3.03,0-4.26-2.46-4.26-4.94,0-2.86,1.44-5.15,4.37-5.15,3.11,0,4.13,2.49,4.13,4.55,0,.29,0,.54-.03.8h-6.79ZM404.43,190.57c-.02-1.58-.82-2.86-2.46-2.86s-2.44,1.18-2.61,2.86h5.07Z"/>
    <path class="cls-3" d="M415.96,193.31c-.41,1.66-1.53,3.17-3.98,3.17-2.65,0-4.29-1.91-4.29-4.99,0-2.72,1.54-5.1,4.41-5.1s3.74,1.98,3.86,3.22h-1.65c-.24-.98-.85-1.83-2.25-1.83-1.7,0-2.67,1.46-2.67,3.65s.94,3.67,2.61,3.67c1.21,0,1.91-.64,2.3-1.79h1.66Z"/>
    <path class="cls-3" d="M416.92,186.62h1.67v-2.84h1.66v2.84h2.13v1.36h-2.13v5.64c0,.94.23,1.42,1.1,1.42.23,0,.58-.01.84-.08v1.25c-.41.15-.98.18-1.44.18-1.5,0-2.16-.78-2.16-2.38v-6.03h-1.67v-1.36Z"/>
    <path class="cls-3" d="M424.14,182.31h1.66v2.08h-1.66v-2.08ZM424.14,186.62h1.66v9.63h-1.66v-9.63Z"/>
    <path class="cls-3" d="M429.31,186.62c1.3,3.94,2.25,6.88,2.54,8.09h.02c.24-1.07,1.26-3.96,2.71-8.09h1.69l-3.54,9.63h-1.83l-3.36-9.63h1.78Z"/>
    <path class="cls-3" d="M446.12,191.42c0,2.78-1.59,5.06-4.54,5.06-2.76,0-4.43-2.14-4.43-5.03s1.63-5.06,4.54-5.06c2.68,0,4.43,2,4.43,5.03ZM438.87,191.44c0,2.11,1.05,3.65,2.79,3.65s2.75-1.46,2.75-3.65-.99-3.66-2.79-3.66-2.75,1.46-2.75,3.65Z"/>
    <path class="cls-3" d="M456.65,196.26l-4.81-13.22h1.88l2.33,6.59c.68,1.94,1.36,3.89,1.65,5.1h.04c.28-1.08,1.03-3.12,1.72-5.04l2.42-6.65h1.81l-4.97,13.22h-2.07Z"/>
    <path class="cls-3" d="M470.66,186.62c1.55,4.61,2.41,7.17,2.67,8.15h.02c.31-1.09,1-3.29,2.57-8.15h1.68l-3.46,10.08c-.98,2.82-1.7,3.53-3.68,3.53-.3,0-.66-.02-1.04-.06v-1.45c.24.03.52.05.79.05,1.22,0,1.68-.54,2.25-2.14l-3.61-10h1.8Z"/>
    <path class="cls-3" d="M495.65,190.62c0-2.46.03-4.95.08-6.34h-.07c-.57,2.14-2.71,7.82-4.22,11.97h-1.57c-1.14-3.38-3.36-9.74-3.95-12h-.06c.1,1.53.15,4.46.15,6.73v5.27h-1.65v-13.22h2.62c1.5,4.1,3.34,9.39,3.79,11.08h.03c.31-1.27,2.48-7.08,4.03-11.08h2.54v13.22h-1.71v-5.63Z"/>
    <path class="cls-3" d="M500.63,189.4v-2.74h1.69v2.74h-1.69ZM500.63,196.26v-2.75h1.69v2.75h-1.69Z"/>
    <path class="cls-3" d="M518.69,190.08h-6.57v4.68h7.22l-.23,1.5h-8.71v-13.22h8.61v1.5h-6.89v4.04h6.57v1.5Z"/>
    <path class="cls-3" d="M521.23,196.26v-13.95h1.66v13.95h-1.66Z"/>
    <path class="cls-3" d="M538.55,182.31v11.22c0,.91,0,1.79.02,2.72h-1.6c-.04-.25-.08-.99-.08-1.37-.47,1-1.45,1.59-3.03,1.59-2.48,0-4-2.01-4-4.94s1.64-5.15,4.3-5.15c1.71,0,2.46.69,2.72,1.23v-5.32h1.66ZM531.59,191.49c0,2.33,1.11,3.58,2.62,3.58,2.25,0,2.75-1.66,2.75-3.77s-.45-3.49-2.62-3.49c-1.7,0-2.75,1.35-2.75,3.68Z"/>
    <path class="cls-3" d="M541.39,182.31h1.66v2.08h-1.66v-2.08ZM541.39,186.62h1.66v9.63h-1.66v-9.63Z"/>
    <path class="cls-3" d="M546.61,193.5c.28,1.05,1.06,1.67,2.36,1.67,1.42,0,1.97-.61,1.97-1.49s-.44-1.32-2.28-1.76c-2.75-.67-3.33-1.51-3.33-2.82s1-2.71,3.48-2.71,3.5,1.44,3.63,2.78h-1.61c-.14-.62-.61-1.49-2.09-1.49-1.35,0-1.75.65-1.75,1.28,0,.72.4,1.08,2.16,1.5,2.92.69,3.51,1.67,3.51,3.1,0,1.69-1.34,2.92-3.74,2.92s-3.72-1.26-3.96-2.98h1.65Z"/>
    <path class="cls-3" d="M562.41,193.31c-.41,1.66-1.53,3.17-3.98,3.17-2.65,0-4.29-1.91-4.29-4.99,0-2.72,1.54-5.1,4.42-5.1s3.74,1.98,3.86,3.22h-1.65c-.24-.98-.85-1.83-2.24-1.83-1.71,0-2.67,1.46-2.67,3.65s.94,3.67,2.61,3.67c1.21,0,1.91-.64,2.3-1.79h1.65Z"/>
    <path class="cls-3" d="M572.06,193.45c0,.94.01,2.24.02,2.81h-1.62c-.04-.25-.06-.84-.06-1.44-.47,1.07-1.4,1.67-2.92,1.67-1.62,0-3.18-.81-3.18-3.53v-6.34h1.65v5.98c0,1.27.4,2.43,1.99,2.43,1.77,0,2.46-.98,2.46-3.39v-5.02h1.66v6.83Z"/>
    <path class="cls-3" d="M574.91,189.24c0-1.35-.01-2.1-.02-2.62h1.63c.03.27.05,1.03.05,1.97.5-1.3,1.65-2.15,3.25-2.19v1.66c-1.98.06-3.25,1.09-3.25,3.53v4.68h-1.66v-7.02Z"/>
    <path class="cls-3" d="M582.46,193.5c.28,1.05,1.06,1.67,2.36,1.67,1.42,0,1.97-.61,1.97-1.49s-.44-1.32-2.28-1.76c-2.75-.67-3.33-1.51-3.33-2.82s1-2.71,3.48-2.71,3.5,1.44,3.63,2.78h-1.61c-.14-.62-.61-1.49-2.09-1.49-1.35,0-1.75.65-1.75,1.28,0,.72.4,1.08,2.16,1.5,2.92.69,3.51,1.67,3.51,3.1,0,1.69-1.34,2.92-3.74,2.92s-3.72-1.26-3.96-2.98h1.65Z"/>
    <path class="cls-3" d="M598.94,191.42c0,2.78-1.59,5.06-4.54,5.06-2.76,0-4.43-2.14-4.43-5.03s1.63-5.06,4.54-5.06c2.68,0,4.43,2,4.43,5.03ZM591.69,191.44c0,2.11,1.05,3.65,2.79,3.65s2.75-1.46,2.75-3.65-.99-3.66-2.79-3.66-2.75,1.46-2.75,3.65Z"/>
    <path class="cls-3" d="M389.25,207.31v11.22c0,.91,0,1.79.02,2.72h-1.6c-.04-.25-.08-.99-.08-1.37-.47,1-1.45,1.59-3.03,1.59-2.47,0-4-2.01-4-4.94s1.64-5.15,4.31-5.15c1.71,0,2.46.69,2.72,1.23v-5.32h1.66ZM382.28,216.49c0,2.33,1.11,3.58,2.62,3.58,2.25,0,2.75-1.66,2.75-3.77s-.45-3.49-2.62-3.49c-1.7,0-2.75,1.35-2.75,3.68Z"/>
    <path class="cls-3" d="M393.08,216.74c.01,1.96,1,3.35,2.63,3.35,1.52,0,2.02-.79,2.32-1.49h1.68c-.38,1.23-1.41,2.88-4.05,2.88-3.03,0-4.26-2.46-4.26-4.94,0-2.86,1.44-5.15,4.37-5.15,3.11,0,4.13,2.49,4.13,4.55,0,.29,0,.54-.03.8h-6.79ZM398.21,215.57c-.02-1.58-.82-2.86-2.46-2.86s-2.44,1.18-2.61,2.86h5.07Z"/>
    <path class="cls-3" d="M402.08,221.26v-13.95h1.66v13.95h-1.66Z"/>
    <path class="cls-3" d="M418.56,219.16c0,.88.08,1.82.13,2.1h-1.59c-.08-.21-.13-.67-.16-1.26-.34.64-1.11,1.49-2.97,1.49-2.27,0-3.24-1.48-3.24-2.94,0-2.15,1.69-3.13,4.55-3.13h1.64v-.82c0-.85-.27-1.89-2.07-1.89-1.61,0-1.88.8-2.06,1.55h-1.61c.13-1.33.95-2.86,3.72-2.85,2.35,0,3.66.97,3.66,3.16v4.6ZM416.94,216.56h-1.56c-1.92,0-2.95.53-2.95,1.89,0,1,.69,1.73,1.88,1.73,2.32,0,2.63-1.56,2.63-3.31v-.31Z"/>
    <path class="cls-3" d="M421.63,221.26v-8.28h-1.55v-1.36h1.55v-1.15c0-1.77.68-3.35,2.81-3.35.35,0,.83.05,1.06.13v1.41c-.23-.06-.59-.09-.84-.09-.99,0-1.36.6-1.36,2.01v1.05h1.93v1.36h-1.93v8.28h-1.66Z"/>
    <path class="cls-3" d="M426.85,207.31h1.66v2.08h-1.66v-2.08ZM426.85,211.62h1.66v9.63h-1.66v-9.63Z"/>
    <path class="cls-3" d="M438.96,218.31c-.41,1.66-1.53,3.17-3.98,3.17-2.65,0-4.29-1.91-4.29-4.99,0-2.72,1.54-5.1,4.42-5.1s3.74,1.98,3.86,3.22h-1.65c-.24-.98-.85-1.83-2.24-1.83-1.71,0-2.67,1.46-2.67,3.65s.94,3.67,2.61,3.67c1.21,0,1.91-.64,2.3-1.79h1.65Z"/>
    <path class="cls-3" d="M442.61,207.31v5.73c.49-.85,1.37-1.65,3.01-1.65,1.54,0,3.24.85,3.24,3.71v6.15h-1.66v-5.87c0-1.64-.69-2.55-2.09-2.55-1.73,0-2.5,1.15-2.5,3.15v5.27h-1.66v-13.95h1.66Z"/>
    <path class="cls-3" d="M452.7,216.74c.01,1.96,1,3.35,2.63,3.35,1.52,0,2.02-.79,2.32-1.49h1.68c-.38,1.23-1.41,2.88-4.05,2.88-3.03,0-4.26-2.46-4.26-4.94,0-2.86,1.44-5.15,4.37-5.15,3.11,0,4.13,2.49,4.13,4.55,0,.29,0,.54-.03.8h-6.79ZM457.83,215.57c-.02-1.58-.82-2.86-2.46-2.86s-2.44,1.18-2.61,2.86h5.07Z"/>
    <path class="cls-3" d="M468.03,220.07v4.98h-1.66v-11.07c0-.79,0-1.6-.02-2.35h1.62c.04.32.06.9.06,1.51.52-.97,1.5-1.74,3.15-1.74,2.23,0,3.85,1.87,3.85,4.8,0,3.44-1.86,5.29-4.19,5.29-1.56,0-2.37-.65-2.8-1.42ZM473.31,216.26c0-2.04-.93-3.44-2.57-3.44-2,0-2.79,1.26-2.79,3.6s.65,3.66,2.66,3.66c1.76,0,2.7-1.45,2.7-3.82Z"/>
    <path class="cls-3" d="M485.59,216.42c0,2.78-1.59,5.06-4.54,5.06-2.76,0-4.43-2.14-4.43-5.03s1.64-5.06,4.54-5.06c2.67,0,4.43,2,4.43,5.03ZM478.34,216.44c0,2.11,1.05,3.65,2.79,3.65s2.75-1.46,2.75-3.65-.98-3.66-2.79-3.66-2.75,1.46-2.75,3.65Z"/>
    <path class="cls-3" d="M487.77,221.26v-13.95h1.66v13.95h-1.66Z"/>
    <path class="cls-3" d="M496.74,207.12l-2.91,2.92h-1.57l2.43-2.92h2.05ZM492.27,211.62h1.66v9.63h-1.66v-9.63Z"/>
    <path class="cls-3" d="M495.63,211.62h1.67v-2.84h1.66v2.84h2.12v1.36h-2.12v5.64c0,.94.23,1.42,1.1,1.42.23,0,.58-.01.84-.08v1.25c-.41.15-.98.18-1.44.18-1.5,0-2.16-.78-2.16-2.38v-6.03h-1.67v-1.36Z"/>
    <path class="cls-3" d="M502.85,207.31h1.66v2.08h-1.66v-2.08ZM502.85,211.62h1.66v9.63h-1.66v-9.63Z"/>
    <path class="cls-3" d="M514.96,218.31c-.41,1.66-1.53,3.17-3.98,3.17-2.65,0-4.29-1.91-4.29-4.99,0-2.72,1.54-5.1,4.41-5.1s3.74,1.98,3.86,3.22h-1.65c-.24-.98-.85-1.83-2.25-1.83-1.7,0-2.67,1.46-2.67,3.65s.94,3.67,2.61,3.67c1.21,0,1.91-.64,2.3-1.79h1.66Z"/>
    <path class="cls-3" d="M525.34,216.42c0,2.78-1.59,5.06-4.54,5.06-2.76,0-4.43-2.14-4.43-5.03s1.63-5.06,4.54-5.06c2.68,0,4.43,2,4.43,5.03ZM518.09,216.44c0,2.11,1.05,3.65,2.79,3.65s2.75-1.46,2.75-3.65-.99-3.66-2.79-3.66-2.75,1.46-2.75,3.65Z"/>
    <path class="cls-3" d="M527.91,214.4v-2.74h1.69v2.74h-1.69ZM527.91,221.26v-2.75h1.69v2.75h-1.69Z"/>
    <path class="cls-3" d="M538.35,216.74c.01,1.96,1,3.35,2.63,3.35,1.52,0,2.02-.79,2.32-1.49h1.68c-.38,1.23-1.41,2.88-4.05,2.88-3.03,0-4.26-2.46-4.26-4.94,0-2.86,1.44-5.15,4.37-5.15,3.11,0,4.13,2.49,4.13,4.55,0,.29,0,.54-.03.8h-6.79ZM543.48,215.57c-.02-1.58-.82-2.86-2.46-2.86s-2.44,1.18-2.61,2.86h5.07Z"/>
    <path class="cls-3" d="M548.25,218.5c.28,1.05,1.05,1.67,2.36,1.67,1.41,0,1.97-.61,1.97-1.49s-.44-1.32-2.28-1.76c-2.75-.67-3.33-1.51-3.33-2.82s1-2.71,3.48-2.71,3.5,1.44,3.63,2.78h-1.61c-.14-.62-.61-1.49-2.09-1.49-1.35,0-1.75.65-1.75,1.28,0,.72.39,1.08,2.16,1.5,2.92.69,3.5,1.67,3.5,3.1,0,1.69-1.34,2.92-3.74,2.92s-3.72-1.26-3.96-2.98h1.66Z"/>
    <path class="cls-3" d="M555.12,211.62h1.67v-2.84h1.66v2.84h2.12v1.36h-2.12v5.64c0,.94.23,1.42,1.1,1.42.23,0,.58-.01.84-.08v1.25c-.41.15-.98.18-1.44.18-1.5,0-2.16-.78-2.16-2.38v-6.03h-1.67v-1.36Z"/>
    <path class="cls-3" d="M563.28,216.74c.01,1.96,1,3.35,2.63,3.35,1.52,0,2.02-.79,2.32-1.49h1.68c-.38,1.23-1.41,2.88-4.05,2.88-3.03,0-4.26-2.46-4.26-4.94,0-2.86,1.44-5.15,4.37-5.15,3.11,0,4.13,2.49,4.13,4.55,0,.29,0,.54-.03.8h-6.79ZM568.41,215.57c-.02-1.58-.82-2.86-2.46-2.86s-2.44,1.18-2.61,2.86h5.07ZM569.28,207.12l-2.91,2.92h-1.57l2.43-2.92h2.05Z"/>
    <path class="cls-3" d="M571.08,211.62h1.67v-2.84h1.66v2.84h2.12v1.36h-2.12v5.64c0,.94.23,1.42,1.1,1.42.23,0,.58-.01.84-.08v1.25c-.41.15-.98.18-1.44.18-1.5,0-2.16-.78-2.16-2.38v-6.03h-1.67v-1.36Z"/>
    <path class="cls-3" d="M578.3,207.31h1.66v2.08h-1.66v-2.08ZM578.3,211.62h1.66v9.63h-1.66v-9.63Z"/>
    <path class="cls-3" d="M590.4,218.31c-.41,1.66-1.53,3.17-3.98,3.17-2.65,0-4.29-1.91-4.29-4.99,0-2.72,1.54-5.1,4.41-5.1s3.74,1.98,3.86,3.22h-1.65c-.24-.98-.85-1.83-2.25-1.83-1.7,0-2.67,1.46-2.67,3.65s.94,3.67,2.61,3.67c1.21,0,1.91-.64,2.3-1.79h1.66Z"/>
    <path class="cls-3" d="M599.65,219.16c0,.88.08,1.82.13,2.1h-1.59c-.08-.21-.13-.67-.16-1.26-.34.64-1.11,1.49-2.97,1.49-2.27,0-3.24-1.48-3.24-2.94,0-2.15,1.69-3.13,4.55-3.13h1.64v-.82c0-.85-.27-1.89-2.07-1.89-1.61,0-1.88.8-2.06,1.55h-1.61c.13-1.33.95-2.86,3.72-2.85,2.35,0,3.66.97,3.66,3.16v4.6ZM598.02,216.56h-1.56c-1.92,0-2.95.53-2.95,1.89,0,1,.69,1.73,1.88,1.73,2.32,0,2.63-1.56,2.63-3.31v-.31Z"/>
    <path class="cls-3" d="M460.76,236.62c1.55,4.61,2.41,7.17,2.67,8.15h.02c.31-1.09,1-3.29,2.57-8.15h1.68l-3.46,10.08c-.98,2.82-1.7,3.53-3.68,3.53-.3,0-.66-.02-1.04-.06v-1.45c.24.03.52.05.79.05,1.22,0,1.68-.54,2.25-2.14l-3.61-10h1.8Z"/>
    <path class="cls-3" d="M475.79,245.07v4.98h-1.66v-11.07c0-.79,0-1.6-.02-2.35h1.62c.04.32.06.9.06,1.51.52-.97,1.5-1.74,3.15-1.74,2.23,0,3.85,1.87,3.85,4.8,0,3.44-1.86,5.29-4.19,5.29-1.56,0-2.37-.65-2.8-1.42ZM481.07,241.26c0-2.04-.93-3.44-2.57-3.44-2,0-2.79,1.26-2.79,3.6s.65,3.66,2.66,3.66c1.76,0,2.7-1.45,2.7-3.82Z"/>
    <path class="cls-3" d="M484.96,239.24c0-1.35-.01-2.1-.02-2.62h1.63c.03.27.05,1.03.05,1.97.5-1.3,1.65-2.15,3.25-2.19v1.66c-1.98.06-3.25,1.09-3.25,3.53v4.68h-1.66v-7.02Z"/>
    <path class="cls-3" d="M498.5,244.16c0,.88.08,1.82.13,2.1h-1.59c-.08-.21-.13-.67-.16-1.26-.34.64-1.11,1.49-2.97,1.49-2.27,0-3.24-1.48-3.24-2.94,0-2.15,1.69-3.13,4.55-3.13h1.64v-.82c0-.85-.27-1.89-2.07-1.89-1.61,0-1.88.8-2.06,1.55h-1.61c.13-1.33.95-2.86,3.72-2.85,2.35,0,3.66.97,3.66,3.16v4.6ZM496.88,241.56h-1.56c-1.92,0-2.95.53-2.95,1.89,0,1,.69,1.73,1.88,1.73,2.32,0,2.63-1.56,2.63-3.31v-.31Z"/>
    <path class="cls-3" d="M502.01,236.62c1.36,2.14,1.93,3.06,2.28,3.6h.02c.41-.62,1.22-1.88,2.36-3.6h1.86l-3.26,4.63,3.29,5h-1.92c-1.17-1.88-1.99-3.18-2.38-3.81h-.02c-.32.54-1.1,1.82-2.36,3.81h-1.86l3.23-4.81-3.14-4.82h1.88Z"/>
    <path class="cls-3" d="M510.17,232.31h1.66v2.08h-1.66v-2.08ZM510.17,236.62h1.66v9.63h-1.66v-9.63Z"/>
    <path class="cls-3" d="M515.39,243.5c.28,1.05,1.05,1.67,2.36,1.67,1.41,0,1.97-.61,1.97-1.49s-.44-1.32-2.28-1.76c-2.75-.67-3.33-1.51-3.33-2.82s1-2.71,3.48-2.71,3.5,1.44,3.63,2.78h-1.61c-.14-.62-.61-1.49-2.09-1.49-1.35,0-1.75.65-1.75,1.28,0,.72.39,1.08,2.16,1.5,2.92.69,3.5,1.67,3.5,3.1,0,1.69-1.34,2.92-3.74,2.92s-3.72-1.26-3.96-2.98h1.66Z"/>
  </g>
</svg>