<?xml version="1.0" encoding="UTF-8"?>
<svg id="IMAGENES" xmlns="http://www.w3.org/2000/svg" viewBox="0 0 932.44 295.14">
  <defs>
    <style>
      .cls-1 {
        fill: #e1e1e1;
      }

      .cls-2 {
        fill: none;
      }

      .cls-3 {
        fill: #8c8c8c;
      }

      .cls-4 {
        fill: #8996be;
      }

      .cls-5 {
        fill: #efd1a0;
      }

      .cls-6 {
        fill: #f2c166;
      }

      .cls-7 {
        fill: #1d3191;
      }
    </style>
  </defs>
  <polyline points="757.29 214.26 757.29 223.17 748.38 223.17 748.38 214.26 494.8 214.26 485.89 214.26 231.57 214.26 231.57 223.17 222.66 223.17 222.66 214.26 102.19 214.26 102.19 203.57 877.23 203.57 877.23 214.26 757.29 214.26 748.38 214.26 494.8 214.26 494.8 223.17 485.89 223.17 485.89 214.26 231.57 214.26 222.66 214.26"/>
  <rect class="cls-5" x="628.55" y="6.98" width="248.79" height="67.9"/>
  <rect class="cls-4" x="366.06" y="6.98" width="248.79" height="67.9"/>
  <rect class="cls-7" x="366.06" y="74.88" width="248.79" height="10.69"/>
  <rect class="cls-6" x="628.55" y="74.88" width="248.79" height="10.69"/>
  <g>
    <rect class="cls-2" x="377.18" y="23.32" width="226.54" height="68.87"/>
    <path d="M384.32,33.59c.36,1.58,1.44,2.44,3.36,2.44,2.06,0,2.88-.97,2.88-2.22,0-1.33-.65-2.07-3.3-2.71-3.11-.76-4.2-1.82-4.2-3.68,0-1.96,1.45-3.56,4.4-3.56,3.15,0,4.44,1.82,4.62,3.56h-1.78c-.24-1.18-.97-2.14-2.9-2.14-1.61,0-2.51.72-2.51,1.98s.75,1.73,3.06,2.29c3.77.92,4.44,2.38,4.44,4.08,0,2.13-1.58,3.8-4.81,3.8s-4.75-1.82-5.03-3.84h1.78Z"/>
    <path d="M395.76,32.75c.01,1.96,1,3.35,2.63,3.35,1.52,0,2.02-.79,2.33-1.49h1.68c-.38,1.23-1.41,2.88-4.05,2.88-3.03,0-4.26-2.46-4.26-4.94,0-2.86,1.44-5.15,4.37-5.15,3.11,0,4.13,2.49,4.13,4.55,0,.29,0,.54-.03.8h-6.79ZM400.89,31.58c-.02-1.58-.82-2.86-2.46-2.86s-2.44,1.18-2.61,2.86h5.07Z"/>
    <path d="M404.72,30.12c0-.83,0-1.7-.02-2.48h1.6c.03.29.07,1,.06,1.48.44-.86,1.28-1.71,2.8-1.71,1.36,0,2.3.69,2.67,1.73.52-.91,1.42-1.73,3.07-1.73s3.04.92,3.04,3.53v6.33h-1.64v-6.13c0-1.12-.4-2.3-1.91-2.3s-2.25,1.19-2.25,2.89v5.53h-1.63v-6.08c0-1.24-.35-2.34-1.86-2.34s-2.29,1.25-2.29,3.09v5.33h-1.65v-7.15Z"/>
    <path d="M420.79,23.32h1.66v2.08h-1.66v-2.08ZM420.79,27.63h1.66v9.63h-1.66v-9.63Z"/>
    <path d="M425.3,30.06c0-.84,0-1.68-.02-2.43h1.62c.04.28.07,1.3.06,1.58.38-.83,1.17-1.81,3.03-1.81s3.22,1.1,3.22,3.67v6.2h-1.66v-5.98c0-1.46-.57-2.44-2.04-2.44-1.82,0-2.55,1.38-2.55,3.32v5.1h-1.66v-7.21Z"/>
    <path d="M443.11,35.17c0,.88.08,1.82.13,2.1h-1.59c-.08-.21-.13-.67-.16-1.26-.34.64-1.1,1.49-2.97,1.49-2.27,0-3.24-1.48-3.24-2.94,0-2.15,1.69-3.13,4.55-3.13h1.64v-.82c0-.85-.27-1.89-2.07-1.89-1.61,0-1.88.8-2.06,1.55h-1.61c.13-1.33.95-2.86,3.72-2.85,2.35,0,3.66.97,3.66,3.16v4.6ZM441.49,32.57h-1.56c-1.92,0-2.95.53-2.95,1.89,0,1,.69,1.73,1.88,1.73,2.32,0,2.63-1.56,2.63-3.31v-.31Z"/>
    <path d="M445.98,30.25c0-1.35-.01-2.1-.02-2.62h1.63c.03.27.05,1.03.05,1.97.5-1.3,1.65-2.15,3.25-2.19v1.66c-1.98.06-3.25,1.09-3.25,3.53v4.68h-1.66v-7.02Z"/>
    <path d="M452.54,23.32h1.66v2.08h-1.66v-2.08ZM452.54,27.63h1.66v9.63h-1.66v-9.63Z"/>
    <path d="M465.32,32.43c0,2.78-1.59,5.06-4.54,5.06-2.76,0-4.43-2.14-4.43-5.03s1.64-5.06,4.54-5.06c2.67,0,4.43,2,4.43,5.03ZM458.07,32.45c0,2.11,1.05,3.65,2.79,3.65s2.75-1.46,2.75-3.65-.99-3.66-2.79-3.66-2.75,1.45-2.75,3.65Z"/>
    <path d="M480.31,23.32v11.23c0,.91,0,1.79.02,2.72h-1.6c-.04-.25-.08-.99-.08-1.37-.47,1-1.45,1.59-3.03,1.59-2.48,0-4-2.01-4-4.94s1.64-5.15,4.31-5.15c1.71,0,2.46.69,2.72,1.23v-5.32h1.66ZM473.35,32.5c0,2.33,1.11,3.58,2.62,3.58,2.25,0,2.75-1.66,2.75-3.77s-.45-3.49-2.62-3.49c-1.7,0-2.75,1.35-2.75,3.68Z"/>
    <path d="M484.14,32.75c.01,1.96,1,3.35,2.63,3.35,1.52,0,2.02-.79,2.33-1.49h1.68c-.38,1.23-1.41,2.88-4.05,2.88-3.03,0-4.26-2.46-4.26-4.94,0-2.86,1.44-5.15,4.37-5.15,3.11,0,4.13,2.49,4.13,4.55,0,.29,0,.54-.03.8h-6.79ZM489.27,31.58c-.02-1.58-.82-2.86-2.46-2.86s-2.44,1.18-2.61,2.86h5.07Z"/>
    <path d="M498.13,24.05h1.75v11.72h6.89l-.24,1.5h-8.4v-13.22Z"/>
    <path d="M508.78,23.32h1.66v2.08h-1.66v-2.08ZM508.78,27.63h1.66v9.63h-1.66v-9.63Z"/>
    <path d="M520.88,34.32c-.41,1.66-1.53,3.17-3.98,3.17-2.65,0-4.29-1.91-4.29-4.99,0-2.72,1.54-5.1,4.42-5.1s3.74,1.98,3.86,3.22h-1.65c-.24-.98-.85-1.83-2.25-1.83-1.7,0-2.67,1.46-2.67,3.65s.94,3.67,2.61,3.67c1.21,0,1.91-.64,2.3-1.79h1.66Z"/>
    <path d="M523.99,32.75c.01,1.96,1,3.35,2.63,3.35,1.52,0,2.02-.79,2.33-1.49h1.68c-.38,1.23-1.41,2.88-4.05,2.88-3.03,0-4.26-2.46-4.26-4.94,0-2.86,1.44-5.15,4.37-5.15,3.11,0,4.13,2.49,4.13,4.55,0,.29,0,.54-.03.8h-6.79ZM529.11,31.58c-.02-1.58-.82-2.86-2.46-2.86s-2.44,1.18-2.61,2.86h5.07Z"/>
    <path d="M532.95,30.06c0-.84,0-1.68-.02-2.43h1.62c.04.28.07,1.3.06,1.58.38-.83,1.17-1.81,3.03-1.81s3.22,1.1,3.22,3.67v6.2h-1.66v-5.98c0-1.46-.57-2.44-2.04-2.44-1.82,0-2.55,1.38-2.55,3.32v5.1h-1.66v-7.21Z"/>
    <path d="M551.3,34.32c-.41,1.66-1.53,3.17-3.98,3.17-2.65,0-4.29-1.91-4.29-4.99,0-2.72,1.54-5.1,4.42-5.1s3.74,1.98,3.86,3.22h-1.65c-.24-.98-.85-1.83-2.25-1.83-1.7,0-2.67,1.46-2.67,3.65s.94,3.67,2.61,3.67c1.21,0,1.91-.64,2.3-1.79h1.66Z"/>
    <path d="M553.47,23.32h1.66v2.08h-1.66v-2.08ZM553.47,27.63h1.66v9.63h-1.66v-9.63Z"/>
    <path d="M565.03,35.17c0,.88.08,1.82.13,2.1h-1.59c-.08-.21-.13-.67-.16-1.26-.34.64-1.1,1.49-2.97,1.49-2.27,0-3.24-1.48-3.24-2.94,0-2.15,1.69-3.13,4.55-3.13h1.64v-.82c0-.85-.27-1.89-2.07-1.89-1.61,0-1.88.8-2.06,1.55h-1.61c.13-1.33.95-2.86,3.72-2.85,2.35,0,3.66.97,3.66,3.16v4.6ZM563.41,32.57h-1.56c-1.92,0-2.95.53-2.95,1.89,0,1,.69,1.73,1.88,1.73,2.32,0,2.63-1.56,2.63-3.31v-.31Z"/>
    <path d="M566.54,27.63h1.67v-2.84h1.66v2.84h2.13v1.36h-2.13v5.64c0,.94.23,1.42,1.1,1.42.23,0,.58-.01.84-.08v1.25c-.41.15-.98.18-1.44.18-1.5,0-2.16-.78-2.16-2.38v-6.03h-1.67v-1.36Z"/>
    <path d="M581.32,34.46c0,.94.01,2.24.02,2.81h-1.62c-.04-.25-.06-.84-.06-1.44-.47,1.07-1.4,1.67-2.92,1.67-1.62,0-3.18-.81-3.18-3.53v-6.34h1.65v5.98c0,1.27.4,2.43,2,2.43,1.77,0,2.46-.98,2.46-3.39v-5.02h1.66v6.83Z"/>
    <path d="M584.17,30.25c0-1.35-.01-2.1-.02-2.62h1.63c.03.27.05,1.03.05,1.97.5-1.3,1.65-2.15,3.25-2.19v1.66c-1.98.06-3.25,1.09-3.25,3.53v4.68h-1.66v-7.02Z"/>
    <path d="M597.71,35.17c0,.88.08,1.82.13,2.1h-1.59c-.08-.21-.13-.67-.16-1.26-.34.64-1.1,1.49-2.97,1.49-2.27,0-3.24-1.48-3.24-2.94,0-2.15,1.69-3.13,4.55-3.13h1.64v-.82c0-.85-.27-1.89-2.07-1.89-1.61,0-1.88.8-2.06,1.55h-1.61c.13-1.33.95-2.86,3.72-2.85,2.35,0,3.66.97,3.66,3.16v4.6ZM596.09,32.57h-1.56c-1.92,0-2.95.53-2.95,1.89,0,1,.69,1.73,1.88,1.73,2.32,0,2.63-1.56,2.63-3.31v-.31Z"/>
    <path d="M476.68,49.05v13.22h-1.75v-13.22h1.75Z"/>
    <path d="M485.21,52.63c1.56,4.61,2.41,7.17,2.67,8.15h.02c.31-1.09,1-3.29,2.57-8.15h1.68l-3.46,10.08c-.98,2.82-1.7,3.53-3.68,3.53-.3,0-.66-.02-1.04-.06v-1.45c.24.03.52.05.79.05,1.22,0,1.68-.54,2.25-2.14l-3.61-10h1.8Z"/>
    <path d="M500.66,49.05v13.22h-1.75v-13.22h1.75Z"/>
    <path d="M505.99,49.05v13.22h-1.75v-13.22h1.75Z"/>
  </g>
  <g>
    <rect class="cls-2" x="639.67" y="23.32" width="226.54" height="68.87"/>
    <path d="M679.21,24.05h5.02c2.57,0,4.33,1.44,4.33,3.85,0,2.58-1.86,3.94-4.44,3.94h-3.15v5.43h-1.77v-13.22ZM680.97,30.36h3.06c1.81,0,2.72-.88,2.72-2.42s-1.1-2.42-2.65-2.42h-3.13v4.84Z"/>
    <path d="M690.48,30.25c0-1.35-.01-2.1-.02-2.62h1.63c.03.27.05,1.03.05,1.97.5-1.3,1.65-2.15,3.25-2.19v1.66c-1.98.06-3.25,1.09-3.25,3.53v4.68h-1.66v-7.02Z"/>
    <path d="M705.3,32.43c0,2.78-1.59,5.06-4.54,5.06-2.76,0-4.43-2.14-4.43-5.03s1.64-5.06,4.54-5.06c2.67,0,4.43,2,4.43,5.03ZM698.05,32.45c0,2.11,1.05,3.65,2.79,3.65s2.75-1.46,2.75-3.65-.98-3.66-2.79-3.66-2.75,1.45-2.75,3.65Z"/>
    <path d="M708.16,27.63c1.56,4.61,2.41,7.17,2.67,8.15h.02c.31-1.09,1-3.29,2.57-8.15h1.68l-3.46,10.08c-.98,2.82-1.71,3.53-3.68,3.53-.3,0-.66-.02-1.04-.06v-1.45c.24.03.53.05.79.05,1.22,0,1.68-.54,2.25-2.14l-3.61-10h1.8Z"/>
    <path d="M717.74,32.75c.01,1.96,1,3.35,2.63,3.35,1.52,0,2.02-.79,2.33-1.49h1.68c-.38,1.23-1.41,2.88-4.05,2.88-3.03,0-4.26-2.46-4.26-4.94,0-2.86,1.44-5.15,4.37-5.15,3.11,0,4.12,2.49,4.12,4.55,0,.29,0,.54-.03.8h-6.79ZM722.86,31.58c-.02-1.58-.82-2.86-2.46-2.86s-2.44,1.18-2.61,2.86h5.07Z"/>
    <path d="M734.39,34.32c-.41,1.66-1.53,3.17-3.98,3.17-2.65,0-4.29-1.91-4.29-4.99,0-2.72,1.54-5.1,4.42-5.1s3.74,1.98,3.86,3.22h-1.65c-.24-.98-.85-1.83-2.24-1.83-1.71,0-2.67,1.46-2.67,3.65s.94,3.67,2.61,3.67c1.21,0,1.91-.64,2.3-1.79h1.65Z"/>
    <path d="M735.36,27.63h1.67v-2.84h1.66v2.84h2.12v1.36h-2.12v5.64c0,.94.23,1.42,1.1,1.42.23,0,.58-.01.84-.08v1.25c-.41.15-.98.18-1.44.18-1.5,0-2.16-.78-2.16-2.38v-6.03h-1.67v-1.36Z"/>
    <path d="M750.8,32.43c0,2.78-1.59,5.06-4.54,5.06-2.76,0-4.43-2.14-4.43-5.03s1.64-5.06,4.54-5.06c2.67,0,4.43,2,4.43,5.03ZM743.55,32.45c0,2.11,1.05,3.65,2.79,3.65s2.75-1.46,2.75-3.65-.98-3.66-2.79-3.66-2.75,1.45-2.75,3.65Z"/>
    <path d="M765.79,23.32v11.23c0,.91,0,1.79.02,2.72h-1.6c-.04-.25-.08-.99-.08-1.37-.47,1-1.45,1.59-3.03,1.59-2.47,0-4-2.01-4-4.94s1.64-5.15,4.31-5.15c1.71,0,2.46.69,2.72,1.23v-5.32h1.66ZM758.83,32.5c0,2.33,1.11,3.58,2.62,3.58,2.25,0,2.75-1.66,2.75-3.77s-.45-3.49-2.62-3.49c-1.7,0-2.75,1.35-2.75,3.68Z"/>
    <path d="M769.62,32.75c.01,1.96,1,3.35,2.63,3.35,1.52,0,2.02-.79,2.32-1.49h1.68c-.38,1.23-1.41,2.88-4.05,2.88-3.03,0-4.26-2.46-4.26-4.94,0-2.86,1.44-5.15,4.37-5.15,3.11,0,4.13,2.49,4.13,4.55,0,.29,0,.54-.03.8h-6.79ZM774.75,31.58c-.02-1.58-.82-2.86-2.46-2.86s-2.44,1.18-2.61,2.86h5.07Z"/>
    <path d="M786.29,25.55h-4.27v-1.5h10.31v1.5h-4.28v11.72h-1.76v-11.72Z"/>
    <path d="M798.37,23.13l-2.91,2.92h-1.57l2.44-2.92h2.05ZM793.9,27.63h1.66v9.63h-1.66v-9.63Z"/>
    <path d="M797.26,27.63h1.67v-2.84h1.66v2.84h2.13v1.36h-2.13v5.64c0,.94.23,1.42,1.1,1.42.23,0,.58-.01.84-.08v1.25c-.41.15-.98.18-1.44.18-1.5,0-2.16-.78-2.16-2.38v-6.03h-1.67v-1.36Z"/>
    <path d="M812.04,34.46c0,.94.01,2.24.02,2.81h-1.62c-.04-.25-.06-.84-.06-1.44-.47,1.07-1.4,1.67-2.92,1.67-1.62,0-3.18-.81-3.18-3.53v-6.34h1.65v5.98c0,1.27.4,2.43,2,2.43,1.77,0,2.46-.98,2.46-3.39v-5.02h1.66v6.83Z"/>
    <path d="M814.89,37.27v-13.95h1.66v13.95h-1.66Z"/>
    <path d="M827.67,32.43c0,2.78-1.59,5.06-4.54,5.06-2.76,0-4.43-2.14-4.43-5.03s1.63-5.06,4.54-5.06c2.68,0,4.43,2,4.43,5.03ZM820.42,32.45c0,2.11,1.05,3.65,2.79,3.65s2.75-1.46,2.75-3.65-.99-3.66-2.79-3.66-2.75,1.45-2.75,3.65Z"/>
    <path d="M739.17,49.05v13.22h-1.75v-13.22h1.75Z"/>
    <path d="M747.7,52.63c1.56,4.61,2.41,7.17,2.67,8.15h.02c.31-1.09,1-3.29,2.57-8.15h1.68l-3.46,10.08c-.98,2.82-1.71,3.53-3.68,3.53-.3,0-.66-.02-1.04-.06v-1.45c.24.03.53.05.79.05,1.22,0,1.68-.54,2.25-2.14l-3.61-10h1.8Z"/>
    <path d="M763.14,49.05v13.22h-1.75v-13.22h1.75Z"/>
    <path d="M768.48,49.05v13.22h-1.75v-13.22h1.75Z"/>
  </g>
  <g>
    <rect class="cls-2" x="113.85" y="230.16" width="226.54" height="68.87"/>
    <path d="M185.97,239.99c-.53,2.44-2.37,4.22-5.65,4.22-4.15,0-6.12-2.94-6.12-6.67s2.03-6.81,6.25-6.81c3.49,0,5.18,2.05,5.5,4.24h-2.83c-.27-1.01-.98-2.02-2.76-2.02-2.33,0-3.24,2.1-3.24,4.48,0,2.21.78,4.55,3.31,4.55,1.85,0,2.43-1.24,2.68-2h2.85Z"/>
    <path d="M187.89,230.16h2.72v2.43h-2.72v-2.43ZM187.89,234.19h2.72v9.83h-2.72v-9.83Z"/>
    <path d="M201.57,240.85c-.34,1.64-1.49,3.41-4.42,3.41s-4.63-2.12-4.63-5.07,1.77-5.22,4.76-5.22c3.32,0,4.24,2.38,4.29,3.49h-2.66c-.17-.8-.62-1.36-1.68-1.36-1.25,0-1.95,1.09-1.95,3,0,2.09.75,3.05,1.94,3.05.94,0,1.44-.55,1.68-1.29h2.67Z"/>
    <path d="M203.24,244.03v-13.87h2.72v13.87h-2.72Z"/>
    <path d="M217.56,239.09c0,2.97-1.78,5.16-4.9,5.16s-4.83-2.18-4.83-5.11,1.83-5.18,4.96-5.18c2.89,0,4.77,2.04,4.77,5.13ZM210.6,239.11c0,1.89.81,3.01,2.13,3.01s2.07-1.12,2.07-3c0-2.06-.75-3.03-2.11-3.03-1.26,0-2.09.93-2.09,3.01Z"/>
    <path d="M224.03,230.16h2.72v5.08c.41-.63,1.22-1.27,2.81-1.27,2.68,0,4.01,2.21,4.01,4.97s-1.45,5.32-4.28,5.32c-1.46,0-2.11-.45-2.58-1.16,0,.32-.05.68-.1.93h-2.6c.02-1.07.02-2.15.02-3.21v-10.65ZM230.81,238.99c0-1.64-.61-2.84-2.08-2.84-1.55,0-2.11,1.01-2.11,3.02,0,1.66.49,2.93,2.08,2.93,1.38,0,2.11-1.24,2.11-3.1Z"/>
    <path d="M243.54,241.48c0,.94.08,2.3.13,2.54h-2.6c-.08-.19-.13-.71-.14-.96-.36.55-1.02,1.19-2.76,1.19-2.37,0-3.37-1.56-3.37-3.08,0-2.24,1.8-3.27,4.68-3.27h1.4v-.6c0-.7-.25-1.39-1.51-1.39-1.15,0-1.4.49-1.53,1.2h-2.59c.15-1.75,1.23-3.16,4.22-3.14,2.63.02,4.07,1.05,4.07,3.39v4.13ZM240.89,239.55h-1.11c-1.64,0-2.25.5-2.25,1.45,0,.71.44,1.31,1.42,1.31,1.73,0,1.94-1.2,1.94-2.5v-.26ZM243.42,229.97l-3.03,2.82h-2.38l2.18-2.82h3.23Z"/>
    <path d="M247.85,241.07c.21.78.85,1.22,1.86,1.22s1.37-.36,1.37-.96c0-.63-.42-.88-1.83-1.22-3.2-.79-3.73-1.78-3.73-3.17s1.02-2.98,3.99-2.98,3.99,1.63,4.08,2.96h-2.59c-.09-.36-.33-1.05-1.61-1.05-.9,0-1.19.4-1.19.84,0,.49.31.73,1.9,1.1,3.28.76,3.75,1.89,3.75,3.33,0,1.63-1.24,3.11-4.24,3.11s-4.22-1.44-4.43-3.18h2.67Z"/>
    <path d="M255.64,230.16h2.72v2.43h-2.72v-2.43ZM255.64,234.19h2.72v9.83h-2.72v-9.83Z"/>
    <path d="M269.32,240.85c-.34,1.64-1.49,3.41-4.42,3.41s-4.63-2.12-4.63-5.07,1.77-5.22,4.76-5.22c3.32,0,4.24,2.38,4.29,3.49h-2.66c-.17-.8-.62-1.36-1.68-1.36-1.25,0-1.95,1.09-1.95,3,0,2.09.75,3.05,1.94,3.05.94,0,1.44-.55,1.68-1.29h2.67Z"/>
    <path d="M280.3,239.09c0,2.97-1.78,5.16-4.9,5.16s-4.83-2.18-4.83-5.11,1.83-5.18,4.96-5.18c2.89,0,4.77,2.04,4.77,5.13ZM273.33,239.11c0,1.89.81,3.01,2.13,3.01s2.07-1.12,2.07-3c0-2.06-.75-3.03-2.11-3.03-1.26,0-2.09.93-2.09,3.01Z"/>
    <path d="M209.25,255.93v13.1h-2.83v-13.1h2.83Z"/>
    <path d="M224.78,266.48c0,.94.08,2.3.13,2.54h-2.6c-.08-.19-.13-.71-.14-.96-.36.55-1.02,1.19-2.76,1.19-2.37,0-3.37-1.56-3.37-3.08,0-2.24,1.8-3.27,4.68-3.27h1.4v-.6c0-.7-.25-1.39-1.51-1.39-1.15,0-1.4.49-1.53,1.2h-2.59c.15-1.75,1.23-3.16,4.22-3.14,2.63.02,4.07,1.05,4.07,3.39v4.13ZM222.13,264.55h-1.11c-1.64,0-2.25.5-2.25,1.45,0,.71.44,1.31,1.42,1.31,1.73,0,1.94-1.2,1.94-2.5v-.26Z"/>
    <path d="M235.01,255.93v13.1h-2.83v-13.1h2.83Z"/>
    <path d="M241.28,269.03l-4.62-13.1h3.04l1.95,6.05c.59,1.83,1.04,3.38,1.34,4.72h.04c.27-1.22.78-2.82,1.4-4.68l2.04-6.09h2.89l-4.74,13.1h-3.34Z"/>
  </g>
  <g>
    <rect class="cls-2" x="377.07" y="230.16" width="226.54" height="68.87"/>
    <path d="M417.66,239.99c-.53,2.44-2.37,4.22-5.65,4.22-4.15,0-6.12-2.94-6.12-6.67s2.03-6.81,6.25-6.81c3.49,0,5.18,2.05,5.5,4.24h-2.83c-.27-1.01-.98-2.02-2.76-2.02-2.33,0-3.24,2.1-3.24,4.48,0,2.21.78,4.55,3.31,4.55,1.85,0,2.43-1.24,2.68-2h2.85Z"/>
    <path d="M419.58,230.16h2.72v2.43h-2.72v-2.43ZM419.58,234.19h2.72v9.83h-2.72v-9.83Z"/>
    <path d="M433.26,240.85c-.34,1.64-1.49,3.41-4.42,3.41s-4.63-2.12-4.63-5.07,1.77-5.22,4.76-5.22c3.32,0,4.24,2.38,4.29,3.49h-2.66c-.17-.8-.62-1.36-1.68-1.36-1.25,0-1.95,1.09-1.95,3,0,2.09.75,3.05,1.94,3.05.94,0,1.44-.55,1.68-1.29h2.67Z"/>
    <path d="M434.93,244.03v-13.87h2.72v13.87h-2.72Z"/>
    <path d="M449.25,239.09c0,2.97-1.78,5.16-4.9,5.16s-4.83-2.18-4.83-5.11,1.83-5.18,4.96-5.18c2.89,0,4.77,2.04,4.77,5.13ZM442.29,239.11c0,1.89.81,3.01,2.13,3.01s2.07-1.12,2.07-3c0-2.06-.75-3.03-2.11-3.03-1.26,0-2.09.93-2.09,3.01Z"/>
    <path d="M457.88,239.69c0,1.23.62,2.43,1.97,2.43,1.13,0,1.46-.46,1.72-1.05h2.72c-.35,1.2-1.42,3.18-4.51,3.18s-4.64-2.42-4.64-5c0-3.08,1.58-5.29,4.74-5.29,3.38,0,4.53,2.44,4.53,4.9,0,.33,0,.55-.04.83h-6.49ZM461.68,238.02c-.02-1.14-.48-2.11-1.8-2.11s-1.83.9-1.94,2.11h3.74Z"/>
    <path d="M468.29,241.07c.21.78.85,1.22,1.86,1.22s1.37-.36,1.37-.96c0-.63-.42-.88-1.83-1.22-3.2-.79-3.73-1.78-3.73-3.17s1.02-2.98,3.99-2.98,3.99,1.63,4.08,2.96h-2.59c-.09-.36-.33-1.05-1.61-1.05-.9,0-1.19.4-1.19.84,0,.49.31.73,1.9,1.1,3.28.76,3.75,1.89,3.75,3.33,0,1.63-1.24,3.11-4.24,3.11s-4.22-1.44-4.43-3.18h2.67Z"/>
    <path d="M478.77,243.15v4.64h-2.71v-11.23c0-.8,0-1.58-.02-2.37h2.64c.04.26.09.86.09,1.22.42-.72,1.3-1.45,2.86-1.45,2.21,0,3.92,1.85,3.92,4.9,0,3.47-1.91,5.39-4.29,5.39-1.39,0-2.11-.52-2.49-1.1ZM482.78,238.97c0-1.8-.73-2.82-2.02-2.82-1.55,0-2.09.99-2.09,2.97,0,1.88.51,2.97,1.98,2.97s2.14-1.12,2.14-3.12Z"/>
    <path d="M489.71,239.69c0,1.23.62,2.43,1.97,2.43,1.13,0,1.46-.46,1.72-1.05h2.72c-.35,1.2-1.42,3.18-4.51,3.18s-4.64-2.42-4.64-5c0-3.08,1.58-5.29,4.74-5.29,3.38,0,4.53,2.44,4.53,4.9,0,.33,0,.55-.04.83h-6.49ZM493.5,238.02c-.02-1.14-.48-2.11-1.8-2.11s-1.83.9-1.94,2.11h3.74Z"/>
    <path d="M506.77,240.85c-.34,1.64-1.49,3.41-4.42,3.41s-4.63-2.12-4.63-5.07,1.77-5.22,4.76-5.22c3.32,0,4.24,2.38,4.29,3.49h-2.66c-.17-.8-.62-1.36-1.68-1.36-1.25,0-1.95,1.09-1.95,3,0,2.09.75,3.05,1.94,3.05.94,0,1.44-.55,1.68-1.29h2.67Z"/>
    <path d="M508.54,230.16h2.72v2.43h-2.72v-2.43ZM508.54,234.19h2.72v9.83h-2.72v-9.83Z"/>
    <path d="M521.78,241.48c0,.94.08,2.3.13,2.54h-2.6c-.08-.19-.13-.71-.14-.96-.36.55-1.02,1.19-2.76,1.19-2.37,0-3.37-1.56-3.37-3.08,0-2.24,1.8-3.27,4.68-3.27h1.4v-.6c0-.7-.25-1.39-1.51-1.39-1.15,0-1.4.49-1.53,1.2h-2.59c.15-1.75,1.23-3.16,4.22-3.14,2.63.02,4.07,1.05,4.07,3.39v4.13ZM519.13,239.55h-1.11c-1.64,0-2.25.5-2.25,1.45,0,.71.44,1.31,1.42,1.31,1.73,0,1.94-1.2,1.94-2.5v-.26Z"/>
    <path d="M524.25,244.03v-13.87h2.72v13.87h-2.72Z"/>
    <path d="M529.42,230.16h2.72v2.43h-2.72v-2.43ZM529.42,234.19h2.72v9.83h-2.72v-9.83Z"/>
    <path d="M533.95,241.98l4.87-5.64h-4.63v-2.15h7.7v2.12l-4.77,5.57h5.12l-.33,2.15h-7.96v-2.04Z"/>
    <path d="M552.07,241.48c0,.94.08,2.3.13,2.54h-2.6c-.08-.19-.13-.71-.14-.96-.36.55-1.02,1.19-2.76,1.19-2.37,0-3.37-1.56-3.37-3.08,0-2.24,1.8-3.27,4.68-3.27h1.4v-.6c0-.7-.25-1.39-1.51-1.39-1.15,0-1.4.49-1.53,1.2h-2.59c.15-1.75,1.23-3.16,4.22-3.14,2.63.02,4.07,1.05,4.07,3.39v4.13ZM549.41,239.55h-1.11c-1.64,0-2.25.5-2.25,1.45,0,.71.44,1.31,1.42,1.31,1.73,0,1.94-1.2,1.94-2.5v-.26Z"/>
    <path d="M563.5,230.16v11.17c0,.89,0,1.8.02,2.7h-2.62c-.05-.29-.11-.8-.12-1.03-.47.77-1.32,1.25-2.79,1.25-2.49,0-4.07-2-4.07-5.06s1.68-5.23,4.47-5.23c1.42,0,2.17.5,2.39.94v-4.75h2.72ZM556.71,239.12c0,1.92.75,2.95,2.08,2.95,1.87,0,2.09-1.56,2.09-2.97,0-1.68-.24-2.95-2.02-2.95-1.43,0-2.15,1.12-2.15,2.97Z"/>
    <path d="M575.06,239.09c0,2.97-1.78,5.16-4.9,5.16s-4.83-2.18-4.83-5.11,1.83-5.18,4.96-5.18c2.89,0,4.77,2.04,4.77,5.13ZM568.1,239.11c0,1.89.81,3.01,2.13,3.01s2.07-1.12,2.07-3c0-2.06-.75-3.03-2.11-3.03-1.26,0-2.09.93-2.09,3.01Z"/>
    <path d="M463.39,269.03l-4.62-13.1h3.04l1.95,6.05c.59,1.83,1.04,3.38,1.34,4.72h.04c.27-1.22.78-2.82,1.4-4.68l2.04-6.09h2.89l-4.74,13.1h-3.34Z"/>
    <path d="M485.46,266.48c0,.94.08,2.3.13,2.54h-2.6c-.08-.19-.13-.71-.14-.96-.36.55-1.02,1.19-2.76,1.19-2.37,0-3.37-1.56-3.37-3.08,0-2.24,1.8-3.27,4.68-3.27h1.4v-.6c0-.7-.25-1.39-1.51-1.39-1.15,0-1.4.49-1.53,1.2h-2.59c.15-1.75,1.23-3.16,4.22-3.14,2.63.02,4.07,1.05,4.07,3.39v4.13ZM482.81,264.55h-1.11c-1.64,0-2.25.5-2.25,1.45,0,.71.44,1.31,1.42,1.31,1.73,0,1.94-1.2,1.94-2.5v-.26Z"/>
    <path d="M495.94,269.03l-4.62-13.1h3.04l1.95,6.05c.59,1.83,1.04,3.38,1.34,4.72h.04c.27-1.22.78-2.82,1.4-4.68l2.04-6.09h2.89l-4.74,13.1h-3.34Z"/>
    <path d="M508.44,255.93v13.1h-2.83v-13.1h2.83Z"/>
    <path d="M514.41,255.93v13.1h-2.83v-13.1h2.83Z"/>
    <path d="M520.38,255.93v13.1h-2.83v-13.1h2.83Z"/>
  </g>
  <g>
    <rect class="cls-2" x="639.56" y="228.48" width="226.54" height="68.87"/>
    <path d="M691.12,238.31c-.53,2.44-2.37,4.22-5.65,4.22-4.15,0-6.12-2.94-6.12-6.67s2.03-6.81,6.25-6.81c3.49,0,5.18,2.05,5.5,4.24h-2.83c-.27-1.01-.98-2.02-2.76-2.02-2.33,0-3.24,2.1-3.24,4.48,0,2.21.78,4.55,3.31,4.55,1.85,0,2.43-1.24,2.68-2h2.85Z"/>
    <path d="M693.04,228.48h2.72v2.43h-2.72v-2.43ZM693.04,232.51h2.72v9.83h-2.72v-9.83Z"/>
    <path d="M706.72,239.17c-.34,1.64-1.49,3.41-4.42,3.41s-4.63-2.12-4.63-5.07,1.77-5.22,4.76-5.22c3.32,0,4.24,2.38,4.29,3.49h-2.66c-.17-.8-.62-1.36-1.68-1.36-1.25,0-1.95,1.09-1.95,3,0,2.09.75,3.05,1.94,3.05.94,0,1.44-.55,1.68-1.29h2.67Z"/>
    <path d="M708.39,242.34v-13.87h2.72v13.87h-2.72Z"/>
    <path d="M722.71,237.41c0,2.98-1.78,5.16-4.9,5.16s-4.83-2.18-4.83-5.11,1.83-5.18,4.96-5.18c2.89,0,4.77,2.04,4.77,5.12ZM715.75,237.43c0,1.89.81,3.01,2.13,3.01s2.07-1.12,2.07-3c0-2.06-.75-3.03-2.11-3.03-1.26,0-2.09.94-2.09,3.01Z"/>
    <path d="M731.88,241.47v4.64h-2.71v-11.23c0-.8,0-1.58-.02-2.37h2.64c.04.26.09.86.09,1.22.42-.72,1.3-1.45,2.86-1.45,2.21,0,3.92,1.85,3.92,4.9,0,3.47-1.91,5.39-4.29,5.39-1.39,0-2.11-.52-2.49-1.1ZM735.9,237.29c0-1.8-.73-2.82-2.02-2.82-1.55,0-2.09.99-2.09,2.97,0,1.88.51,2.97,1.98,2.97s2.14-1.12,2.14-3.12Z"/>
    <path d="M740.54,235.18c0-.98,0-1.84-.02-2.67h2.67c.04.22.07,1.2.07,1.73.43-1.12,1.48-1.95,3.15-1.95v2.6c-1.98-.05-3.15.48-3.15,3.18v4.29h-2.72v-7.17Z"/>
    <path d="M757,237.41c0,2.98-1.78,5.16-4.9,5.16s-4.83-2.18-4.83-5.11,1.83-5.18,4.96-5.18c2.89,0,4.77,2.04,4.77,5.12ZM750.04,237.43c0,1.89.81,3.01,2.13,3.01s2.07-1.12,2.07-3c0-2.06-.75-3.03-2.11-3.03-1.26,0-2.09.94-2.09,3.01Z"/>
    <path d="M759.26,242.34v-7.79h-1.43v-2.05h1.43v-.86c0-2.03,1.01-3.36,3.14-3.36.45,0,1.02.04,1.27.12v2.15c-.15-.03-.36-.05-.57-.05-.8,0-1.1.3-1.1,1.35v.66h1.72v2.05h-1.72v7.79h-2.72Z"/>
    <path d="M767.12,238.01c0,1.23.62,2.43,1.97,2.43,1.13,0,1.46-.46,1.72-1.05h2.72c-.35,1.2-1.42,3.18-4.51,3.18s-4.64-2.42-4.64-5c0-3.08,1.58-5.29,4.74-5.29,3.38,0,4.53,2.44,4.53,4.9,0,.33,0,.55-.04.83h-6.49ZM770.92,236.34c-.02-1.15-.48-2.11-1.8-2.11s-1.83.9-1.94,2.11h3.74Z"/>
    <path d="M777.53,239.39c.21.78.85,1.22,1.86,1.22s1.37-.36,1.37-.96c0-.63-.42-.88-1.83-1.22-3.2-.79-3.73-1.78-3.73-3.17s1.02-2.98,3.99-2.98,3.99,1.63,4.08,2.96h-2.59c-.09-.36-.33-1.05-1.61-1.05-.9,0-1.19.4-1.19.84,0,.49.31.73,1.9,1.1,3.28.76,3.75,1.89,3.75,3.33,0,1.63-1.24,3.11-4.24,3.11s-4.22-1.44-4.43-3.18h2.67Z"/>
    <path d="M785.32,228.48h2.72v2.43h-2.72v-2.43ZM785.32,232.51h2.72v9.83h-2.72v-9.83Z"/>
    <path d="M799.64,237.41c0,2.98-1.78,5.16-4.9,5.16s-4.83-2.18-4.83-5.11,1.83-5.18,4.96-5.18c2.89,0,4.77,2.04,4.77,5.12ZM792.68,237.43c0,1.89.81,3.01,2.13,3.01s2.07-1.12,2.07-3c0-2.06-.75-3.03-2.11-3.03-1.26,0-2.09.94-2.09,3.01Z"/>
    <path d="M801.53,234.99c0-.84,0-1.75-.02-2.48h2.64c.05.25.09.94.11,1.25.33-.62,1.13-1.48,2.85-1.48,1.97,0,3.26,1.33,3.26,3.81v6.25h-2.72v-5.95c0-1.11-.37-1.91-1.57-1.91s-1.82.64-1.82,2.38v5.48h-2.72v-7.36Z"/>
    <path d="M820.82,239.8c0,.94.08,2.3.13,2.54h-2.6c-.08-.19-.13-.71-.14-.96-.36.55-1.02,1.19-2.76,1.19-2.37,0-3.37-1.56-3.37-3.08,0-2.24,1.8-3.27,4.68-3.27h1.4v-.6c0-.7-.25-1.39-1.51-1.39-1.15,0-1.4.49-1.53,1.2h-2.59c.15-1.75,1.23-3.16,4.22-3.14,2.63.02,4.07,1.05,4.07,3.39v4.13ZM818.16,237.87h-1.11c-1.64,0-2.25.5-2.25,1.45,0,.71.44,1.31,1.42,1.31,1.73,0,1.94-1.2,1.94-2.5v-.26Z"/>
    <path d="M823.28,242.34v-13.87h2.72v13.87h-2.72Z"/>
    <path d="M732.63,254.25v13.1h-2.83v-13.1h2.83Z"/>
    <path d="M742.93,267.34l-2.8-4.61h-.02l-2.87,4.61h-3.05l4.36-6.6-4.23-6.5h3.29l2.65,4.34h.02l2.74-4.34h3l-4.22,6.24,4.42,6.86h-3.27Z"/>
    <path d="M759.98,264.8c0,.94.08,2.3.13,2.54h-2.6c-.08-.19-.13-.71-.14-.96-.36.55-1.02,1.19-2.76,1.19-2.37,0-3.37-1.56-3.37-3.08,0-2.24,1.8-3.27,4.68-3.27h1.4v-.6c0-.7-.25-1.39-1.51-1.39-1.15,0-1.4.49-1.53,1.2h-2.59c.15-1.75,1.23-3.16,4.22-3.14,2.63.02,4.07,1.05,4.07,3.39v4.13ZM757.33,262.87h-1.11c-1.64,0-2.25.5-2.25,1.45,0,.71.44,1.31,1.42,1.31,1.73,0,1.94-1.2,1.94-2.5v-.26Z"/>
    <path d="M774.35,267.34l-2.8-4.61h-.02l-2.87,4.61h-3.05l4.36-6.6-4.23-6.5h3.29l2.65,4.34h.02l2.74-4.34h3l-4.22,6.24,4.42,6.86h-3.27Z"/>
  </g>
  <g>
    <path d="M85.7,260.22c1.58-.36,2.44-1.44,2.44-3.36,0-2.06-.97-2.88-2.22-2.88-1.33,0-2.07.65-2.71,3.3-.76,3.11-1.82,4.2-3.68,4.2-1.96,0-3.56-1.45-3.56-4.4,0-3.15,1.82-4.44,3.55-4.62v1.78c-1.18.24-2.14.97-2.14,2.9,0,1.61.72,2.51,1.98,2.51s1.73-.75,2.29-3.06c.92-3.77,2.38-4.44,4.08-4.44,2.13,0,3.8,1.58,3.8,4.81s-1.82,4.75-3.84,5.03v-1.78Z"/>
    <path d="M84.86,248.78c1.96-.01,3.35-1,3.35-2.63,0-1.52-.79-2.02-1.49-2.33v-1.68c1.23.38,2.88,1.41,2.88,4.05,0,3.03-2.46,4.26-4.94,4.26-2.86,0-5.15-1.44-5.15-4.37,0-3.11,2.49-4.13,4.55-4.13.29,0,.54,0,.8.03v6.79ZM83.69,243.65c-1.58.02-2.86.82-2.86,2.46s1.18,2.44,2.86,2.61v-5.07Z"/>
    <path d="M82.23,239.82c-.83,0-1.7,0-2.48.02v-1.6c.29-.03,1-.07,1.48-.06-.86-.44-1.71-1.28-1.71-2.8,0-1.36.69-2.3,1.73-2.67-.91-.52-1.73-1.42-1.73-3.07s.92-3.04,3.53-3.04h6.33v1.64h-6.13c-1.12,0-2.3.4-2.3,1.91s1.19,2.25,2.89,2.25h5.53v1.63h-6.08c-1.24,0-2.34.35-2.34,1.86s1.25,2.29,3.09,2.29h5.33v1.65h-7.15Z"/>
    <path d="M84.86,222.75c1.96-.01,3.35-1,3.35-2.63,0-1.52-.79-2.02-1.49-2.33v-1.68c1.23.38,2.88,1.41,2.88,4.05,0,3.03-2.46,4.26-4.94,4.26-2.86,0-5.15-1.44-5.15-4.37,0-3.11,2.49-4.13,4.55-4.13.29,0,.54,0,.8.03v6.79ZM83.69,217.62c-1.58.02-2.86.82-2.86,2.46s1.18,2.44,2.86,2.61v-5.07Z"/>
    <path d="M86.62,212.85c1.05-.28,1.67-1.06,1.67-2.36,0-1.42-.61-1.97-1.49-1.97s-1.32.44-1.76,2.28c-.67,2.75-1.51,3.33-2.82,3.33s-2.71-1-2.71-3.48,1.44-3.5,2.78-3.63v1.61c-.62.14-1.49.61-1.49,2.09,0,1.35.65,1.75,1.28,1.75.72,0,1.08-.4,1.5-2.16.69-2.92,1.67-3.5,3.1-3.5,1.69,0,2.92,1.34,2.92,3.74s-1.26,3.72-2.98,3.96v-1.66Z"/>
    <path d="M79.74,205.98v-1.67h-2.84v-1.66h2.84v-2.13h1.36v2.13h5.64c.94,0,1.42-.23,1.42-1.1,0-.23-.01-.58-.08-.84h1.25c.15.41.18.98.18,1.44,0,1.5-.78,2.16-2.38,2.16h-6.03v1.67h-1.36Z"/>
    <path d="M82.36,198.83c-1.35,0-2.1.01-2.62.02v-1.63c.27-.03,1.03-.05,1.97-.05-1.3-.5-2.15-1.65-2.19-3.25h1.66c.06,1.98,1.09,3.25,3.53,3.25h4.68v1.66h-7.02Z"/>
    <path d="M84.86,191.3c1.96-.01,3.35-1,3.35-2.63,0-1.52-.79-2.02-1.49-2.33v-1.68c1.23.38,2.88,1.41,2.88,4.05,0,3.03-2.46,4.26-4.94,4.26-2.86,0-5.15-1.44-5.15-4.37,0-3.11,2.49-4.13,4.55-4.13.29,0,.54,0,.8.03v6.79ZM83.69,186.17c-1.58.02-2.86.82-2.86,2.46s1.18,2.44,2.86,2.61v-5.07Z"/>
    <path d="M86.62,181.4c1.05-.28,1.67-1.06,1.67-2.36,0-1.42-.61-1.97-1.49-1.97s-1.32.44-1.76,2.28c-.67,2.75-1.51,3.33-2.82,3.33s-2.71-1-2.71-3.48,1.44-3.5,2.78-3.63v1.61c-.62.14-1.49.61-1.49,2.09,0,1.35.65,1.75,1.28,1.75.72,0,1.08-.4,1.5-2.16.69-2.92,1.67-3.5,3.1-3.5,1.69,0,2.92,1.34,2.92,3.74s-1.26,3.72-2.98,3.96v-1.66Z"/>
  </g>
  <rect class="cls-1" x="102.83" y="6.98" width="248.79" height="67.9"/>
  <rect class="cls-3" x="102.83" y="74.88" width="248.79" height="10.69"/>
  <g>
    <rect class="cls-2" x="113.96" y="23.32" width="226.54" height="46.08"/>
    <path d="M191.93,24.05h5.02c2.57,0,4.33,1.44,4.33,3.85,0,2.58-1.86,3.94-4.44,3.94h-3.15v5.43h-1.77v-13.22ZM193.69,30.36h3.06c1.81,0,2.72-.88,2.72-2.42s-1.1-2.42-2.65-2.42h-3.13v4.84Z"/>
    <path d="M203.2,30.25c0-1.35-.01-2.1-.02-2.62h1.63c.03.27.05,1.03.05,1.97.5-1.3,1.65-2.15,3.25-2.19v1.66c-1.98.06-3.25,1.09-3.25,3.53v4.68h-1.66v-7.02Z"/>
    <path d="M218.02,32.43c0,2.78-1.59,5.06-4.54,5.06-2.76,0-4.43-2.14-4.43-5.03s1.64-5.06,4.54-5.06c2.67,0,4.43,2,4.43,5.03ZM210.76,32.45c0,2.11,1.05,3.65,2.79,3.65s2.75-1.46,2.75-3.65-.98-3.66-2.79-3.66-2.75,1.45-2.75,3.65Z"/>
    <path d="M220.88,27.63c1.55,4.61,2.41,7.17,2.67,8.15h.02c.31-1.09,1-3.29,2.57-8.15h1.68l-3.46,10.08c-.98,2.82-1.7,3.53-3.68,3.53-.3,0-.66-.02-1.04-.06v-1.45c.24.03.52.05.79.05,1.22,0,1.68-.54,2.25-2.14l-3.61-10h1.8Z"/>
    <path d="M230.46,32.75c.01,1.96,1,3.35,2.63,3.35,1.52,0,2.02-.79,2.33-1.49h1.68c-.38,1.23-1.41,2.88-4.05,2.88-3.03,0-4.26-2.46-4.26-4.94,0-2.86,1.44-5.15,4.37-5.15,3.11,0,4.12,2.49,4.12,4.55,0,.29,0,.54-.03.8h-6.79ZM235.58,31.58c-.02-1.58-.82-2.86-2.46-2.86s-2.44,1.18-2.61,2.86h5.07Z"/>
    <path d="M247.11,34.32c-.41,1.66-1.53,3.17-3.98,3.17-2.65,0-4.29-1.91-4.29-4.99,0-2.72,1.54-5.1,4.42-5.1s3.74,1.98,3.86,3.22h-1.65c-.24-.98-.85-1.83-2.24-1.83-1.71,0-2.67,1.46-2.67,3.65s.94,3.67,2.61,3.67c1.21,0,1.91-.64,2.3-1.79h1.65Z"/>
    <path d="M248.08,27.63h1.67v-2.84h1.66v2.84h2.12v1.36h-2.12v5.64c0,.94.23,1.42,1.1,1.42.23,0,.58-.01.84-.08v1.25c-.41.15-.98.18-1.44.18-1.5,0-2.16-.78-2.16-2.38v-6.03h-1.67v-1.36Z"/>
    <path d="M263.52,32.43c0,2.78-1.59,5.06-4.54,5.06-2.76,0-4.43-2.14-4.43-5.03s1.64-5.06,4.54-5.06c2.67,0,4.43,2,4.43,5.03ZM256.27,32.45c0,2.11,1.05,3.65,2.79,3.65s2.75-1.46,2.75-3.65-.98-3.66-2.79-3.66-2.75,1.45-2.75,3.65Z"/>
    <path d="M213.45,49.05v13.22h-1.75v-13.22h1.75Z"/>
    <path d="M221.99,52.63c1.55,4.61,2.41,7.17,2.67,8.15h.02c.31-1.09,1-3.29,2.57-8.15h1.68l-3.46,10.08c-.98,2.82-1.7,3.53-3.68,3.53-.3,0-.66-.02-1.04-.06v-1.45c.24.03.52.05.79.05,1.22,0,1.68-.54,2.25-2.14l-3.61-10h1.8Z"/>
    <path d="M237.43,49.05v13.22h-1.75v-13.22h1.75Z"/>
    <path d="M242.77,49.05v13.22h-1.75v-13.22h1.75Z"/>
  </g>
  <rect class="cls-4" x="366.06" y="99.19" width="248.79" height="94.66"/>
  <rect class="cls-7" x="366.06" y="192.88" width="248.79" height="10.69"/>
  <g>
    <rect class="cls-2" x="377.18" y="115.53" width="226.54" height="75.48"/>
    <path d="M391.26,123.3h-6.57v4.68h7.22l-.22,1.5h-8.71v-13.22h8.61v1.5h-6.89v4.04h6.57v1.5Z"/>
    <path d="M393.8,129.48v-13.95h1.66v13.95h-1.66Z"/>
    <path d="M399.3,124.96c.01,1.96,1,3.35,2.63,3.35,1.52,0,2.02-.79,2.32-1.49h1.68c-.38,1.23-1.41,2.88-4.05,2.88-3.03,0-4.26-2.46-4.26-4.94,0-2.86,1.44-5.15,4.37-5.15,3.11,0,4.13,2.49,4.13,4.55,0,.29,0,.54-.03.8h-6.79ZM404.43,123.79c-.02-1.58-.82-2.86-2.46-2.86s-2.44,1.18-2.61,2.86h5.07Z"/>
    <path d="M415.96,126.53c-.41,1.66-1.53,3.17-3.98,3.17-2.65,0-4.29-1.91-4.29-4.99,0-2.72,1.54-5.1,4.41-5.1s3.74,1.98,3.86,3.22h-1.65c-.24-.98-.85-1.83-2.25-1.83-1.7,0-2.67,1.46-2.67,3.65s.94,3.67,2.61,3.67c1.21,0,1.91-.64,2.3-1.79h1.66Z"/>
    <path d="M416.92,119.85h1.67v-2.84h1.66v2.84h2.13v1.36h-2.13v5.64c0,.94.23,1.42,1.1,1.42.23,0,.58-.01.84-.08v1.25c-.41.15-.98.18-1.44.18-1.5,0-2.16-.78-2.16-2.38v-6.03h-1.67v-1.36Z"/>
    <path d="M424.14,115.53h1.66v2.08h-1.66v-2.08ZM424.14,119.85h1.66v9.63h-1.66v-9.63Z"/>
    <path d="M429.31,119.85c1.3,3.94,2.25,6.88,2.54,8.09h.02c.24-1.07,1.26-3.96,2.71-8.09h1.69l-3.54,9.63h-1.83l-3.36-9.63h1.78Z"/>
    <path d="M446.12,124.64c0,2.78-1.59,5.06-4.54,5.06-2.76,0-4.43-2.14-4.43-5.03s1.63-5.06,4.54-5.06c2.68,0,4.43,2,4.43,5.03ZM438.87,124.66c0,2.11,1.05,3.65,2.79,3.65s2.75-1.46,2.75-3.65-.99-3.66-2.79-3.66-2.75,1.46-2.75,3.65Z"/>
    <path d="M456.65,129.48l-4.81-13.22h1.88l2.33,6.59c.68,1.94,1.36,3.89,1.65,5.1h.04c.28-1.08,1.03-3.12,1.72-5.04l2.42-6.65h1.81l-4.97,13.22h-2.07Z"/>
    <path d="M470.66,119.85c1.55,4.61,2.41,7.17,2.67,8.15h.02c.31-1.09,1-3.29,2.57-8.15h1.68l-3.46,10.08c-.98,2.82-1.7,3.53-3.68,3.53-.3,0-.66-.02-1.04-.06v-1.45c.24.03.52.05.79.05,1.22,0,1.68-.54,2.25-2.14l-3.61-10h1.8Z"/>
    <path d="M495.65,123.85c0-2.46.03-4.95.08-6.34h-.07c-.57,2.14-2.71,7.82-4.22,11.97h-1.57c-1.14-3.38-3.36-9.74-3.95-12h-.06c.1,1.53.15,4.46.15,6.73v5.27h-1.65v-13.22h2.62c1.5,4.1,3.34,9.39,3.79,11.08h.03c.31-1.27,2.48-7.08,4.03-11.08h2.54v13.22h-1.71v-5.63Z"/>
    <path d="M500.63,122.62v-2.74h1.69v2.74h-1.69ZM500.63,129.48v-2.75h1.69v2.75h-1.69Z"/>
    <path d="M518.69,123.3h-6.57v4.68h7.22l-.23,1.5h-8.71v-13.22h8.61v1.5h-6.89v4.04h6.57v1.5Z"/>
    <path d="M521.23,129.48v-13.95h1.66v13.95h-1.66Z"/>
    <path d="M538.55,115.53v11.22c0,.91,0,1.79.02,2.72h-1.6c-.04-.25-.08-.99-.08-1.37-.47,1-1.45,1.59-3.03,1.59-2.48,0-4-2.01-4-4.94s1.64-5.15,4.3-5.15c1.71,0,2.46.69,2.72,1.23v-5.32h1.66ZM531.59,124.71c0,2.33,1.11,3.58,2.62,3.58,2.25,0,2.75-1.66,2.75-3.77s-.45-3.49-2.62-3.49c-1.7,0-2.75,1.35-2.75,3.68Z"/>
    <path d="M541.39,115.53h1.66v2.08h-1.66v-2.08ZM541.39,119.85h1.66v9.63h-1.66v-9.63Z"/>
    <path d="M546.61,126.72c.28,1.05,1.06,1.67,2.36,1.67,1.42,0,1.97-.61,1.97-1.49s-.44-1.32-2.28-1.76c-2.75-.67-3.33-1.51-3.33-2.82s1-2.71,3.48-2.71,3.5,1.44,3.63,2.78h-1.61c-.14-.62-.61-1.49-2.09-1.49-1.35,0-1.75.65-1.75,1.28,0,.72.4,1.08,2.16,1.5,2.92.69,3.51,1.67,3.51,3.1,0,1.69-1.34,2.92-3.74,2.92s-3.72-1.26-3.96-2.98h1.65Z"/>
    <path d="M562.41,126.53c-.41,1.66-1.53,3.17-3.98,3.17-2.65,0-4.29-1.91-4.29-4.99,0-2.72,1.54-5.1,4.42-5.1s3.74,1.98,3.86,3.22h-1.65c-.24-.98-.85-1.83-2.24-1.83-1.71,0-2.67,1.46-2.67,3.65s.94,3.67,2.61,3.67c1.21,0,1.91-.64,2.3-1.79h1.65Z"/>
    <path d="M572.06,126.67c0,.94.01,2.24.02,2.81h-1.62c-.04-.25-.06-.84-.06-1.44-.47,1.07-1.4,1.67-2.92,1.67-1.62,0-3.18-.81-3.18-3.53v-6.34h1.65v5.98c0,1.27.4,2.43,1.99,2.43,1.77,0,2.46-.98,2.46-3.39v-5.02h1.66v6.83Z"/>
    <path d="M574.91,122.46c0-1.35-.01-2.1-.02-2.62h1.63c.03.27.05,1.03.05,1.97.5-1.3,1.65-2.15,3.25-2.19v1.66c-1.98.06-3.25,1.09-3.25,3.53v4.68h-1.66v-7.02Z"/>
    <path d="M582.46,126.72c.28,1.05,1.06,1.67,2.36,1.67,1.42,0,1.97-.61,1.97-1.49s-.44-1.32-2.28-1.76c-2.75-.67-3.33-1.51-3.33-2.82s1-2.71,3.48-2.71,3.5,1.44,3.63,2.78h-1.61c-.14-.62-.61-1.49-2.09-1.49-1.35,0-1.75.65-1.75,1.28,0,.72.4,1.08,2.16,1.5,2.92.69,3.51,1.67,3.51,3.1,0,1.69-1.34,2.92-3.74,2.92s-3.72-1.26-3.96-2.98h1.65Z"/>
    <path d="M598.94,124.64c0,2.78-1.59,5.06-4.54,5.06-2.76,0-4.43-2.14-4.43-5.03s1.63-5.06,4.54-5.06c2.68,0,4.43,2,4.43,5.03ZM591.69,124.66c0,2.11,1.05,3.65,2.79,3.65s2.75-1.46,2.75-3.65-.99-3.66-2.79-3.66-2.75,1.46-2.75,3.65Z"/>
    <path d="M389.25,140.53v11.22c0,.91,0,1.79.02,2.72h-1.6c-.04-.25-.08-.99-.08-1.37-.47,1-1.45,1.59-3.03,1.59-2.47,0-4-2.01-4-4.94s1.64-5.15,4.31-5.15c1.71,0,2.46.69,2.72,1.23v-5.32h1.66ZM382.28,149.71c0,2.33,1.11,3.58,2.62,3.58,2.25,0,2.75-1.66,2.75-3.77s-.45-3.49-2.62-3.49c-1.7,0-2.75,1.35-2.75,3.68Z"/>
    <path d="M393.08,149.96c.01,1.96,1,3.35,2.63,3.35,1.52,0,2.02-.79,2.32-1.49h1.68c-.38,1.23-1.41,2.88-4.05,2.88-3.03,0-4.26-2.46-4.26-4.94,0-2.86,1.44-5.15,4.37-5.15,3.11,0,4.13,2.49,4.13,4.55,0,.29,0,.54-.03.8h-6.79ZM398.21,148.79c-.02-1.58-.82-2.86-2.46-2.86s-2.44,1.18-2.61,2.86h5.07Z"/>
    <path d="M402.08,154.48v-13.95h1.66v13.95h-1.66Z"/>
    <path d="M418.56,152.38c0,.88.08,1.82.13,2.1h-1.59c-.08-.21-.13-.67-.16-1.26-.34.64-1.11,1.49-2.97,1.49-2.27,0-3.24-1.48-3.24-2.94,0-2.15,1.69-3.13,4.55-3.13h1.64v-.82c0-.85-.27-1.89-2.07-1.89-1.61,0-1.88.8-2.06,1.55h-1.61c.13-1.33.95-2.86,3.72-2.85,2.35,0,3.66.97,3.66,3.16v4.6ZM416.94,149.78h-1.56c-1.92,0-2.95.53-2.95,1.89,0,1,.69,1.73,1.88,1.73,2.32,0,2.63-1.56,2.63-3.31v-.31Z"/>
    <path d="M421.63,154.48v-8.28h-1.55v-1.36h1.55v-1.15c0-1.77.68-3.35,2.81-3.35.35,0,.83.05,1.06.13v1.41c-.23-.06-.59-.09-.84-.09-.99,0-1.36.6-1.36,2.01v1.05h1.93v1.36h-1.93v8.28h-1.66Z"/>
    <path d="M426.85,140.53h1.66v2.08h-1.66v-2.08ZM426.85,144.85h1.66v9.63h-1.66v-9.63Z"/>
    <path d="M438.96,151.53c-.41,1.66-1.53,3.17-3.98,3.17-2.65,0-4.29-1.91-4.29-4.99,0-2.72,1.54-5.1,4.42-5.1s3.74,1.98,3.86,3.22h-1.65c-.24-.98-.85-1.83-2.24-1.83-1.71,0-2.67,1.46-2.67,3.65s.94,3.67,2.61,3.67c1.21,0,1.91-.64,2.3-1.79h1.65Z"/>
    <path d="M442.61,140.53v5.73c.49-.85,1.37-1.65,3.01-1.65,1.54,0,3.24.85,3.24,3.71v6.15h-1.66v-5.87c0-1.64-.69-2.55-2.09-2.55-1.73,0-2.5,1.15-2.5,3.15v5.27h-1.66v-13.95h1.66Z"/>
    <path d="M452.7,149.96c.01,1.96,1,3.35,2.63,3.35,1.52,0,2.02-.79,2.32-1.49h1.68c-.38,1.23-1.41,2.88-4.05,2.88-3.03,0-4.26-2.46-4.26-4.94,0-2.86,1.44-5.15,4.37-5.15,3.11,0,4.13,2.49,4.13,4.55,0,.29,0,.54-.03.8h-6.79ZM457.83,148.79c-.02-1.58-.82-2.86-2.46-2.86s-2.44,1.18-2.61,2.86h5.07Z"/>
    <path d="M468.03,153.29v4.98h-1.66v-11.07c0-.79,0-1.6-.02-2.35h1.62c.04.32.06.9.06,1.51.52-.97,1.5-1.74,3.15-1.74,2.23,0,3.85,1.87,3.85,4.8,0,3.44-1.86,5.29-4.19,5.29-1.56,0-2.37-.65-2.8-1.42ZM473.31,149.48c0-2.04-.93-3.44-2.57-3.44-2,0-2.79,1.26-2.79,3.6s.65,3.66,2.66,3.66c1.76,0,2.7-1.45,2.7-3.82Z"/>
    <path d="M485.59,149.64c0,2.78-1.59,5.06-4.54,5.06-2.76,0-4.43-2.14-4.43-5.03s1.64-5.06,4.54-5.06c2.67,0,4.43,2,4.43,5.03ZM478.34,149.66c0,2.11,1.05,3.65,2.79,3.65s2.75-1.46,2.75-3.65-.98-3.66-2.79-3.66-2.75,1.46-2.75,3.65Z"/>
    <path d="M487.77,154.48v-13.95h1.66v13.95h-1.66Z"/>
    <path d="M496.74,140.34l-2.91,2.92h-1.57l2.43-2.92h2.05ZM492.27,144.85h1.66v9.63h-1.66v-9.63Z"/>
    <path d="M495.63,144.85h1.67v-2.84h1.66v2.84h2.12v1.36h-2.12v5.64c0,.94.23,1.42,1.1,1.42.23,0,.58-.01.84-.08v1.25c-.41.15-.98.18-1.44.18-1.5,0-2.16-.78-2.16-2.38v-6.03h-1.67v-1.36Z"/>
    <path d="M502.85,140.53h1.66v2.08h-1.66v-2.08ZM502.85,144.85h1.66v9.63h-1.66v-9.63Z"/>
    <path d="M514.96,151.53c-.41,1.66-1.53,3.17-3.98,3.17-2.65,0-4.29-1.91-4.29-4.99,0-2.72,1.54-5.1,4.41-5.1s3.74,1.98,3.86,3.22h-1.65c-.24-.98-.85-1.83-2.25-1.83-1.7,0-2.67,1.46-2.67,3.65s.94,3.67,2.61,3.67c1.21,0,1.91-.64,2.3-1.79h1.66Z"/>
    <path d="M525.34,149.64c0,2.78-1.59,5.06-4.54,5.06-2.76,0-4.43-2.14-4.43-5.03s1.63-5.06,4.54-5.06c2.68,0,4.43,2,4.43,5.03ZM518.09,149.66c0,2.11,1.05,3.65,2.79,3.65s2.75-1.46,2.75-3.65-.99-3.66-2.79-3.66-2.75,1.46-2.75,3.65Z"/>
    <path d="M527.91,147.62v-2.74h1.69v2.74h-1.69ZM527.91,154.48v-2.75h1.69v2.75h-1.69Z"/>
    <path d="M538.35,149.96c.01,1.96,1,3.35,2.63,3.35,1.52,0,2.02-.79,2.32-1.49h1.68c-.38,1.23-1.41,2.88-4.05,2.88-3.03,0-4.26-2.46-4.26-4.94,0-2.86,1.44-5.15,4.37-5.15,3.11,0,4.13,2.49,4.13,4.55,0,.29,0,.54-.03.8h-6.79ZM543.48,148.79c-.02-1.58-.82-2.86-2.46-2.86s-2.44,1.18-2.61,2.86h5.07Z"/>
    <path d="M548.25,151.72c.28,1.05,1.05,1.67,2.36,1.67,1.41,0,1.97-.61,1.97-1.49s-.44-1.32-2.28-1.76c-2.75-.67-3.33-1.51-3.33-2.82s1-2.71,3.48-2.71,3.5,1.44,3.63,2.78h-1.61c-.14-.62-.61-1.49-2.09-1.49-1.35,0-1.75.65-1.75,1.28,0,.72.39,1.08,2.16,1.5,2.92.69,3.5,1.67,3.5,3.1,0,1.69-1.34,2.92-3.74,2.92s-3.72-1.26-3.96-2.98h1.66Z"/>
    <path d="M555.12,144.85h1.67v-2.84h1.66v2.84h2.12v1.36h-2.12v5.64c0,.94.23,1.42,1.1,1.42.23,0,.58-.01.84-.08v1.25c-.41.15-.98.18-1.44.18-1.5,0-2.16-.78-2.16-2.38v-6.03h-1.67v-1.36Z"/>
    <path d="M563.28,149.96c.01,1.96,1,3.35,2.63,3.35,1.52,0,2.02-.79,2.32-1.49h1.68c-.38,1.23-1.41,2.88-4.05,2.88-3.03,0-4.26-2.46-4.26-4.94,0-2.86,1.44-5.15,4.37-5.15,3.11,0,4.13,2.49,4.13,4.55,0,.29,0,.54-.03.8h-6.79ZM568.41,148.79c-.02-1.58-.82-2.86-2.46-2.86s-2.44,1.18-2.61,2.86h5.07ZM569.28,140.34l-2.91,2.92h-1.57l2.43-2.92h2.05Z"/>
    <path d="M571.08,144.85h1.67v-2.84h1.66v2.84h2.12v1.36h-2.12v5.64c0,.94.23,1.42,1.1,1.42.23,0,.58-.01.84-.08v1.25c-.41.15-.98.18-1.44.18-1.5,0-2.16-.78-2.16-2.38v-6.03h-1.67v-1.36Z"/>
    <path d="M578.3,140.53h1.66v2.08h-1.66v-2.08ZM578.3,144.85h1.66v9.63h-1.66v-9.63Z"/>
    <path d="M590.4,151.53c-.41,1.66-1.53,3.17-3.98,3.17-2.65,0-4.29-1.91-4.29-4.99,0-2.72,1.54-5.1,4.41-5.1s3.74,1.98,3.86,3.22h-1.65c-.24-.98-.85-1.83-2.25-1.83-1.7,0-2.67,1.46-2.67,3.65s.94,3.67,2.61,3.67c1.21,0,1.91-.64,2.3-1.79h1.66Z"/>
    <path d="M599.65,152.38c0,.88.08,1.82.13,2.1h-1.59c-.08-.21-.13-.67-.16-1.26-.34.64-1.11,1.49-2.97,1.49-2.27,0-3.24-1.48-3.24-2.94,0-2.15,1.69-3.13,4.55-3.13h1.64v-.82c0-.85-.27-1.89-2.07-1.89-1.61,0-1.88.8-2.06,1.55h-1.61c.13-1.33.95-2.86,3.72-2.85,2.35,0,3.66.97,3.66,3.16v4.6ZM598.02,149.78h-1.56c-1.92,0-2.95.53-2.95,1.89,0,1,.69,1.73,1.88,1.73,2.32,0,2.63-1.56,2.63-3.31v-.31Z"/>
    <path d="M460.76,169.85c1.55,4.61,2.41,7.17,2.67,8.15h.02c.31-1.09,1-3.29,2.57-8.15h1.68l-3.46,10.08c-.98,2.82-1.7,3.53-3.68,3.53-.3,0-.66-.02-1.04-.06v-1.45c.24.03.52.05.79.05,1.22,0,1.68-.54,2.25-2.14l-3.61-10h1.8Z"/>
    <path d="M475.79,178.29v4.98h-1.66v-11.07c0-.79,0-1.6-.02-2.35h1.62c.04.32.06.9.06,1.51.52-.97,1.5-1.74,3.15-1.74,2.23,0,3.85,1.87,3.85,4.8,0,3.44-1.86,5.29-4.19,5.29-1.56,0-2.37-.65-2.8-1.42ZM481.07,174.48c0-2.04-.93-3.44-2.57-3.44-2,0-2.79,1.26-2.79,3.6s.65,3.66,2.66,3.66c1.76,0,2.7-1.45,2.7-3.82Z"/>
    <path d="M484.96,172.46c0-1.35-.01-2.1-.02-2.62h1.63c.03.27.05,1.03.05,1.97.5-1.3,1.65-2.15,3.25-2.19v1.66c-1.98.06-3.25,1.09-3.25,3.53v4.68h-1.66v-7.02Z"/>
    <path d="M498.5,177.38c0,.88.08,1.82.13,2.1h-1.59c-.08-.21-.13-.67-.16-1.26-.34.64-1.11,1.49-2.97,1.49-2.27,0-3.24-1.48-3.24-2.94,0-2.15,1.69-3.13,4.55-3.13h1.64v-.82c0-.85-.27-1.89-2.07-1.89-1.61,0-1.88.8-2.06,1.55h-1.61c.13-1.33.95-2.86,3.72-2.85,2.35,0,3.66.97,3.66,3.16v4.6ZM496.88,174.78h-1.56c-1.92,0-2.95.53-2.95,1.89,0,1,.69,1.73,1.88,1.73,2.32,0,2.63-1.56,2.63-3.31v-.31Z"/>
    <path d="M502.01,169.85c1.36,2.14,1.93,3.06,2.28,3.6h.02c.41-.62,1.22-1.88,2.36-3.6h1.86l-3.26,4.63,3.29,5h-1.92c-1.17-1.88-1.99-3.18-2.38-3.81h-.02c-.32.54-1.1,1.82-2.36,3.81h-1.86l3.23-4.81-3.14-4.82h1.88Z"/>
    <path d="M510.17,165.53h1.66v2.08h-1.66v-2.08ZM510.17,169.85h1.66v9.63h-1.66v-9.63Z"/>
    <path d="M515.39,176.72c.28,1.05,1.05,1.67,2.36,1.67,1.41,0,1.97-.61,1.97-1.49s-.44-1.32-2.28-1.76c-2.75-.67-3.33-1.51-3.33-2.82s1-2.71,3.48-2.71,3.5,1.44,3.63,2.78h-1.61c-.14-.62-.61-1.49-2.09-1.49-1.35,0-1.75.65-1.75,1.28,0,.72.39,1.08,2.16,1.5,2.92.69,3.5,1.67,3.5,3.1,0,1.69-1.34,2.92-3.74,2.92s-3.72-1.26-3.96-2.98h1.66Z"/>
  </g>
</svg>